<?xml version="1.0" encoding="UTF-8"?>
<!-- Created with Inkscape (http://www.inkscape.org/) -->
<svg width="83.44mm" height="108.71mm" version="1.1" viewBox="0 0 83.44 108.71" xmlns="http://www.w3.org/2000/svg" xmlns:cc="http://creativecommons.org/ns#" xmlns:dc="http://purl.org/dc/elements/1.1/" xmlns:rdf="http://www.w3.org/1999/02/22-rdf-syntax-ns#" xmlns:xlink="http://www.w3.org/1999/xlink">
 <defs>
  <linearGradient id="linearGradient13129" x1="819.93" x2="819.93" y1="598.64" y2="132.32" gradientUnits="userSpaceOnUse">
   <stop stop-color="#c6d4dd" offset="0"/>
   <stop stop-color="#b6c8d3" offset="1"/>
  </linearGradient>
  <linearGradient id="linearGradient13135">
   <stop stop-color="#dce5ea" offset="0"/>
   <stop stop-color="#ecf1f4" offset="1"/>
  </linearGradient>
  <linearGradient id="linearGradient13114-2-2-4-1" x1="-509.95" x2="-452.17" y1="-208.61" y2="-133.5" gradientTransform="matrix(.65517 0 0 .65049 587.42 273.2)" gradientUnits="userSpaceOnUse" xlink:href="#linearGradient13129"/>
  <linearGradient id="linearGradient13114-2-2-3" x1="-551.95" x2="-455.6" y1="-184.21" y2="-248.14" gradientTransform="matrix(.8245 0 0 .81861 673.87 345.73)" gradientUnits="userSpaceOnUse" xlink:href="#linearGradient13129"/>
  <linearGradient id="linearGradient13137-7-8-8-9" x1="-460.78" x2="-490.55" y1="-237.35" y2="-273.89" gradientTransform="matrix(.85657 0 0 .84119 692.92 342.26)" gradientUnits="userSpaceOnUse" xlink:href="#linearGradient13135"/>
  <linearGradient id="linearGradient13137-7-8-8-5-8" x1="-460.78" x2="-490.55" y1="-237.35" y2="-273.89" gradientTransform="matrix(.85657 0 0 .84119 692.92 371.9)" gradientUnits="userSpaceOnUse" xlink:href="#linearGradient13135"/>
  <linearGradient id="linearGradient13137-7-8-8-5-4-4" x1="-464.42" x2="-490.55" y1="-240.69" y2="-273.89" gradientTransform="matrix(.85657 0 0 .84119 692.81 401.88)" gradientUnits="userSpaceOnUse" xlink:href="#linearGradient13135"/>
 </defs>
 <metadata>
  <rdf:RDF>
   <cc:Work rdf:about="">
    <dc:format>image/svg+xml</dc:format>
    <dc:type rdf:resource="http://purl.org/dc/dcmitype/StillImage"/>
    <dc:title/>
   </cc:Work>
  </rdf:RDF>
 </metadata>
 <g transform="translate(-62.837 -79.133)">
  <g transform="matrix(1 0 .19208 1 617.94 369.68)">
   <g transform="translate(6.9035 -19.243)">
    <g transform="matrix(.2505 0 -.048116 .2505 -2910.6 80.699)">
     <g transform="matrix(3.4194 0 -4.7573e-8 3.4194 8629.6 -1723.1)">
      <g>
       <path d="m221.5 92.977c-3.8976 0-5.8552 0.0208-6.4416 1.2022l-10.096 19.737 96.238-0.14798-10.078-19.568c-0.64535-1.2261-2.5756-1.2164-6.5045-1.2226z" fill="url(#linearGradient13114-2-2-4-1)" stroke-width=".20056"/>
       <path d="m213.37 111.94h79.431c9.0196 0.014 9.0223 0.0181 9.0223 8.908v90.175c-0.0196 8.9445-0.12912 8.8784-9.137 8.8784h-79.487c-8.7932 0.0309-8.7896-0.13063-8.7896-9.0501l-1e-5 -90.011c0.0505-8.9212 4e-3 -8.9012 8.9613-8.9012z" fill="url(#linearGradient13114-2-2-3)" stroke-width=".2524"/>
       <rect x="208.16" y="115.46" width="90.067" height="27.137" fill="url(#linearGradient13137-7-8-8-9)" stroke-width=".24606"/>
      </g>
      <g fill="#fff">
       <rect x="215.56" y="119.5" width="3.4902" height="19.502" stroke-width=".24606"/>
       <g transform="matrix(.22663 0 0 .26715 206.62 107.73)" opacity=".7">
        <rect x="69.81" y="44.05" width="15.4" height="73" fill="#fff"/>
       </g>
       <g transform="matrix(.22663 0 0 .26715 206.62 107.73)" opacity=".6">
        <rect x="100.22" y="44.05" width="15.4" height="73" fill="#fff"/>
       </g>
       <g transform="matrix(.22663 0 0 .26715 206.62 107.73)" opacity=".5">
        <rect x="130.62" y="44.05" width="15.4" height="73" fill="#fff"/>
       </g>
       <g transform="matrix(.22663 0 0 .26715 206.62 107.73)" opacity=".5">
        <rect x="161.02" y="44.05" width="15.4" height="73" fill="#fff"/>
       </g>
       <g transform="matrix(.22663 0 0 .26715 206.62 107.73)" opacity=".4">
        <rect x="191.42" y="44.05" width="15.4" height="73" fill="#fff"/>
       </g>
      </g>
      <circle cx="283.21" cy="129.58" r="3.2732" fill="#b6c8d3" stroke-width=".22663"/>
      <rect x="208.16" y="145.1" width="90.067" height="27.137" fill="url(#linearGradient13137-7-8-8-5-8)" stroke-width=".24606"/>
      <g fill="#fff">
       <rect x="215.56" y="149.14" width="3.4902" height="19.502" stroke-width=".24606"/>
       <g transform="matrix(.22663 0 0 .26715 206.62 137.37)" opacity=".7">
        <rect x="69.81" y="44.05" width="15.4" height="73" fill="#fff"/>
       </g>
       <g transform="matrix(.22663 0 0 .26715 206.62 137.37)" opacity=".6">
        <rect x="100.22" y="44.05" width="15.4" height="73" fill="#fff"/>
       </g>
       <g transform="matrix(.22663 0 0 .26715 206.62 137.37)" opacity=".5">
        <rect x="130.62" y="44.05" width="15.4" height="73" fill="#fff"/>
       </g>
       <g transform="matrix(.22663 0 0 .26715 206.62 137.37)" opacity=".5">
        <rect x="161.02" y="44.05" width="15.4" height="73" fill="#fff"/>
       </g>
       <g transform="matrix(.22663 0 0 .26715 206.62 137.37)" opacity=".4">
        <rect x="191.42" y="44.05" width="15.4" height="73" fill="#fff"/>
       </g>
      </g>
      <circle cx="283.21" cy="159.22" r="3.2732" fill="#b6c8d3" stroke-width=".22663"/>
      <rect x="208.05" y="175.09" width="90.067" height="41.179" fill="url(#linearGradient13137-7-8-8-5-4-4)" stroke-width=".24606"/>
      <g fill="#fff">
       <rect x="215.45" y="179.12" width="3.4902" height="33.182" stroke-width=".32096"/>
       <g transform="matrix(.22663 0 0 .45454 206.51 159.1)" opacity=".7">
        <rect x="69.81" y="44.05" width="15.4" height="73" fill="#fff"/>
       </g>
       <g transform="matrix(.22663 0 0 .45454 206.51 159.1)" opacity=".6">
        <rect x="100.22" y="44.05" width="15.4" height="73" fill="#fff"/>
       </g>
       <g transform="matrix(.22663 0 0 .45454 206.51 159.1)" opacity=".5">
        <rect x="130.62" y="44.05" width="15.4" height="73" fill="#fff"/>
       </g>
       <g transform="matrix(.22663 0 0 .45454 206.51 159.1)" opacity=".5">
        <rect x="161.02" y="44.05" width="15.4" height="73" fill="#fff"/>
       </g>
       <g transform="matrix(.22663 0 0 .45454 206.51 159.1)" opacity=".4">
        <rect x="191.42" y="44.05" width="15.4" height="73" fill="#fff"/>
       </g>
      </g>
      <g transform="matrix(1.5896 0 0 1.5896 256.29 174.96)">
       <g transform="matrix(.020994 0 0 .020994 -1.78 9.34)" fill="#a1b8c7" opacity=".5" stroke="#a1b8c7" stroke-width="42.85">
        <path d="m718.84 116.19a70.798 70.798 0 1 0 0.72612 0z" fill="#a1b8c7" stroke="#a1b8c7" stroke-width="42.85"/>
       </g>
       <g transform="matrix(.02226 0 0 .02226 8.605 8.82)" fill="none" opacity=".5" stroke="#000">
        <path d="m209.07 18.931a180.87 180.87 0 1 0 1.8551 0z" fill="#a1b8c7" stroke="#a1b8c7" stroke-width="40.412"/>
       </g>
       <g transform="matrix(.02226 0 0 .02226 8.605 8.82)" fill="none" stroke-width="0">
        <path transform="matrix(11.886,0,0,11.886,2343.5,911.56)" d="m-179.58-75.1a15.218 15.218 0 1 0 0.15624 0zm0.18945 7.8965h0.0744c4.0141 0.02058 7.2898 3.321 7.2793 7.334-0.0105 4.0128-3.3043 7.293-7.3164 7.293-4.0121-1e-6 -7.3059-3.2802-7.3164-7.293-0.0105-4.0129 3.2652-7.3134 7.2793-7.334z" fill="#fff" stroke-width="0"/>
       </g>
       <g transform="matrix(.020994 0 0 .020994 -1.78 9.34)" fill="#fff">
        <path d="m718.84 116.19a70.798 70.798 0 1 0 0.72612 0z" fill="#fff"/>
       </g>
       <g shape-rendering="auto">
        <path d="m4.201 22.33 5.0723-2.3457c-0.42149-0.0772-0.89539-0.10671-1.2734-0.26367l2.3418-2.3418-1.1973-1.1992-2.3418 2.3438c-0.16203-0.39199-0.18136-0.8441-0.248-1.2793-0.79412 1.6908-2.3536 5.0859-2.3536 5.0859z" color="#000000" color-rendering="auto" dominant-baseline="auto" fill="#a1b8c7" image-rendering="auto" opacity=".5" solid-color="#000000" style="font-feature-settings:normal;font-variant-alternates:normal;font-variant-caps:normal;font-variant-ligatures:normal;font-variant-numeric:normal;font-variant-position:normal;isolation:auto;mix-blend-mode:normal;shape-padding:0;text-decoration-color:#000000;text-decoration-line:none;text-decoration-style:solid;text-indent:0;text-orientation:mixed;text-transform:none;white-space:normal"/>
        <path d="m8.202 20.13c-0.2805-0.0461-0.53903-0.14906-0.77247-0.28867l2.4628-2.4629-0.74872-0.74872-2.4672 2.4672c-0.13897-0.2323-0.23605-0.49245-0.27843-0.77101-0.52644 1.1228-1.5508 3.3552-1.5508 3.3552z" color="#000000" color-rendering="auto" dominant-baseline="auto" fill="#fff" image-rendering="auto" solid-color="#000000" style="font-feature-settings:normal;font-variant-alternates:normal;font-variant-caps:normal;font-variant-ligatures:normal;font-variant-numeric:normal;font-variant-position:normal;isolation:auto;mix-blend-mode:normal;shape-padding:0;text-decoration-color:#000000;text-decoration-line:none;text-decoration-style:solid;text-indent:0;text-orientation:mixed;text-transform:none;white-space:normal"/>
        <path d="m22.363 22.32-2.3457-5.0723c-0.07724 0.42149-0.10671 0.89539-0.26367 1.2734l-2.3418-2.3418-1.1992 1.1973 2.3438 2.3418c-0.39199 0.16203-0.8441 0.18136-1.2793 0.248 1.6909 0.79412 5.0859 2.3536 5.0859 2.3536z" color="#000000" color-rendering="auto" dominant-baseline="auto" fill="#a1b8c7" image-rendering="auto" opacity=".5" solid-color="#000000" style="font-feature-settings:normal;font-variant-alternates:normal;font-variant-caps:normal;font-variant-ligatures:normal;font-variant-numeric:normal;font-variant-position:normal;isolation:auto;mix-blend-mode:normal;shape-padding:0;text-decoration-color:#000000;text-decoration-line:none;text-decoration-style:solid;text-indent:0;text-orientation:mixed;text-transform:none;white-space:normal"/>
        <path d="m20.163 18.32c-0.0461 0.2805-0.14906 0.53903-0.28867 0.77247l-2.4629-2.4628-0.74872 0.74872 2.4672 2.4672c-0.23231 0.13897-0.49245 0.23605-0.77101 0.27843 1.1228 0.52644 3.3552 1.5508 3.3552 1.5508z" color="#000000" color-rendering="auto" dominant-baseline="auto" fill="#fff" image-rendering="auto" solid-color="#000000" style="font-feature-settings:normal;font-variant-alternates:normal;font-variant-caps:normal;font-variant-ligatures:normal;font-variant-numeric:normal;font-variant-position:normal;isolation:auto;mix-blend-mode:normal;shape-padding:0;text-decoration-color:#000000;text-decoration-line:none;text-decoration-style:solid;text-indent:0;text-orientation:mixed;text-transform:none;white-space:normal"/>
        <path d="m22.304 4.22-5.0723 2.3457c0.42149 0.0772 0.89539 0.10671 1.2734 0.26367l-2.3418 2.3418 1.1973 1.1992 2.3418-2.3438c0.16203 0.39199 0.18136 0.8441 0.248 1.2793 0.79412-1.6908 2.3536-5.0859 2.3536-5.0859z" color="#000000" color-rendering="auto" dominant-baseline="auto" fill="#a1b8c7" image-rendering="auto" opacity=".5" solid-color="#000000" style="font-feature-settings:normal;font-variant-alternates:normal;font-variant-caps:normal;font-variant-ligatures:normal;font-variant-numeric:normal;font-variant-position:normal;isolation:auto;mix-blend-mode:normal;shape-padding:0;text-decoration-color:#000000;text-decoration-line:none;text-decoration-style:solid;text-indent:0;text-orientation:mixed;text-transform:none;white-space:normal"/>
        <path d="m18.302 6.42c0.2805 0.0461 0.53903 0.14906 0.77247 0.28867l-2.4628 2.4629 0.74872 0.74872 2.4672-2.4672c0.13897 0.2323 0.23605 0.49245 0.27843 0.77101 0.52644-1.1228 1.5508-3.3552 1.5508-3.3552z" color="#000000" color-rendering="auto" dominant-baseline="auto" fill="#fff" image-rendering="auto" solid-color="#000000" style="font-feature-settings:normal;font-variant-alternates:normal;font-variant-caps:normal;font-variant-ligatures:normal;font-variant-numeric:normal;font-variant-position:normal;isolation:auto;mix-blend-mode:normal;shape-padding:0;text-decoration-color:#000000;text-decoration-line:none;text-decoration-style:solid;text-indent:0;text-orientation:mixed;text-transform:none;white-space:normal"/>
        <path d="m4.254 4.22 2.3457 5.0723c0.07724-0.42149 0.10671-0.89539 0.26367-1.2734l2.3418 2.3418 1.1992-1.1973-2.3438-2.3418c0.39199-0.16203 0.8441-0.18136 1.2793-0.248-1.6909-0.79412-5.0859-2.3536-5.0859-2.3536z" color="#000000" color-rendering="auto" dominant-baseline="auto" fill="#a1b8c7" image-rendering="auto" opacity=".5" solid-color="#000000" style="font-feature-settings:normal;font-variant-alternates:normal;font-variant-caps:normal;font-variant-ligatures:normal;font-variant-numeric:normal;font-variant-position:normal;isolation:auto;mix-blend-mode:normal;shape-padding:0;text-decoration-color:#000000;text-decoration-line:none;text-decoration-style:solid;text-indent:0;text-orientation:mixed;text-transform:none;white-space:normal"/>
        <path d="m6.455 8.22c0.0461-0.2805 0.14906-0.53903 0.28867-0.77247l2.4629 2.4628 0.74872-0.74872-2.4672-2.4672c0.23231-0.13897 0.49245-0.23605 0.77101-0.27843-1.1228-0.52644-3.3552-1.5508-3.3552-1.5508z" color="#000000" color-rendering="auto" dominant-baseline="auto" fill="#fff" image-rendering="auto" solid-color="#000000" style="font-feature-settings:normal;font-variant-alternates:normal;font-variant-caps:normal;font-variant-ligatures:normal;font-variant-numeric:normal;font-variant-position:normal;isolation:auto;mix-blend-mode:normal;shape-padding:0;text-decoration-color:#000000;text-decoration-line:none;text-decoration-style:solid;text-indent:0;text-orientation:mixed;text-transform:none;white-space:normal"/>
       </g>
      </g>
     </g>
    </g>
   </g>
  </g>
 </g>
</svg>
