<?xml version="1.0" encoding="UTF-8"?>
<!-- Generator: Adobe Illustrator 18.0.0, SVG Export Plug-In . SVG Version: 6.00 Build 0)  -->
<svg width="545" height="545" version="1.1" viewBox="0 0 545 545" xml:space="preserve" xmlns="http://www.w3.org/2000/svg" xmlns:cc="http://creativecommons.org/ns#" xmlns:dc="http://purl.org/dc/elements/1.1/" xmlns:osb="http://www.openswatchbook.org/uri/2009/osb" xmlns:rdf="http://www.w3.org/1999/02/22-rdf-syntax-ns#" xmlns:xlink="http://www.w3.org/1999/xlink"><metadata><rdf:RDF><cc:Work rdf:about=""><dc:format>image/svg+xml</dc:format><dc:type rdf:resource="http://purl.org/dc/dcmitype/StillImage"/><dc:title/></cc:Work></rdf:RDF></metadata>
<g transform="translate(682.7 584.46)">
	<path d="m-405.63-483.82c-203.14 0-213.83 203.14-160.37 267.29 6.5943-68.433 43.996-114.19 107.94-140.41-5.7665-60.826 16.857-99.016 52.429-126.88z" fill="#fff" fill-opacity=".70588"/><g stroke="#000" stroke-width="4"><path d="m-458.06-356.94c33.089-11.758 67.993-13.457 105.89 1.4165 4.1353-59.345-16.054-100.32-53.458-128.3-31.876 27.328-58.633 59.976-52.429 126.88z" fill="#005a8c"/><path d="m-405.63-483.82c38.257 28.219 57.339 70.087 53.458 128.3 64.03 24.935 99.807 71.16 106.92 138.99 64.149-106.92 1e-5 -267.29-160.37-267.29z" fill="#3cff3c"/>
	
	
<path d="m-405.63-483.82c-203.14 0-213.83 203.14-160.37 267.29 6.5943-68.433 43.996-114.19 107.94-140.41-5.7665-60.826 16.857-99.016 52.429-126.88z" fill="#3c82ff" fill-opacity=".70588"/><path d="m-566-216.54c64.149 21.383 117.61 10.692 160.37-32.075 53.458 42.766 106.92 53.458 160.37 32.075-74.841 128.3-245.91 117.61-320.75 0z" fill="#a00000"/></g><path d="m-459.09-355.53c35.731-12.425 71.369-12.313 106.92 0-5.8132 45.815-20.32 84.261-53.458 106.92-36.182-24.406-47.516-64.012-53.458-106.92z" fill="#fffcff"/><path d="m-459.09-355.53c35.731-12.425 71.369-12.313 106.92 0-5.8132 45.815-20.32 84.261-53.458 106.92-36.182-24.406-47.516-64.012-53.458-106.92z" fill="#ff3c3c" fill-opacity=".70588" stroke="#000" stroke-width="4"/></g>















</svg>
