<?xml version="1.0" encoding="UTF-8"?>
<!-- Generator: Adobe Illustrator 18.0.0, SVG Export Plug-In . SVG Version: 6.00 Build 0)  -->
<svg width="545" height="545" version="1.1" viewBox="0 0 545 545" xml:space="preserve" xmlns="http://www.w3.org/2000/svg" xmlns:cc="http://creativecommons.org/ns#" xmlns:dc="http://purl.org/dc/elements/1.1/" xmlns:osb="http://www.openswatchbook.org/uri/2009/osb" xmlns:rdf="http://www.w3.org/1999/02/22-rdf-syntax-ns#" xmlns:xlink="http://www.w3.org/1999/xlink"><metadata><rdf:RDF><cc:Work rdf:about=""><dc:format>image/svg+xml</dc:format><dc:type rdf:resource="http://purl.org/dc/dcmitype/StillImage"/><dc:title/></cc:Work></rdf:RDF></metadata>
<g transform="translate(31.678 19.705)"><g><g stroke="#000" stroke-width="4">
	
	
	
<g transform="translate(-225.45 -120.38)" fill="#008200" fill-rule="evenodd" stroke-opacity=".98131"><path d="m457.58 141.27c-12.653 5.7265-24.29 13.915-36.585 20.504-52.418 30.465-105.22 60.353-157.4 91.172-9.029 7.4005-5.9015 19.968-6.3457 30.037 0.13998 67.271-0.27951 134.59 0.20899 201.83 1.9 6.2516 8.8869 1.2887 12.044-0.83982 61.826-35.819 123.89-71.278 185.57-107.32 7.4873-5.731 7.3771-15.91 6.7598-24.381-0.13732-69.266 0.27424-138.58-0.20508-207.82-0.49463-1.7304-2.0724-3.5043-4.041-3.1875z" fill="#008200" fill-rule="evenodd" stroke="#000" stroke-opacity=".98131" stroke-width="4"/></g><g transform="translate(225.64 -119.82)" fill="#a00000" stroke-opacity=".98131"><path d="m31.564 141.27c-6.0951 2.3291-2.3545 10.797-3.3887 15.625 0.15955 69.596-0.31779 139.23 0.23633 208.8 1.6084 10.349 12.23 14.534 20.224 19.053 59.679 34.277 119.09 69.111 178.93 103.04 5.8165 1.4244 5.6757-6.8585 5.1738-10.443-0.16613-71.28 0.33089-142.6-0.24609-213.86-1.7968-11.107-13.625-14.895-21.944-19.998-59.096-33.943-117.93-68.437-177.19-102.04-0.58374-0.16746-1.196-0.25581-1.8027-0.18945z" fill="#a00000" stroke="#000" stroke-opacity=".98131" stroke-width="4"/></g><path d="m243.93 269.64c-10.226 0.60719-17.77 9.0801-26.781 13.04-56.792 33.174-113.92 65.864-170.5 99.337-4.2346 4.407 4.0733 7.5533 6.8602 9.211 62.094 35.662 123.9 71.91 186.17 107.21 9.4116 3.6808 18.184-2.851 25.759-7.5358 59.388-34.688 119.12-68.876 178.3-103.87 4.2106-4.4069-4.098-7.5359-6.8739-9.1973-61.941-35.634-123.68-71.666-185.75-107.05-2.2844-0.85934-4.7495-1.2046-7.1836-1.1387z" fill="#005a8c"/></g><g transform="matrix(12.462 0 0 9.3385 649.87 209.67)" fill="#000012"><path d="m-21.237-3.7882c0-5.0787-4.9465-9.1963-11.25-9.1963-6.299 0.0023-11.248 4.12-11.248 9.1987v20.573c0 5.0811 4.9485 9.1963 11.25 9.1963 6.301 2e-5 11.248-4.1151 11.248-9.1987z" fill="#fff" stroke-width="1.5618"/><path d="m-32.599 4.9897c6.5926 0.055584 11.731-4.1176 11.731-9.1987 0-5.0811-5.0765-9.1974-11.731-9.1963-6.6544 0.0012-11.408 4.1188-11.408 9.1987 0 5.0799 4.8154 9.1407 11.408 9.1963z" fill="#b3b3b3" stroke="#060000" stroke-width=".30899"/><g stroke="#000" stroke-width=".30899"><path d="m-21.021-1.857c-0.23 2.016-2.9397 7.3194-11.391 7.4968s-11.158-5.4808-11.387-7.4958c-0.201 0.366-0.318 0.748-0.318 1.141v3.561c0 2.752 2.9129 9.4475 11.705 9.0926s11.711-6.3396 11.711-9.0926v-3.561c0-0.393-0.119-0.775-0.32-1.142z" fill="#999" stroke-opacity=".98131"/><path d="m-21.017 5.1911c-0.23 2.016-2.9397 7.3194-11.391 7.4968s-11.158-5.4808-11.387-7.4958c-0.201 0.366-0.318 0.748-0.318 1.141v3.561c0 2.752 2.9129 9.4475 11.705 9.0926 8.7921-0.35491 11.711-6.3396 11.711-9.0926v-3.561c0-0.393-0.119-0.775-0.32-1.142z" fill="#808080"/><path d="m-20.969 12.314c-0.23 2.016-2.9397 7.3194-11.391 7.4968-8.4513 0.17746-11.158-5.4808-11.387-7.4958-0.201 0.366-0.318 0.748-0.318 1.141v3.561c0 2.752 2.9129 9.4475 11.705 9.0926 8.7921-0.35491 11.711-6.3396 11.711-9.0926v-3.561c0-0.393-0.119-0.775-0.32-1.142z" fill="#666"/></g></g></g><g fill-opacity=".47059" stroke="#000" stroke-width="4"><g transform="translate(8 16)" fill="#ff3c3c" fill-rule="evenodd"><path d="m457.58 141.27c-12.653 5.7265-24.29 13.915-36.585 20.504-52.418 30.465-105.22 60.353-157.4 91.172-9.029 7.4005-5.9015 19.968-6.3457 30.037 0.13998 67.271-0.27951 134.59 0.20899 201.83 1.9 6.2516 8.8869 1.2887 12.044-0.83982 61.826-35.819 123.89-71.278 185.57-107.32 7.4873-5.731 7.3771-15.91 6.7598-24.381-0.13732-69.266 0.27424-138.58-0.20508-207.82-0.49463-1.7304-2.0724-3.5043-4.041-3.1875z" fill="#ff3c3c" fill-opacity=".47059" fill-rule="evenodd" stroke="#000" stroke-width="4"/></g><g transform="translate(-8 16)" fill="#3c82ff"><path d="m31.564 141.27c-6.0951 2.3291-2.3545 10.797-3.3887 15.625 0.15955 69.596-0.31779 139.23 0.23633 208.8 1.6084 10.349 12.23 14.534 20.224 19.053 59.679 34.277 119.09 69.111 178.93 103.04 5.8165 1.4244 5.6757-6.8585 5.1738-10.443-0.16613-71.28 0.33089-142.6-0.24609-213.86-1.7968-11.107-13.625-14.895-21.944-19.998-59.096-33.943-117.93-68.437-177.19-102.04-0.58374-0.16746-1.196-0.25581-1.8027-0.18945z" fill="#3c82ff" fill-opacity=".47059" stroke="#000" stroke-width="4"/></g><path d="m243.57 2.0098c-10.226 0.60719-17.77 9.0801-26.781 13.04-56.792 33.174-113.92 65.864-170.5 99.337-4.2346 4.407 4.0733 7.5533 6.8602 9.211 62.094 35.662 123.9 71.91 186.17 107.21 9.4116 3.6808 18.184-2.851 25.759-7.5358 59.388-34.688 119.12-68.876 178.3-103.87 4.2106-4.4069-4.098-7.5359-6.8739-9.1973-61.941-35.634-123.68-71.666-185.75-107.05-2.2844-0.85934-4.7495-1.2046-7.1836-1.1387z" fill="#3cff3c"/></g></g>















</svg>
