<?xml version="1.0" encoding="UTF-8"?>
<!-- Created with Inkscape (http://www.inkscape.org/) -->
<svg width="26.754mm" height="26.754mm" version="1.1" viewBox="0 0 26.754 26.754" xmlns="http://www.w3.org/2000/svg" xmlns:cc="http://creativecommons.org/ns#" xmlns:dc="http://purl.org/dc/elements/1.1/" xmlns:rdf="http://www.w3.org/1999/02/22-rdf-syntax-ns#">
 <title>Vivid Root</title>
 <metadata>
  <rdf:RDF>
   <cc:Work rdf:about="">
    <dc:format>image/svg+xml</dc:format>
    <dc:type rdf:resource="http://purl.org/dc/dcmitype/StillImage"/>
    <dc:title>Vivid Root</dc:title>
   </cc:Work>
  </rdf:RDF>
 </metadata>
 <g transform="translate(-74.314 -145.28)">
  <rect x="74.314" y="145.28" width="26.754" height="26.754" ry="3.087" fill="#fff" stroke-width="0"/>
  <g transform="matrix(.02226 0 0 .02226 82.919 154.1)" fill="none" stroke="#000">
   <path d="m209.07 18.931a180.87 180.87 0 1 0 1.8551 0z" fill="#a1b8c7" stroke="#a1b8c7" stroke-width="40.412"/>
  </g>
  <g transform="matrix(.02226 0 0 .02226 82.919 154.1)" fill="none" stroke-width="0">
   <path transform="matrix(11.886 0 0 11.886 2343.5 911.56)" d="m-179.58-75.1a15.218 15.218 0 1 0 0.15624 0zm0.18945 7.8965h0.0744c4.0141 0.02058 7.2898 3.321 7.2793 7.334-0.0105 4.0128-3.3043 7.293-7.3164 7.293-4.0121-1e-6 -7.3059-3.2802-7.3164-7.293-0.0105-4.0129 3.2652-7.3134 7.2793-7.334z" fill="#fff" stroke-width="0"/>
  </g>
  <g transform="matrix(.020994 0 0 .020994 72.534 154.62)" fill="#a1b8c7" stroke="#a1b8c7" stroke-width="42.85">
   <path d="m718.84 116.19a70.798 70.798 0 1 0 0.72612 0z" fill="#a1b8c7" stroke="#a1b8c7" stroke-width="42.85"/>
  </g>
  <g transform="matrix(.020994 0 0 .020994 72.534 154.62)" fill="#fff">
   <path d="m718.84 116.19a70.798 70.798 0 1 0 0.72612 0z" fill="#fff"/>
  </g>
  <g shape-rendering="auto">
   <path d="m78.515 167.61 5.0723-2.3457c-0.42149-0.0772-0.89539-0.10671-1.2734-0.26367l2.3418-2.3418-1.1973-1.1992-2.3418 2.3438c-0.16203-0.39199-0.18136-0.8441-0.248-1.2793-0.79412 1.6908-2.3536 5.0859-2.3536 5.0859z" color="#000000" color-rendering="auto" dominant-baseline="auto" fill="#a1b8c7" image-rendering="auto" solid-color="#000000" style="font-feature-settings:normal;font-variant-alternates:normal;font-variant-caps:normal;font-variant-ligatures:normal;font-variant-numeric:normal;font-variant-position:normal;isolation:auto;mix-blend-mode:normal;shape-padding:0;text-decoration-color:#000000;text-decoration-line:none;text-decoration-style:solid;text-indent:0;text-orientation:mixed;text-transform:none;white-space:normal"/>
   <path d="m82.516 165.41c-0.2805-0.0461-0.53903-0.14906-0.77247-0.28867l2.4628-2.4629-0.74872-0.74872-2.4672 2.4672c-0.13897-0.2323-0.23605-0.49245-0.27843-0.77101-0.52644 1.1228-1.5508 3.3552-1.5508 3.3552z" color="#000000" color-rendering="auto" dominant-baseline="auto" fill="#fff" image-rendering="auto" solid-color="#000000" style="font-feature-settings:normal;font-variant-alternates:normal;font-variant-caps:normal;font-variant-ligatures:normal;font-variant-numeric:normal;font-variant-position:normal;isolation:auto;mix-blend-mode:normal;shape-padding:0;text-decoration-color:#000000;text-decoration-line:none;text-decoration-style:solid;text-indent:0;text-orientation:mixed;text-transform:none;white-space:normal"/>
   <path d="m96.677 167.6-2.3457-5.0723c-0.07724 0.42149-0.10671 0.89539-0.26367 1.2734l-2.3418-2.3418-1.1992 1.1973 2.3438 2.3418c-0.39199 0.16203-0.8441 0.18136-1.2793 0.248 1.6909 0.79412 5.0859 2.3536 5.0859 2.3536z" color="#000000" color-rendering="auto" dominant-baseline="auto" fill="#a1b8c7" image-rendering="auto" solid-color="#000000" style="font-feature-settings:normal;font-variant-alternates:normal;font-variant-caps:normal;font-variant-ligatures:normal;font-variant-numeric:normal;font-variant-position:normal;isolation:auto;mix-blend-mode:normal;shape-padding:0;text-decoration-color:#000000;text-decoration-line:none;text-decoration-style:solid;text-indent:0;text-orientation:mixed;text-transform:none;white-space:normal"/>
   <path d="m94.477 163.6c-0.0461 0.2805-0.14906 0.53903-0.28867 0.77247l-2.4629-2.4628-0.74872 0.74872 2.4672 2.4672c-0.23231 0.13897-0.49245 0.23605-0.77101 0.27843 1.1228 0.52644 3.3552 1.5508 3.3552 1.5508z" color="#000000" color-rendering="auto" dominant-baseline="auto" fill="#fff" image-rendering="auto" solid-color="#000000" style="font-feature-settings:normal;font-variant-alternates:normal;font-variant-caps:normal;font-variant-ligatures:normal;font-variant-numeric:normal;font-variant-position:normal;isolation:auto;mix-blend-mode:normal;shape-padding:0;text-decoration-color:#000000;text-decoration-line:none;text-decoration-style:solid;text-indent:0;text-orientation:mixed;text-transform:none;white-space:normal"/>
   <path d="m96.618 149.5-5.0723 2.3457c0.42149 0.0772 0.89539 0.10671 1.2734 0.26367l-2.3418 2.3418 1.1973 1.1992 2.3418-2.3438c0.16203 0.39199 0.18136 0.8441 0.248 1.2793 0.79412-1.6908 2.3536-5.0859 2.3536-5.0859z" color="#000000" color-rendering="auto" dominant-baseline="auto" fill="#a1b8c7" image-rendering="auto" solid-color="#000000" style="font-feature-settings:normal;font-variant-alternates:normal;font-variant-caps:normal;font-variant-ligatures:normal;font-variant-numeric:normal;font-variant-position:normal;isolation:auto;mix-blend-mode:normal;shape-padding:0;text-decoration-color:#000000;text-decoration-line:none;text-decoration-style:solid;text-indent:0;text-orientation:mixed;text-transform:none;white-space:normal"/>
   <path d="m92.616 151.7c0.2805 0.0461 0.53903 0.14906 0.77247 0.28867l-2.4628 2.4629 0.74872 0.74872 2.4672-2.4672c0.13897 0.2323 0.23605 0.49245 0.27843 0.77101 0.52644-1.1228 1.5508-3.3552 1.5508-3.3552z" color="#000000" color-rendering="auto" dominant-baseline="auto" fill="#fff" image-rendering="auto" solid-color="#000000" style="font-feature-settings:normal;font-variant-alternates:normal;font-variant-caps:normal;font-variant-ligatures:normal;font-variant-numeric:normal;font-variant-position:normal;isolation:auto;mix-blend-mode:normal;shape-padding:0;text-decoration-color:#000000;text-decoration-line:none;text-decoration-style:solid;text-indent:0;text-orientation:mixed;text-transform:none;white-space:normal"/>
   <path d="m78.568 149.5 2.3457 5.0723c0.07724-0.42149 0.10671-0.89539 0.26367-1.2734l2.3418 2.3418 1.1992-1.1973-2.3438-2.3418c0.39199-0.16203 0.8441-0.18136 1.2793-0.248-1.6909-0.79412-5.0859-2.3536-5.0859-2.3536z" color="#000000" color-rendering="auto" dominant-baseline="auto" fill="#a1b8c7" image-rendering="auto" solid-color="#000000" style="font-feature-settings:normal;font-variant-alternates:normal;font-variant-caps:normal;font-variant-ligatures:normal;font-variant-numeric:normal;font-variant-position:normal;isolation:auto;mix-blend-mode:normal;shape-padding:0;text-decoration-color:#000000;text-decoration-line:none;text-decoration-style:solid;text-indent:0;text-orientation:mixed;text-transform:none;white-space:normal"/>
   <path d="m80.769 153.5c0.0461-0.2805 0.14906-0.53903 0.28867-0.77247l2.4629 2.4628 0.74872-0.74872-2.4672-2.4672c0.23231-0.13897 0.49245-0.23605 0.77101-0.27843-1.1228-0.52644-3.3552-1.5508-3.3552-1.5508z" color="#000000" color-rendering="auto" dominant-baseline="auto" fill="#fff" image-rendering="auto" solid-color="#000000" style="font-feature-settings:normal;font-variant-alternates:normal;font-variant-caps:normal;font-variant-ligatures:normal;font-variant-numeric:normal;font-variant-position:normal;isolation:auto;mix-blend-mode:normal;shape-padding:0;text-decoration-color:#000000;text-decoration-line:none;text-decoration-style:solid;text-indent:0;text-orientation:mixed;text-transform:none;white-space:normal"/>
  </g>
 </g>
</svg>
