<?xml version="1.0" encoding="UTF-8"?>
<!-- Created with Inkscape (http://www.inkscape.org/) -->
<svg width="48.289mm" height="63.377mm" version="1.1" viewBox="0 0 48.289 63.377" xmlns="http://www.w3.org/2000/svg" xmlns:cc="http://creativecommons.org/ns#" xmlns:dc="http://purl.org/dc/elements/1.1/" xmlns:rdf="http://www.w3.org/1999/02/22-rdf-syntax-ns#" xmlns:xlink="http://www.w3.org/1999/xlink">
 <defs>
  <linearGradient id="linearGradient8982">
   <stop stop-color="#dce5ea" offset="0"/>
   <stop stop-color="#ecf1f4" offset="1"/>
  </linearGradient>
  <linearGradient id="linearGradient8932" x1="446.97" x2="355.97" y1="696.57" y2="576.3" gradientUnits="userSpaceOnUse">
   <stop stop-color="#b6c8d3" offset="0"/>
   <stop stop-color="#c6d4dd" offset="1"/>
  </linearGradient>
  <linearGradient id="linearGradient8984-0" x1="86.551" x2="76.285" y1="131.98" y2="126.85" gradientTransform="translate(12.834 -2.9e-6)" gradientUnits="userSpaceOnUse">
   <stop stop-color="#b6c8d3" offset="0"/>
   <stop stop-color="#c6d4dd" offset="1"/>
  </linearGradient>
  <linearGradient id="linearGradient8984-8" x1="86.551" x2="76.285" y1="131.98" y2="126.85" gradientTransform="translate(12.834 7.6998)" gradientUnits="userSpaceOnUse" xlink:href="#linearGradient8982"/>
  <linearGradient id="linearGradient8984-3" x1="86.551" x2="76.285" y1="131.98" y2="126.85" gradientTransform="translate(12.834 15.399)" gradientUnits="userSpaceOnUse" xlink:href="#linearGradient8982"/>
  <linearGradient id="linearGradient8984-84" x1="86.551" x2="76.285" y1="131.98" y2="126.85" gradientTransform="translate(12.834 23.099)" gradientUnits="userSpaceOnUse" xlink:href="#linearGradient8982"/>
  <linearGradient id="linearGradient8984-1" x1="86.551" x2="76.285" y1="131.98" y2="126.85" gradientTransform="translate(12.834 30.799)" gradientUnits="userSpaceOnUse" xlink:href="#linearGradient8982"/>
  <linearGradient id="linearGradient8984-36" x1="86.551" x2="76.285" y1="131.98" y2="126.85" gradientTransform="translate(12.834 38.498)" gradientUnits="userSpaceOnUse" xlink:href="#linearGradient8982"/>
  <linearGradient id="linearGradient8984-7" x1="86.551" x2="76.285" y1="131.98" y2="126.85" gradientTransform="translate(12.834 46.198)" gradientUnits="userSpaceOnUse" xlink:href="#linearGradient8982"/>
  <linearGradient id="linearGradient8984-7-6" x1="86.551" x2="76.285" y1="131.98" y2="126.85" gradientTransform="translate(25.667 46.198)" gradientUnits="userSpaceOnUse" xlink:href="#linearGradient8982"/>
  <linearGradient id="linearGradient8984-36-6" x1="86.551" x2="76.285" y1="131.98" y2="126.85" gradientTransform="translate(25.667 38.498)" gradientUnits="userSpaceOnUse" xlink:href="#linearGradient8982"/>
  <linearGradient id="linearGradient8984-1-9" x1="86.551" x2="76.285" y1="131.98" y2="126.85" gradientTransform="translate(25.667 30.799)" gradientUnits="userSpaceOnUse" xlink:href="#linearGradient8982"/>
  <linearGradient id="linearGradient8984-84-0" x1="86.551" x2="76.285" y1="131.98" y2="126.85" gradientTransform="translate(25.667 23.099)" gradientUnits="userSpaceOnUse" xlink:href="#linearGradient8982"/>
  <linearGradient id="linearGradient8984-3-1" x1="86.551" x2="76.285" y1="131.98" y2="126.85" gradientTransform="translate(25.667 15.399)" gradientUnits="userSpaceOnUse" xlink:href="#linearGradient8982"/>
  <linearGradient id="linearGradient8984-7-7" x1="86.551" x2="76.285" y1="131.98" y2="126.85" gradientTransform="translate(-3e-6 46.198)" gradientUnits="userSpaceOnUse" xlink:href="#linearGradient8982"/>
  <linearGradient id="linearGradient8984-36-4" x1="86.551" x2="76.285" y1="131.98" y2="126.85" gradientTransform="translate(-8e-6 38.498)" gradientUnits="userSpaceOnUse" xlink:href="#linearGradient8982"/>
  <linearGradient id="linearGradient8984-1-0" x1="86.551" x2="76.285" y1="131.98" y2="126.85" gradientTransform="translate(-3e-6 30.799)" gradientUnits="userSpaceOnUse" xlink:href="#linearGradient8982"/>
  <linearGradient id="linearGradient8984-84-3" x1="86.551" x2="76.285" y1="131.98" y2="126.85" gradientTransform="translate(0 23.099)" gradientUnits="userSpaceOnUse" xlink:href="#linearGradient8982"/>
  <linearGradient id="linearGradient8984-3-18" x1="86.551" x2="76.285" y1="131.98" y2="126.85" gradientTransform="translate(0 15.399)" gradientUnits="userSpaceOnUse" xlink:href="#linearGradient8982"/>
  <linearGradient id="linearGradient8984-8-6" x1="86.551" x2="76.285" y1="131.98" y2="126.85" gradientTransform="translate(0 7.6998)" gradientUnits="userSpaceOnUse" xlink:href="#linearGradient8982"/>
  <linearGradient id="linearGradient8984-0-1" x1="86.551" x2="76.285" y1="131.98" y2="126.85" gradientUnits="userSpaceOnUse">
   <stop stop-color="#b6c8d3" offset="0"/>
   <stop stop-color="#c6d4dd" offset="1"/>
  </linearGradient>
 </defs>
 <metadata>
  <rdf:RDF>
   <cc:Work rdf:about="">
    <dc:format>image/svg+xml</dc:format>
    <dc:type rdf:resource="http://purl.org/dc/dcmitype/StillImage"/>
    <dc:title/>
   </cc:Work>
  </rdf:RDF>
 </metadata>
 <g transform="translate(-69.972 -120.92)">
  <g>
   <path d="m71.472 122.42h32.081l13.206 13.108v47.268h-45.287z" fill="#fcfdfd"/>
   <g stroke-width=".28517">
    <path d="m89.119 126.85v5.133h10.266v-5.133z" fill="url(#linearGradient8984-0)"/>
    <path d="m89.119 134.55v5.133h10.266v-5.133z" fill="url(#linearGradient8984-8)"/>
    <path d="m89.119 142.25v5.133h10.266v-5.133z" fill="url(#linearGradient8984-3)"/>
    <path d="m89.119 149.94v5.133h10.266v-5.133z" fill="url(#linearGradient8984-84)"/>
    <path d="m89.119 157.64v5.133h10.266v-5.133z" fill="url(#linearGradient8984-1)"/>
    <path d="m89.119 165.34v5.133h10.266v-5.133z" fill="url(#linearGradient8984-36)"/>
    <path d="m89.119 173.04v5.133h10.266v-5.133z" fill="url(#linearGradient8984-7)"/>
    <path d="m101.95 142.25v5.133h10.266v-5.133z" fill="url(#linearGradient8984-3-1)"/>
    <path d="m101.95 149.94v5.133h10.266v-5.133z" fill="url(#linearGradient8984-84-0)"/>
    <path d="m101.95 157.64v5.133h10.266v-5.133z" fill="url(#linearGradient8984-1-9)"/>
    <path d="m101.95 165.34v5.133h10.266v-5.133z" fill="url(#linearGradient8984-36-6)"/>
    <path d="m101.95 173.04v5.133h10.266v-5.133z" fill="url(#linearGradient8984-7-6)"/>
    <path d="m76.285 126.85v5.133h10.266v-5.133z" fill="url(#linearGradient8984-0-1)"/>
    <path d="m76.285 134.55v5.133h10.266v-5.133z" fill="url(#linearGradient8984-8-6)"/>
    <path d="m76.285 142.25v5.133h10.266v-5.133z" fill="url(#linearGradient8984-3-18)"/>
    <path d="m76.285 149.94v5.133h10.266v-5.133z" fill="url(#linearGradient8984-84-3)"/>
    <path d="m76.285 157.64v5.133h10.266v-5.133z" fill="url(#linearGradient8984-1-0)"/>
    <path d="m76.285 165.34v5.133h10.266v-5.133z" fill="url(#linearGradient8984-36-4)"/>
    <path d="m76.285 173.04v5.133h10.266v-5.133z" fill="url(#linearGradient8984-7-7)"/>
   </g>
   <path transform="scale(.26458)" d="m264.46 457.04v239.53h182.5c-6e-3 -61.821 4e-3 -186.68 4e-3 -186.68l-4e-3 -4e-3v-2e-3l-53.252-52.854zm11.34 11.338h109.9l-0.0742 49.539h49.998v167.31h-159.82zm121.22 7.9219 30.508 30.279h-30.553z" color="#000000" color-rendering="auto" dominant-baseline="auto" fill="url(#linearGradient8932)" image-rendering="auto" shape-rendering="auto" solid-color="#000000" style="font-feature-settings:normal;font-variant-alternates:normal;font-variant-caps:normal;font-variant-ligatures:normal;font-variant-numeric:normal;font-variant-position:normal;isolation:auto;mix-blend-mode:normal;shape-padding:0;text-decoration-color:#000000;text-decoration-line:none;text-decoration-style:solid;text-indent:0;text-orientation:mixed;text-transform:none;white-space:normal"/>
  </g>
 </g>
</svg>
