<?xml version="1.0" encoding="UTF-8"?>
<!-- Created with Inkscape (http://www.inkscape.org/) -->
<svg width="163.05mm" height="119.45mm" version="1.1" viewBox="0 0 163.05 119.45" xmlns="http://www.w3.org/2000/svg" xmlns:cc="http://creativecommons.org/ns#" xmlns:dc="http://purl.org/dc/elements/1.1/" xmlns:rdf="http://www.w3.org/1999/02/22-rdf-syntax-ns#">
 <metadata>
  <rdf:RDF>
   <cc:Work rdf:about="">
    <dc:format>image/svg+xml</dc:format>
    <dc:type rdf:resource="http://purl.org/dc/dcmitype/StillImage"/>
    <dc:title/>
   </cc:Work>
  </rdf:RDF>
 </metadata>
 <g transform="translate(-22.268 -101.4)" stroke-width=".26458">
  <path d="m47.186 219.02a3.638 3.638 0 0 1-0.81227-2.7702l11.679-95.56 0.96838-7.9375a3.6645 3.6645 0 0 1 3.6089-3.2173l34.208-0.22754a3.6592 3.6592 0 0 0 3.6354-3.7597l-0.0132-0.36248a3.6618 3.6618 0 0 1 3.6592-3.7862h35.946a3.6592 3.6592 0 0 1 3.6592 3.6512 3.9052 3.9052 0 0 1-0.0318 0.49212 3.6592 3.6592 0 0 0 3.5348 4.1434l34.523 0.88106a3.6565 3.6565 0 0 1 3.5137 4.2757l-17.259 100.81-0.32544 1.905a3.5798 3.5798 0 0 1-0.52917 1.3652z" fill="#b6c8d3"/>
  <path d="m167.15 218.91a2.7279 2.7279 0 0 1-1.7515 0.61912l-118.21-0.5027a3.638 3.638 0 0 1-0.81227-2.7702l11.679-95.56 7.3237-0.0794a2.7675 2.7675 0 0 1 2.6988 2.0426l1.3679 5.0482a2.7675 2.7675 0 0 0 2.7358 2.0426l29.229-0.70114a2.7675 2.7675 0 0 0 2.7014-2.7675v-3.3443a2.7675 2.7675 0 0 1 2.7358-2.7675l40.502-0.43656a2.7675 2.7675 0 0 1 2.7437 2.2463l17.912 93.662 0.11642 0.60325a2.7517 2.7517 0 0 1-0.97367 2.6644z" opacity=".1"/>
  <path d="m146.02 121.05-40.502 0.43656a2.7675 2.7675 0 0 0-2.7384 2.7649v3.347a2.7675 2.7675 0 0 1-2.6988 2.7649l-29.226 0.70115a2.7649 2.7649 0 0 1-2.7384-2.0426l-1.3732-5.0456a2.7649 2.7649 0 0 0-2.7014-2.0426l-39.039 0.42069a2.7649 2.7649 0 0 0-2.6988 3.2279l15.706 92.435a2.7675 2.7675 0 0 0 2.7173 2.3045l123.33 0.52917a2.7675 2.7675 0 0 0 2.7279-3.2861l-18.023-94.268a2.7649 2.7649 0 0 0-2.7437-2.2463z" fill="#dce5ea"/>
  <circle cx="-148.32" cy="326.68" r=".83608" opacity=".1"/>
 </g>
</svg>
