<?xml version="1.0" encoding="UTF-8"?>
<!-- Generator: Adobe Illustrator 11.0, SVG Export Plug-In  -->
<svg width="233.47" height="219.31" version="1.0" viewBox="-.7 -.596 238.12 219.31" xml:space="preserve" xmlns="http://www.w3.org/2000/svg" xmlns:cc="http://creativecommons.org/ns#" xmlns:dc="http://purl.org/dc/elements/1.1/" xmlns:rdf="http://www.w3.org/1999/02/22-rdf-syntax-ns#" xmlns:xlink="http://www.w3.org/1999/xlink"><defs><linearGradient id="linearGradient867" x1="307.11" x2="205.63" y1="299.29" y2="191.51" gradientUnits="userSpaceOnUse"><stop stop-color="#b6c8d3" offset="0"/><stop stop-color="#c6d4dd" offset="1"/></linearGradient></defs><metadata><rdf:RDF><cc:Work rdf:about=""><dc:format>image/svg+xml</dc:format><dc:type rdf:resource="http://purl.org/dc/dcmitype/StillImage"/><dc:title/></cc:Work></rdf:RDF></metadata>
	<g transform="matrix(2.1362 0 0 1.8263 -427.26 -339.77)">
		
		
		
	<g><path d="m263.63 237.44-31.976-8.5364v8.5364l-31.976-8.5364v76.901h111.47l-4.6e-4 -43.617-3.1456-78.859h-9.4881l-2.7336 54.111-32.149-8.5364z" fill="url(#linearGradient867)"/><polygon transform="matrix(.22474 0 0 .26287 129.76 149.23)" points="663.6 472.72 608.67 417.79 625.33 401.13 697.37 472.28 625.33 543.42 609.12 527.21" fill="#fff"/><path d="m241.48 287.82-12.245-14.323 12.346-14.441-3.7441-4.3795-16.192 18.702 16.192 18.702z" fill="#fdfdfe" stroke-width=".24306"/><path d="m259.42 250.64-15.444 45.249 5.0259 2.3498 15.448-45.253z" color="#000000" color-rendering="auto" dominant-baseline="auto" fill="#fff" image-rendering="auto" shape-rendering="auto" solid-color="#000000" style="font-feature-settings:normal;font-variant-alternates:normal;font-variant-caps:normal;font-variant-ligatures:normal;font-variant-numeric:normal;font-variant-position:normal;isolation:auto;mix-blend-mode:normal;shape-padding:0;text-decoration-color:#000000;text-decoration-line:none;text-decoration-style:solid;text-indent:0;text-orientation:mixed;text-transform:none;white-space:normal"/></g></g>
</svg>
