<?xml version="1.0" encoding="UTF-8"?>
<!-- Created with Inkscape (http://www.inkscape.org/) -->
<svg width="163.05mm" height="129.74mm" version="1.1" viewBox="0 0 163.05 129.74" xmlns="http://www.w3.org/2000/svg" xmlns:cc="http://creativecommons.org/ns#" xmlns:dc="http://purl.org/dc/elements/1.1/" xmlns:rdf="http://www.w3.org/1999/02/22-rdf-syntax-ns#" xmlns:xlink="http://www.w3.org/1999/xlink">
 <defs>
  <linearGradient id="07332201-7176-49c2-9908-6dc4a39c4716" x1="539.63" x2="539.63" y1="734.6" y2="151.19" gradientTransform="translate(-3.62,1.57)" gradientUnits="userSpaceOnUse">
   <stop stop-color="gray" stop-opacity=".25" offset="0"/>
   <stop stop-color="gray" stop-opacity=".12" offset=".54"/>
   <stop stop-color="gray" stop-opacity=".1" offset="1"/>
  </linearGradient>
  <linearGradient id="linearGradient18233" x1="539.63" x2="539.63" y1="734.6" y2="151.19" gradientTransform="matrix(.62144 0 0 .62144 2614.3 472.31)" gradientUnits="userSpaceOnUse" xlink:href="#07332201-7176-49c2-9908-6dc4a39c4716"/>
  <linearGradient id="2632d424-e666-4ee4-9508-a494957e14ab-3" x1="476.4" x2="476.4" y1="710.53" y2="127.12" gradientTransform="matrix(.62144 0 0 .62144 2847.9 -172.43)" xlink:href="#07332201-7176-49c2-9908-6dc4a39c4716"/>
 </defs>
 <metadata>
  <rdf:RDF>
   <cc:Work rdf:about="">
    <dc:format>image/svg+xml</dc:format>
    <dc:type rdf:resource="http://purl.org/dc/dcmitype/StillImage"/>
    <dc:title/>
   </cc:Work>
  </rdf:RDF>
 </metadata>
 <g transform="translate(-22.268 -91.112)">
  <path d="m47.186 219.02a3.638 3.638 0 0 1-0.81227-2.7702l11.679-95.56 0.96838-7.9375a3.6645 3.6645 0 0 1 3.6089-3.2173l34.208-0.22754a3.6592 3.6592 0 0 0 3.6354-3.7597l-0.0132-0.36248a3.6618 3.6618 0 0 1 3.6592-3.7862h35.946a3.6592 3.6592 0 0 1 3.6592 3.6512 3.9052 3.9052 0 0 1-0.0318 0.49212 3.6592 3.6592 0 0 0 3.5348 4.1434l34.523 0.88106a3.6565 3.6565 0 0 1 3.5137 4.2757l-17.259 100.81-0.32544 1.905a3.5798 3.5798 0 0 1-0.52917 1.3652z" fill="#b6c8d3" stroke-width=".26458"/>
  <path d="m167.15 218.91a2.7279 2.7279 0 0 1-1.7515 0.61912l-118.21-0.5027a3.638 3.638 0 0 1-0.81227-2.7702l11.679-95.56 7.3237-0.0794a2.7675 2.7675 0 0 1 2.6988 2.0426l1.3679 5.0482a2.7675 2.7675 0 0 0 2.7358 2.0426l29.229-0.70114a2.7675 2.7675 0 0 0 2.7014-2.7675v-3.3443a2.7675 2.7675 0 0 1 2.7358-2.7675l40.502-0.43656a2.7675 2.7675 0 0 1 2.7437 2.2463l17.912 93.662 0.11642 0.60325a2.7517 2.7517 0 0 1-0.97367 2.6644z" opacity=".1" stroke-width=".26458"/>
  <g transform="matrix(.2933 -.024365 .024365 .2933 -1082.4 -239.85)">
   <g transform="translate(944.43 773.93)">
    <g stroke-width=".62144">
     <rect transform="rotate(2.7803)" x="2813.8" y="559.92" width="271.58" height="375.24" fill="#e0e0e0"/>
     <rect transform="rotate(2.7803)" x="2818.4" y="566.26" width="262.4" height="362.56" fill="url(#linearGradient18233)"/>
     <rect transform="rotate(2.7803)" x="2821.8" y="568.93" width="255.72" height="354.55" fill="#fafafa"/>
    </g>
    <g fill="#e0e0e0">
     <g stroke-width=".64974">
      <rect transform="rotate(3.2817)" x="2847.5" y="560.03" width="209.81" height="3.1772"/>
      <rect transform="rotate(3.2817)" x="2847.5" y="596.59" width="189.15" height="3.1772"/>
      <rect transform="rotate(3.2817)" x="2847.5" y="633.14" width="209.81" height="3.1772"/>
      <rect transform="rotate(3.2817)" x="2847.5" y="651.42" width="209.81" height="3.1772"/>
     </g>
     <rect transform="rotate(3.2817)" x="2849.7" y="577.28" width="189.15" height="3.1772" stroke-width=".64974"/>
     <rect transform="rotate(3.2817)" x="2847.9" y="616.39" width="209.81" height="3.1772" stroke-width=".64974"/>
     <g stroke-width=".64974">
      <rect transform="rotate(3.2817)" x="2848.9" y="669.02" width="209.81" height="3.1772"/>
      <rect transform="rotate(3.2817)" x="2848.9" y="705.59" width="189.15" height="3.1772"/>
      <rect transform="rotate(3.2817)" x="2848.9" y="742.14" width="209.81" height="3.1772"/>
      <rect transform="rotate(3.2817)" x="2848.9" y="760.42" width="209.81" height="3.1772"/>
     </g>
     <rect transform="rotate(3.2817)" x="2851.1" y="686.28" width="189.15" height="3.1772" stroke-width=".64974"/>
     <rect transform="rotate(3.2817)" x="2849.4" y="725.39" width="209.81" height="3.1772" stroke-width=".64974"/>
     <rect transform="rotate(14.89)" x="3008.1" y="-99.779" width="271.58" height="375.24" stroke-width=".62144"/>
    </g>
    <rect transform="rotate(14.89)" x="3012.7" y="-93.435" width="262.4" height="362.56" fill="url(#2632d424-e666-4ee4-9508-a494957e14ab-3)" stroke-width=".62144"/>
    <rect transform="rotate(14.89)" x="3016" y="-90.762" width="255.72" height="354.55" fill="#fff" stroke-width=".62144"/>
    <g fill="#e0e0e0">
     <g stroke-width=".64974">
      <rect transform="rotate(15.171)" x="3035.5" y="-81.008" width="209.81" height="3.1772"/>
      <rect transform="rotate(15.171)" x="3035.5" y="-44.447" width="189.15" height="3.1772"/>
      <rect transform="rotate(15.171)" x="3035.5" y="-7.8903" width="209.81" height="3.1772"/>
      <rect transform="rotate(15.171)" x="3035.5" y="10.388" width="209.81" height="3.1772"/>
     </g>
     <rect transform="rotate(15.171)" x="3037.7" y="-63.749" width="189.15" height="3.1772" stroke-width=".64974"/>
     <rect transform="rotate(15.171)" x="3035.9" y="-24.645" width="209.81" height="3.1772" stroke-width=".64974"/>
     <g stroke-width=".64974">
      <rect transform="rotate(15.171)" x="3036.9" y="27.991" width="209.81" height="3.1772"/>
      <rect transform="rotate(15.171)" x="3036.9" y="64.552" width="189.15" height="3.1772"/>
      <rect transform="rotate(15.171)" x="3036.9" y="101.11" width="209.81" height="3.1772"/>
      <rect transform="rotate(15.171)" x="3036.9" y="119.39" width="209.81" height="3.1772"/>
     </g>
     <rect transform="rotate(15.171)" x="3039.1" y="45.25" width="189.15" height="3.1772" stroke-width=".64974"/>
     <rect transform="rotate(15.171)" x="3037.4" y="84.354" width="209.81" height="3.1772" stroke-width=".64974"/>
    </g>
   </g>
  </g>
  <path d="m146.02 121.05-40.502 0.43656a2.7675 2.7675 0 0 0-2.7384 2.7649v3.347a2.7675 2.7675 0 0 1-2.6988 2.7649l-29.226 0.70115a2.7649 2.7649 0 0 1-2.7384-2.0426l-1.3732-5.0456a2.7649 2.7649 0 0 0-2.7014-2.0426l-39.039 0.42069a2.7649 2.7649 0 0 0-2.6988 3.2279l15.706 92.435a2.7675 2.7675 0 0 0 2.7173 2.3045l123.33 0.52917a2.7675 2.7675 0 0 0 2.7279-3.2861l-18.023-94.268a2.7649 2.7649 0 0 0-2.7437-2.2463z" fill="#dce5ea" stroke-width=".26458"/>
  <g transform="matrix(.2294 0 .032055 .2294 -141.54 46.722)">
   <g transform="translate(-2656.6 -328.92)">
    <path d="m3785.5 872.67s-18.203-13.82-19.584-8.7544c-1.3817 5.0661 13.356 16.58 13.356 16.58z" fill="#ffb9b9" stroke-width=".59122"/>
    <path d="m3785.5 872.67s-18.203-13.82-19.584-8.7544c-1.3817 5.0661 13.356 16.58 13.356 16.58z" opacity=".1" stroke-width=".59122"/>
    <g fill="#008fe1">
     <polygon transform="matrix(.59122 0 0 .59122 3273.8 646.32)" points="749.6 262.29 878 390.29 749.6 518.29 719.6 488.39 818 390.29 719.6 292.19"/>
     <path d="m3533.1 881.21h23.649v-23.649h-23.649zm118.72-23.649h-23.649v23.649h23.649zm-71.183 23.649h23.649v-23.649h-23.649z" stroke-width=".59122"/>
     <polygon transform="matrix(.59122 0 0 .59122 3273.8 646.32)" points="354.3 261.29 226 389.29 354.4 517.29 384.4 487.39 285.9 389.29 384.3 291.19"/>
    </g>
   </g>
  </g>
 </g>
</svg>
