<?xml version="1.0" encoding="UTF-8"?>
<!-- Created with Inkscape (http://www.inkscape.org/) -->
<svg width="163.05mm" height="138.67mm" version="1.1" viewBox="0 0 163.05 138.67" xmlns="http://www.w3.org/2000/svg" xmlns:cc="http://creativecommons.org/ns#" xmlns:dc="http://purl.org/dc/elements/1.1/" xmlns:rdf="http://www.w3.org/1999/02/22-rdf-syntax-ns#" xmlns:xlink="http://www.w3.org/1999/xlink">
 <defs>
  <linearGradient id="07332201-7176-49c2-9908-6dc4a39c4716" x1="539.63" x2="539.63" y1="734.6" y2="151.19" gradientTransform="translate(-3.62,1.57)" gradientUnits="userSpaceOnUse">
   <stop stop-color="gray" stop-opacity=".25" offset="0"/>
   <stop stop-color="gray" stop-opacity=".12" offset=".54"/>
   <stop stop-color="gray" stop-opacity=".1" offset="1"/>
  </linearGradient>
  <linearGradient id="0ee1ab3f-7ba2-4205-9d4a-9606ad702253" x1="540.17" x2="540.17" y1="180.2" y2="130.75" gradientTransform="matrix(.1829 0 0 .1829 237.73 156.61)" xlink:href="#07332201-7176-49c2-9908-6dc4a39c4716"/>
  <linearGradient id="abca9755-bed1-4a97-b027-7f02ee3ffa09" x1="540.17" x2="540.17" y1="140.86" y2="82.43" gradientTransform="matrix(.18047 -.029667 .029667 .18047 259.98 115.97)" xlink:href="#07332201-7176-49c2-9908-6dc4a39c4716"/>
  <linearGradient id="linearGradient18233" x1="539.63" x2="539.63" y1="734.6" y2="151.19" gradientTransform="matrix(.1829 0 0 .1829 237.73 156.61)" gradientUnits="userSpaceOnUse" xlink:href="#07332201-7176-49c2-9908-6dc4a39c4716"/>
  <linearGradient id="linearGradient8454" x1="476.4" x2="476.4" y1="710.53" y2="127.12" gradientTransform="matrix(.18779 0 0 .18779 -57.709 54.36)" xlink:href="#07332201-7176-49c2-9908-6dc4a39c4716"/>
  <linearGradient id="linearGradient8456" x1="476.94" x2="476.94" y1="156.13" y2="106.68" gradientTransform="matrix(.18779 0 0 .18779 -57.709 54.36)" xlink:href="#07332201-7176-49c2-9908-6dc4a39c4716"/>
  <linearGradient id="linearGradient8458" x1="666.86" x2="666.86" y1="176.39" y2="117.95" gradientTransform="matrix(.18127 .049035 -.049035 .18127 -101.41 17.291)" xlink:href="#07332201-7176-49c2-9908-6dc4a39c4716"/>
 </defs>
 <metadata>
  <rdf:RDF>
   <cc:Work rdf:about="">
    <dc:format>image/svg+xml</dc:format>
    <dc:type rdf:resource="http://purl.org/dc/dcmitype/StillImage"/>
    <dc:title/>
   </cc:Work>
  </rdf:RDF>
 </metadata>
 <g transform="translate(-22.268 -82.182)">
  <path d="m47.186 219.02a3.638 3.638 0 0 1-0.81227-2.7702l11.679-95.56 0.96838-7.9375a3.6645 3.6645 0 0 1 3.6089-3.2173l34.208-0.22754a3.6592 3.6592 0 0 0 3.6354-3.7597l-0.0132-0.36248a3.6618 3.6618 0 0 1 3.6592-3.7862h35.946a3.6592 3.6592 0 0 1 3.6592 3.6512 3.9052 3.9052 0 0 1-0.0318 0.49212 3.6592 3.6592 0 0 0 3.5348 4.1434l34.523 0.88106a3.6565 3.6565 0 0 1 3.5137 4.2757l-17.259 100.81-0.32544 1.905a3.5798 3.5798 0 0 1-0.52917 1.3652z" fill="#b6c8d3" stroke-width=".26458"/>
  <path d="m167.15 218.91a2.7279 2.7279 0 0 1-1.7515 0.61912l-118.21-0.5027a3.638 3.638 0 0 1-0.81227-2.7702l11.679-95.56 7.3237-0.0794a2.7675 2.7675 0 0 1 2.6988 2.0426l1.3679 5.0482a2.7675 2.7675 0 0 0 2.7358 2.0426l29.229-0.70114a2.7675 2.7675 0 0 0 2.7014-2.7675v-3.3443a2.7675 2.7675 0 0 1 2.7358-2.7675l40.502-0.43656a2.7675 2.7675 0 0 1 2.7437 2.2463l17.912 93.662 0.11642 0.60325a2.7517 2.7517 0 0 1-0.97367 2.6644z" opacity=".1" stroke-width=".26458"/>
  <g transform="translate(136.7 4.6461)">
   <g transform="translate(-420.33 -36.648)" stroke-width=".1829">
    <rect transform="rotate(-9.3349)" x="296.46" y="182.39" width="79.93" height="110.44" fill="#e0e0e0"/>
    <rect transform="rotate(-9.3349)" x="297.81" y="184.26" width="77.228" height="106.7" fill="url(#linearGradient18233)"/>
    <rect transform="rotate(-9.3349)" x="298.79" y="185.05" width="75.262" height="104.35" fill="#fafafa"/>
    <rect transform="rotate(-9.3349)" x="317.86" y="180.52" width="37.337" height="9.0443" fill="url(#0ee1ab3f-7ba2-4205-9d4a-9606ad702253)"/>
    <path d="m359.91 114.83c-2.8445 0.46817-4.7626 3.208-4.2829 6.1189 0.47964 2.9109 3.1723 4.8945 6.0113 4.426 2.839-0.46849 4.7626-3.208 4.2829-6.1189-0.47965-2.9109-3.1668-4.8943-6.0113-4.426zm1.3672 8.3246a3.0836 3.0836 0 1 1 2.4716-3.5424 3.0471 3.0471 0 0 1-2.4716 3.5424z" fill="url(#abca9755-bed1-4a97-b027-7f02ee3ffa09)"/>
    <rect transform="rotate(-9.3349)" x="318.25" y="180.14" width="36.55" height="8.6455" fill="#008fe1"/>
    <path d="m359.91 114.83a5.1083 5.1083 0 1 0 5.8696 4.2122 5.1083 5.1083 0 0 0-5.8696-4.2122zm1.3063 7.9554a2.9483 2.9483 0 1 1 2.4311-3.3869 2.9483 2.9483 0 0 1-2.4311 3.3869z" fill="#008fe1"/>
   </g>
   <g transform="translate(-10.861 6.3385)">
    <g stroke-width=".18779">
     <rect transform="rotate(15.136)" x="-9.2802" y="76.315" width="82.068" height="113.39" fill="#e0e0e0"/>
     <rect transform="rotate(15.136)" x="-7.8924" y="78.232" width="79.294" height="109.56" fill="url(#linearGradient8454)"/>
     <rect transform="rotate(15.136)" x="-6.884" y="79.039" width="77.275" height="107.14" fill="#fff"/>
     <rect transform="rotate(15.136)" x="12.687" y="74.393" width="38.335" height="9.2862" fill="url(#linearGradient8456)"/>
     <path d="m13.692 71.38c-2.8569-0.77277-5.8149 0.97162-6.6064 3.8974-0.79113 2.9259 0.88389 5.9235 3.7408 6.6963 2.8569 0.77283 5.815-0.97162 6.6064-3.8974 0.79113-2.9258-0.88391-5.9235-3.7408-6.6963zm-2.2595 8.3531a3.1661 3.1661 0 1 1 3.8105-2.2492 3.1286 3.1286 0 0 1-3.8065 2.2347z" fill="url(#linearGradient8458)"/>
     <rect transform="rotate(15.136)" x="13.091" y="73.995" width="37.528" height="8.8768" fill="#008fe1"/>
     <path d="m13.692 71.38a5.245 5.245 0 1 0 3.6934 6.4325 5.245 5.245 0 0 0-3.6934-6.4325zm-2.16 7.9851a3.0272 3.0272 0 1 1 3.7181-2.138 3.0272 3.0272 0 0 1-3.7157 2.1289z" fill="#008fe1"/>
    </g>
    <polygon transform="matrix(.12409 .03325 -.037341 .13936 -45.979 77.479)" points="720.61 197.32 720.61 195.32 208.37 195.32 208.37 148.66 720.61 148.66 720.61 146.66 208.37 146.66 208.37 100 720.61 100 720.61 98 208.37 98 208.37 51.338 720.61 51.338 720.61 49.338 208.37 49.338 208.37 0 206.37 0 206.37 49.338 139.61 49.338 139.61 51.338 206.37 51.338 206.37 98 139.61 98 139.61 100 206.37 100 206.37 146.66 139.61 146.66 139.61 148.66 206.37 148.66 206.37 195.32 139.61 195.32 139.61 197.32 206.37 197.32 206.37 243.98 139.61 243.98 139.61 245.98 206.37 245.98 206.37 292.65 139.61 292.65 139.61 294.65 206.37 294.65 206.37 341.31 139.61 341.31 139.61 343.31 206.37 343.31 206.37 389.97 139.61 389.97 139.61 391.97 206.37 391.97 206.37 438.63 139.61 438.63 139.61 440.63 206.37 440.63 206.37 487.29 139.61 487.29 139.61 489.29 206.37 489.29 206.37 535.95 139.61 535.95 139.61 537.95 206.37 537.95 206.37 584.61 139.61 584.61 139.61 586.61 206.37 586.61 206.37 633.28 139.61 633.28 139.61 635.28 206.37 635.28 206.37 676 208.37 676 208.37 635.28 720.61 635.28 720.61 633.28 208.37 633.28 208.37 586.61 720.61 586.61 720.61 584.61 208.37 584.61 208.37 537.95 720.61 537.95 720.61 535.95 208.37 535.95 208.37 489.29 720.61 489.29 720.61 487.29 208.37 487.29 208.37 440.63 720.61 440.63 720.61 438.63 208.37 438.63 208.37 391.97 720.61 391.97 720.61 389.97 208.37 389.97 208.37 343.31 720.61 343.31 720.61 341.31 208.37 341.31 208.37 294.65 720.61 294.65 720.61 292.65 208.37 292.65 208.37 245.98 720.61 245.98 720.61 243.98 208.37 243.98 208.37 197.32" fill="#3f3d56" opacity=".3"/>
    <g fill="none" stroke="#3f3d56" stroke-miterlimit="10" stroke-width=".3107">
     <path d="m-15.286 96.518a16.934 19.018 15 0 1-3.2614 1.1963c-0.71993 0.18128-1.4982 0.30581-2.146-0.0247-0.64779-0.33051-1.0534-1.2843-0.64286-1.9772a1.2274 1.3784 15 0 1 1.1403-0.60217 2.1727 2.4401 15 0 1 1.1595 0.52119 3.6082 4.0522 15 0 1 1.2058 2.0801c0.0914 0.42685 0.12647 0.89766 0.37997 1.2265a1.9446 2.1839 15 0 0 0.76643 0.49781c0.66825 0.28353 1.3549 0.57096 2.0846 0.56888 0.72964-2e-3 1.523-0.356 1.9005-1.0708"/>
     <path d="m-9.066 94.296q-0.85805 3.525-1.9647 6.9831l1.5596 0.0823c0.57488 0.0303 1.241 0.0198 1.636-0.47134 0.36834-0.45792 0.32587-1.172 0.0489-1.6645-0.27696-0.49255-0.73548-0.81504-1.1802-1.1226l-0.72847-0.50377"/>
     <path d="m-1.802 99.002c-0.51633-0.22824-1.0445-0.45579-1.6088-0.49148-0.5643-0.0357-1.1803 0.15012-1.573 0.62834-0.72536 0.88331-0.35858 2.3087 0.38371 3.0795a3.7776 4.2424 15 0 0 2.2968 1.0514"/>
    </g>
   </g>
  </g>
  <g stroke-width=".26458">
   <path d="m146.02 121.05-40.502 0.43656a2.7675 2.7675 0 0 0-2.7384 2.7649v3.347a2.7675 2.7675 0 0 1-2.6988 2.7649l-29.226 0.70115a2.7649 2.7649 0 0 1-2.7384-2.0426l-1.3732-5.0456a2.7649 2.7649 0 0 0-2.7014-2.0426l-39.039 0.42069a2.7649 2.7649 0 0 0-2.6988 3.2279l15.706 92.435a2.7675 2.7675 0 0 0 2.7173 2.3045l123.33 0.52917a2.7675 2.7675 0 0 0 2.7279-3.2861l-18.023-94.268a2.7649 2.7649 0 0 0-2.7437-2.2463z" fill="#dce5ea"/>
   <path d="m108.67 180.67q0.92429 4.7507-0.58576 7.6156-1.5105 2.8652-4.4832 2.8655-2.4214 0-4.8809-2.8042-2.46-2.8042-3.781-8.627-0.29205-1.2871-0.49496-2.4517-0.20349-1.1643-0.34671-2.2066l-1.2153-10.083h-7.0803q2.5007 19.124 2.1449 22.755-0.35597 3.6316-3.1753 3.6317a3.7868 3.0195 41.764 0 1-2.4835-0.95003 3.5747 2.8503 41.764 0 1-1.643-2.5131q-0.31956-1.4092 1.3283-3.9381 1.648-2.5284 1.4204-4.6123l-1.4227-14.373h-2.9726a5.8996 4.7042 41.764 0 0-2.2702 0.59759 5.0833 4.0533 41.764 0 0-1.4151 1.3944l-0.87278 1.9614h-1.0726q0.44429-4.658 2.1039-7.0027 1.659-2.3445 4.5096-2.3445h23.414l1.2238 5.3938h-7.9069q0.46678 3.6776 1.1019 7.3552 0.63526 3.6776 1.4769 7.3859 0.57028 2.5133 2.0895 4.076 1.519 1.563 3.2661 1.5629 1.0724 0 2.0544-0.87348a3.5467 2.8281 41.764 0 0 0.81512-2.2831q-0.0615-0.67379-0.10212-1.0573-0.0399-0.38285-0.0613-0.47504z" fill="#008fe1"/>
   <path d="m108.67 180.67q0.92429 4.7507-0.58576 7.6156-1.5105 2.8652-4.4832 2.8655-2.4214 0-4.8809-2.8042-2.46-2.8042-3.781-8.627-0.29205-1.2871-0.49496-2.4517-0.20349-1.1643-0.34671-2.2066l-1.2153-10.083h-7.0803q2.5007 19.124 2.1449 22.755-0.35597 3.6316-3.1753 3.6317a3.7868 3.0195 41.764 0 1-2.4835-0.95003 3.5747 2.8503 41.764 0 1-1.643-2.5131q-0.31956-1.4092 1.3283-3.9381 1.648-2.5284 1.4204-4.6123l-1.4227-14.373h-2.9726a5.8996 4.7042 41.764 0 0-2.2702 0.59759 5.0833 4.0533 41.764 0 0-1.4151 1.3944l-0.87278 1.9614h-1.0726q0.44429-4.658 2.1039-7.0027 1.659-2.3445 4.5096-2.3445h23.414l1.2238 5.3938h-7.9069q0.46678 3.6776 1.1019 7.3552 0.63526 3.6776 1.4769 7.3859 0.57028 2.5133 2.0895 4.076 1.519 1.563 3.2661 1.5629 1.0724 0 2.0544-0.87348a3.5467 2.8281 41.764 0 0 0.81512-2.2831q-0.0615-0.67379-0.10212-1.0573-0.0399-0.38285-0.0613-0.47504z" opacity=".1"/>
   <path d="m108.45 179.71q0.92429 4.7507-0.58576 7.6156-1.5101 2.8652-4.4829 2.8655-2.4214 0-4.8809-2.8042-2.46-2.8042-3.7813-8.627-0.29205-1.2872-0.49496-2.4518-0.20325-1.1643-0.34671-2.2065l-1.2153-10.083h-7.0794q2.5011 19.124 2.1449 22.755-0.35597 3.6316-3.1753 3.6317a3.7868 3.0195 41.764 0 1-2.4832-0.95004 3.5747 2.8503 41.764 0 1-1.643-2.5131q-0.31988-1.4092 1.3283-3.938 1.648-2.5284 1.4204-4.6123l-1.423-14.373h-2.9726a5.8996 4.7042 41.764 0 0-2.2699 0.59758 5.0833 4.0533 41.764 0 0-1.4151 1.3944l-0.87278 1.9614h-1.0726q0.44429-4.658 2.1039-7.0027 1.6586-2.3445 4.5093-2.3445h23.414l1.2238 5.3938h-7.9069q0.46696 3.6776 1.1023 7.3552 0.63474 3.6776 1.4766 7.3859 0.57028 2.5133 2.0895 4.076 1.5193 1.563 3.2661 1.5629 1.0724 0 2.0544-0.87347a3.5467 2.8281 41.764 0 0 0.81513-2.2831q-0.0612-0.67382-0.10213-1.0573-0.0399-0.38284-0.0613-0.475z" fill="#008fe1"/>
  </g>
 </g>
</svg>
