<?xml version="1.0" encoding="UTF-8" standalone="no"?>
<!-- Created with Inkscape (http://www.inkscape.org/) -->

<svg
   width="48.289mm"
   height="63.377mm"
   version="1.1"
   viewBox="0 0 48.289 63.377"
   id="svg61"
   sodipodi:docname="text.svg"
   inkscape:version="1.1.2 (0a00cf5339, 2022-02-04, custom)"
   xmlns:inkscape="http://www.inkscape.org/namespaces/inkscape"
   xmlns:sodipodi="http://sodipodi.sourceforge.net/DTD/sodipodi-0.dtd"
   xmlns:xlink="http://www.w3.org/1999/xlink"
   xmlns="http://www.w3.org/2000/svg"
   xmlns:svg="http://www.w3.org/2000/svg"
   xmlns:rdf="http://www.w3.org/1999/02/22-rdf-syntax-ns#"
   xmlns:cc="http://creativecommons.org/ns#"
   xmlns:dc="http://purl.org/dc/elements/1.1/">
  <sodipodi:namedview
     id="namedview63"
     pagecolor="#505050"
     bordercolor="#ffffff"
     borderopacity="1"
     inkscape:pageshadow="0"
     inkscape:pageopacity="0"
     inkscape:pagecheckerboard="1"
     inkscape:document-units="mm"
     showgrid="false"
     inkscape:zoom="1.5008238"
     inkscape:cx="110.93907"
     inkscape:cy="148.91821"
     inkscape:window-width="1342"
     inkscape:window-height="970"
     inkscape:window-x="409"
     inkscape:window-y="55"
     inkscape:window-maximized="0"
     inkscape:current-layer="g57" />
  <defs
     id="defs35">
    <linearGradient
       id="linearGradient8982">
      <stop
         stop-color="#dce5ea"
         offset="0"
         id="stop2" />
      <stop
         stop-color="#ecf1f4"
         offset="1"
         id="stop4" />
    </linearGradient>
    <linearGradient
       id="linearGradient8932"
       x1="446.97"
       x2="355.97"
       y1="696.57"
       y2="576.3"
       gradientTransform="scale(.26458)"
       gradientUnits="userSpaceOnUse">
      <stop
         stop-color="#b6c8d3"
         offset="0"
         id="stop7" />
      <stop
         stop-color="#c6d4dd"
         offset="1"
         id="stop9" />
    </linearGradient>
    <linearGradient
       id="linearGradient10806"
       x1="99.385"
       x2="76.285"
       y1="129.78"
       y2="126.78"
       gradientUnits="userSpaceOnUse">
      <stop
         stop-color="#b6c8d3"
         offset="0"
         id="stop12" />
      <stop
         stop-color="#c6d4dd"
         offset="1"
         id="stop14" />
    </linearGradient>
    <linearGradient
       id="linearGradient8984-8-6-6-4"
       x1="86.551"
       x2="76.285"
       y1="131.98"
       y2="126.85"
       gradientTransform="matrix(2.2501 0 0 .58445 -95.363 59.169)"
       gradientUnits="userSpaceOnUse"
       xlink:href="#linearGradient8982" />
    <linearGradient
       id="linearGradient8984-8-6-6-5"
       x1="86.551"
       x2="76.285"
       y1="131.98"
       y2="126.85"
       gradientTransform="matrix(3.5001 0 0 .58445 -190.72 65.698)"
       gradientUnits="userSpaceOnUse"
       xlink:href="#linearGradient8982" />
    <linearGradient
       id="linearGradient8984-8-6-6-5-1"
       x1="86.551"
       x2="76.285"
       y1="131.98"
       y2="126.85"
       gradientTransform="matrix(3.5001 0 0 .58445 -190.72 72.227)"
       gradientUnits="userSpaceOnUse"
       xlink:href="#linearGradient8982" />
    <linearGradient
       id="linearGradient10927"
       x1="658.24"
       x2="655.69"
       y1="542.88"
       y2="466.27"
       gradientUnits="userSpaceOnUse">
      <stop
         stop-color="#b6c8d3"
         offset="0"
         id="stop20" />
      <stop
         stop-color="#c6d4dd"
         offset="1"
         id="stop22" />
    </linearGradient>
    <linearGradient
       id="linearGradient10937"
       x1="95.302"
       x2="94.767"
       y1="176.93"
       y2="165.15"
       gradientUnits="userSpaceOnUse">
      <stop
         stop-color="#b6c8d3"
         offset="0"
         id="stop25" />
      <stop
         stop-color="#c6d4dd"
         offset="1"
         id="stop27" />
    </linearGradient>
    <linearGradient
       id="linearGradient10945"
       x1="81.804"
       x2="81.813"
       y1="174.13"
       y2="165.39"
       gradientUnits="userSpaceOnUse">
      <stop
         stop-color="#b6c8d3"
         offset="0"
         id="stop30" />
      <stop
         stop-color="#c6d4dd"
         offset="1"
         id="stop32" />
    </linearGradient>
    <linearGradient
       inkscape:collect="always"
       xlink:href="#linearGradient8982"
       id="linearGradient1208"
       gradientUnits="userSpaceOnUse"
       gradientTransform="matrix(3.5001,0,0,0.58445,-190.67069,78.515458)"
       x1="86.551"
       y1="131.98"
       x2="76.285"
       y2="126.85" />
    <linearGradient
       inkscape:collect="always"
       xlink:href="#linearGradient8982"
       id="linearGradient1210"
       gradientUnits="userSpaceOnUse"
       gradientTransform="matrix(3.5001,0,0,0.58445,-190.67069,85.044458)"
       x1="86.551"
       y1="131.98"
       x2="76.285"
       y2="126.85" />
    <linearGradient
       inkscape:collect="always"
       xlink:href="#linearGradient8982"
       id="linearGradient1245"
       gradientUnits="userSpaceOnUse"
       gradientTransform="matrix(3.5001,0,0,0.58445,-190.67069,91.296633)"
       x1="86.551"
       y1="131.98"
       x2="76.285"
       y2="126.85" />
    <linearGradient
       inkscape:collect="always"
       xlink:href="#linearGradient8982"
       id="linearGradient1247"
       gradientUnits="userSpaceOnUse"
       gradientTransform="matrix(3.5001,0,0,0.58445,-190.67069,97.825633)"
       x1="86.551"
       y1="131.98"
       x2="76.285"
       y2="126.85" />
  </defs>
  <metadata
     id="metadata37">
    <rdf:RDF>
      <cc:Work
         rdf:about="">
        <dc:format>image/svg+xml</dc:format>
        <dc:type
           rdf:resource="http://purl.org/dc/dcmitype/StillImage" />
      </cc:Work>
    </rdf:RDF>
  </metadata>
  <g
     transform="translate(-69.972 -120.92)"
     id="g59">
    <g
       id="g57">
      <path
         d="m71.472 122.42h32.081l13.206 13.108v47.268h-45.287z"
         fill="#fcfdfd"
         id="path39" />
      <path
         d="m76.285 126.78v3h23.1v-3z"
         color="#000000"
         color-rendering="auto"
         dominant-baseline="auto"
         fill="url(#linearGradient10806)"
         image-rendering="auto"
         shape-rendering="auto"
         solid-color="#000000"
         style="font-feature-settings:normal;font-variant-alternates:normal;font-variant-caps:normal;font-variant-ligatures:normal;font-variant-numeric:normal;font-variant-position:normal;isolation:auto;mix-blend-mode:normal;shape-padding:0;text-decoration-color:#000000;text-decoration-line:none;text-decoration-style:solid;text-indent:0;text-orientation:mixed;text-transform:none;white-space:normal"
         id="path41" />
      <path
         d="m69.972 120.93v63.375h48.287c-2e-3 -16.357 1e-3 -49.391 1e-3 -49.391l-1e-3 -1e-3v-5.2e-4l-14.09-13.984zm3.0003 2.9998h29.078l-0.0196 13.107h13.229v44.268h-42.287zm32.074 2.096 8.0719 8.0114h-8.0838z"
         color="#000000"
         color-rendering="auto"
         dominant-baseline="auto"
         fill="url(#linearGradient8932)"
         image-rendering="auto"
         shape-rendering="auto"
         solid-color="#000000"
         style="font-feature-settings:normal;font-variant-alternates:normal;font-variant-caps:normal;font-variant-ligatures:normal;font-variant-numeric:normal;font-variant-position:normal;isolation:auto;mix-blend-mode:normal;shape-padding:0;text-decoration-color:#000000;text-decoration-line:none;text-decoration-style:solid;text-indent:0;text-orientation:mixed;text-transform:none;white-space:normal"
         id="path43" />
      <path
         d="m76.285 133.3v3h23.1v-3z"
         fill="url(#linearGradient8984-8-6-6-4)"
         stroke-width=".32703"
         id="path51" />
      <path
         d="m76.285 139.83v3h35.932v-3z"
         fill="url(#linearGradient8984-8-6-6-5)"
         stroke-width=".40788"
         id="path53" />
      <path
         d="m76.285 146.36v3h35.932v-3z"
         fill="url(#linearGradient8984-8-6-6-5-1)"
         stroke-width=".40788"
         id="path55" />
      <path
         d="m 76.334305,152.64745 v 3 h 35.932005 v -3 z"
         fill="url(#linearGradient8984-8-6-6-5)"
         stroke-width="0.40788"
         id="path53-0"
         style="fill:url(#linearGradient1208)" />
      <path
         d="m 76.334305,159.17745 v 3 h 35.932005 v -3 z"
         fill="url(#linearGradient8984-8-6-6-5-1)"
         stroke-width="0.40788"
         id="path55-2"
         style="fill:url(#linearGradient1210)" />
      <path
         d="m 76.334305,165.42863 v 3 h 35.932005 v -3 z"
         fill="url(#linearGradient8984-8-6-6-5)"
         stroke-width="0.40788"
         id="path53-03"
         style="fill:url(#linearGradient1245)" />
      <path
         d="m 76.334305,171.95863 v 3 h 35.932005 v -3 z"
         fill="url(#linearGradient8984-8-6-6-5-1)"
         stroke-width="0.40788"
         id="path55-6"
         style="fill:url(#linearGradient1247)" />
      <path
         style="fill:#f95428;stroke-width:0.189793"
         d="m 104.15979,186.14151 -0.86963,-0.63126 -0.86735,0.63126 h -0.002 l -4.125345,3.00157 v -3.00157 -12.72506 -4.273 c 0.183909,0.0499 0.358709,0.1135 0.517566,0.1953 0.978572,0.49953 2.607949,2.98677 2.781229,1.92526 1.75824,-10.77512 2.16819,-0.80377 3.23995,-0.97402 0.89678,-0.14082 1.99568,0.26115 2.90611,0.0886 h 0.54718 v 3.03783 12.72506 2.9993 z"
         id="path12" />
      <path
         style="fill:#f7b239;stroke-width:0.189793"
         d="m 98.295184,176.19255 c -0.901327,-0.26115 -2.020727,-0.26798 -2.674564,-0.9241 -0.790109,-0.79011 -0.637894,-2.24772 -1.119399,-3.19213 -0.499535,-0.97857 -1.759572,-1.71876 -1.927538,-2.78123 -0.167967,-1.07384 0.80605,-2.16819 0.976295,-3.24223 0.165689,-1.06037 -0.426844,-2.4043 0.07269,-3.38287 0.481315,-0.94441 1.904953,-1.25776 2.695061,-2.04559 0.790109,-0.79011 1.103457,-2.21602 2.047867,-2.69734 0.978573,-0.49725 2.320414,0.0953 3.382874,-0.0727 1.07157,-0.16797 2.16592,-1.14199 3.23995,-0.97402 1.06266,0.16797 1.80266,1.428 2.78123,1.92754 0.94441,0.48132 2.4043,0.32701 3.19213,1.11712 0.79011,0.79011 0.63809,2.25 1.1194,3.19441 0.49953,0.97857 1.75957,1.71876 1.92754,2.78123 0.16796,1.07157 -0.80605,2.16819 -0.9763,3.23995 -0.16569,1.06265 0.42685,2.4043 -0.0727,3.38287 -0.48131,0.94441 -1.90495,1.25776 -2.69506,2.04787 -0.79011,0.79011 -1.10346,2.21375 -2.04559,2.69506 -0.15221,0.0772 -0.31334,0.12944 -0.47904,0.16113 -0.91043,0.17253 -2.00933,-0.22926 -2.90611,-0.0886 -1.07157,0.17025 -2.16591,1.14427 -3.23995,0.97402 -1.06247,-0.16569 -1.802659,-1.42591 -2.781231,-1.92526 -0.158668,-0.0816 -0.333657,-0.14519 -0.517566,-0.19511 z"
         id="path26" />
      <path
         style="fill:#f95428;stroke-width:0.189793"
         d="m 106.62539,164.26368 c 1.84137,1.84138 1.84137,4.82701 0,6.66591 -1.84137,1.84137 -4.82701,1.84137 -6.668189,0 -1.841372,-1.83909 -1.841372,-4.82473 0,-6.66591 1.841369,-1.84137 4.827009,-1.84137 6.668189,0 z"
         id="path28" />
    </g>
  </g>
</svg>
