<?xml version="1.0" encoding="UTF-8"?>
<!-- Generator: Adobe Illustrator 18.0.0, SVG Export Plug-In . SVG Version: 6.00 Build 0)  -->
<svg width="545" height="545" version="1.1" viewBox="0 0 545 545" xml:space="preserve" xmlns="http://www.w3.org/2000/svg" xmlns:cc="http://creativecommons.org/ns#" xmlns:dc="http://purl.org/dc/elements/1.1/" xmlns:osb="http://www.openswatchbook.org/uri/2009/osb" xmlns:rdf="http://www.w3.org/1999/02/22-rdf-syntax-ns#" xmlns:xlink="http://www.w3.org/1999/xlink"><metadata><rdf:RDF><cc:Work rdf:about=""><dc:format>image/svg+xml</dc:format><dc:type rdf:resource="http://purl.org/dc/dcmitype/StillImage"/><dc:title/></cc:Work></rdf:RDF></metadata>
<g transform="translate(682.7 584.46)"><g fill="#fff">
	<path d="m-432.23-486.58v164.96l176.38-0.5474v-164.41z"/><path d="m-608.61-322.17v176.73h176.38v-176.18z"/><path d="m-381.83-285v201.57h201.57v-201.57z"/></g><g fill-opacity=".70588" stroke="#000" stroke-linejoin="round" stroke-width="4"><path d="m-608.61-322.17v176.73h176.38v-176.18z" fill="#3cff3c"/><path d="m-381.83-285v201.57h201.57v-201.57z" fill="#3c82ff" stroke-linecap="square"/><path d="m-432.23-486.58v164.96l176.38-0.5474v-164.41z" fill="#ff3c3c"/></g><g fill="none" stroke="#000" stroke-linejoin="round" stroke-width="4">
	
	
<path d="m-482.62-360.6 100.79 75.59"/><path d="m-432.23-486.58v339.51"/><path d="m-608.61-322.17h352.76"/></g><g stroke="#000" stroke-linejoin="round" stroke-width="4"><path d="m-633.8-209.41 25.197 63.973v-176.73l-25.197-38.428z" fill="#008200" stroke-linecap="round" style="paint-order:normal"/><path d="m-432.23-321.62-176.38-0.5474-25.197-38.428h151.18z" fill="#3cff3c" stroke-linecap="round" style="paint-order:normal"/><path d="m-482.62-360.6 50.394 38.976v-164.96l-50.394-25.197z" fill="#a00000"/></g><g stroke="#000" stroke-linejoin="round" stroke-width="4"><path d="m-432.23-486.58h176.38l-75.591-25.197h-151.18z" fill="#ff3c3c" fill-opacity=".98131"/><path d="m-432.23-145.44v-176.18l50.394 36.615v201.57z" fill="#005a8c"/><path d="m-381.83-285-50.394-36.615 176.38-0.5474 75.591 37.162z" fill="#3c82ff"/></g></g>















</svg>
