<?xml version="1.0" encoding="UTF-8" standalone="no"?>
<!-- Created with Inkscape (http://www.inkscape.org/) -->

<svg
   xmlns:dc="http://purl.org/dc/elements/1.1/"
   xmlns:cc="http://creativecommons.org/ns#"
   xmlns:rdf="http://www.w3.org/1999/02/22-rdf-syntax-ns#"
   xmlns:svg="http://www.w3.org/2000/svg"
   xmlns="http://www.w3.org/2000/svg"
   xmlns:sodipodi="http://sodipodi.sourceforge.net/DTD/sodipodi-0.dtd"
   xmlns:inkscape="http://www.inkscape.org/namespaces/inkscape"
   width="26.753687mm"
   height="26.753687mm"
   viewBox="0 0 26.753687 26.753687"
   version="1.1"
   id="svg7063"
   inkscape:version="0.92.4 (5da689c313, 2019-01-14)"
   sodipodi:docname="vivid-root.svg">
  <defs
     id="defs7057" />
  <sodipodi:namedview
     id="base"
     pagecolor="#ffffff"
     bordercolor="#666666"
     borderopacity="1.0"
     inkscape:pageopacity="0.0"
     inkscape:pageshadow="2"
     inkscape:zoom="0.35"
     inkscape:cx="-505.15615"
     inkscape:cy="87.701014"
     inkscape:document-units="mm"
     inkscape:current-layer="layer1"
     showgrid="false"
     fit-margin-top="0"
     fit-margin-left="0"
     fit-margin-right="0"
     fit-margin-bottom="0"
     inkscape:window-width="1680"
     inkscape:window-height="987"
     inkscape:window-x="-8"
     inkscape:window-y="-8"
     inkscape:window-maximized="1" />
  <metadata
     id="metadata7060">
    <rdf:RDF>
      <cc:Work
         rdf:about="">
        <dc:format>image/svg+xml</dc:format>
        <dc:type
           rdf:resource="http://purl.org/dc/dcmitype/StillImage" />
        <dc:title></dc:title>
      </cc:Work>
    </rdf:RDF>
  </metadata>
  <g
     inkscape:label="Ebene 1"
     inkscape:groupmode="layer"
     id="layer1"
     transform="translate(-74.313636,-145.28387)">
    <rect
       style="opacity:1;vector-effect:none;fill:#ffffff;fill-opacity:1;stroke:#000000;stroke-width:0;stroke-linecap:round;stroke-linejoin:round;stroke-miterlimit:4;stroke-dasharray:none;stroke-dashoffset:0;stroke-opacity:0.65098039"
       id="rect4940-6-2-0"
       width="26.753685"
       height="26.753685"
       x="74.313637"
       y="145.28387"
       ry="3.0869632" />
    <g
       id="g4917-0-7"
       transform="translate(-34.201087,-49.367329)">
      <path
         id="path871-2-1-2-4-5-5-2-2"
         d="m 121.91189,202.82232 c -0.0462,5.3e-4 -0.0954,0.001 -0.14056,0.002 -0.001,3e-5 -0.003,-3e-5 -0.004,0 a 0.22502252,0.22502252 0 0 0 -0.0444,0.006 c -3.78729,0.0241 -7.41048,1.56061 -10.05106,4.28346 -0.4312,0.44416 -0.42141,1.16078 0.0233,1.59164 a 0.22502252,0.22502252 0 0 0 0.016,0.0139 c 0.34395,0.27935 0.77225,0.29525 1.16169,0.16175 0.38943,-0.13351 0.76947,-0.39572 1.15238,-0.69712 a 0.22502252,0.22502252 0 0 0 0.0103,-0.01 c 0.89874,-0.79392 1.92379,-1.39628 2.98431,-1.90635 -0.21716,0.57174 -0.4377,1.1485 -0.4377,1.79473 0,2.8822 2.35818,5.24257 5.24051,5.24257 2.88231,0 5.24206,-2.36028 5.24206,-5.24257 0,-0.6427 -0.21855,-1.21572 -0.43357,-1.78491 1.10346,0.53393 2.16777,1.17084 3.0918,2.01176 a 0.22502252,0.22502252 0 0 0 0.004,0.004 c 0.51394,0.44787 0.94029,0.70506 1.32809,0.79892 0.3878,0.0939 0.74541,-0.005 0.9958,-0.23616 a 0.22502252,0.22502252 0 0 0 0.002,-0.002 c 0.44943,-0.42455 0.46878,-1.13968 0.045,-1.58957 -2.64462,-2.80838 -6.32436,-4.41326 -10.18181,-4.44159 a 0.22502252,0.22502252 0 0 0 -0.004,0 z m -0.1328,2.25206 c 0.024,-1.8e-4 0.0464,2.6e-4 0.0646,0 1.65742,0.0106 2.97087,1.3279 2.97087,2.98793 0,1.66672 -1.32586,2.99258 -2.99258,2.99258 -1.66673,0 -2.98793,-1.32568 -2.98793,-2.99258 0,-1.65237 1.29878,-2.96506 2.94504,-2.98793 z"
         style="color:#000000;font-style:normal;font-variant:normal;font-weight:normal;font-stretch:normal;font-size:medium;line-height:normal;font-family:sans-serif;font-variant-ligatures:normal;font-variant-position:normal;font-variant-caps:normal;font-variant-numeric:normal;font-variant-alternates:normal;font-feature-settings:normal;text-indent:0;text-align:start;text-decoration:none;text-decoration-line:none;text-decoration-style:solid;text-decoration-color:#000000;letter-spacing:normal;word-spacing:normal;text-transform:none;writing-mode:lr-tb;direction:ltr;text-orientation:mixed;dominant-baseline:auto;baseline-shift:baseline;text-anchor:start;white-space:normal;shape-padding:0;clip-rule:nonzero;display:inline;overflow:visible;visibility:visible;opacity:1;isolation:auto;mix-blend-mode:normal;color-interpolation:sRGB;color-interpolation-filters:linearRGB;solid-color:#000000;solid-opacity:1;vector-effect:none;fill:#a1b8c7;fill-opacity:1;fill-rule:nonzero;stroke:none;stroke-width:0.45000005;stroke-linecap:round;stroke-linejoin:round;stroke-miterlimit:4;stroke-dasharray:none;stroke-dashoffset:0;stroke-opacity:1;color-rendering:auto;image-rendering:auto;shape-rendering:auto;text-rendering:auto;enable-background:accumulate"
         inkscape:connector-curvature="0" />
      <path
         inkscape:connector-curvature="0"
         id="path871-2-1-2-4-5-7-4"
         transform="matrix(0.26458333,0,0,0.26458333,-50.179371,158.46431)"
         d="m 647.0332,167.76562 c -1.77807,0.1001 -3.54441,0.28859 -5.29101,0.5625 1.74656,-0.27387 3.51296,-0.46241 5.29101,-0.5625 z m 3.39258,1.58204 c -0.14808,0 -0.29438,0.005 -0.42969,0.008 a 0.85047882,0.85047882 0 0 1 -0.006,0 0.85047882,0.85047882 0 0 1 -0.0898,0.008 c -13.92548,0.0398 -27.25647,5.68071 -36.96094,15.6875 -0.97935,1.00891 -0.93648,2.58196 0.0527,3.57227 0.81932,0.64289 1.61004,0.69583 2.71679,0.3164 1.12789,-0.38664 2.46278,-1.27595 3.85157,-2.36914 l -0.0371,0.0391 c 4.01646,-3.54796 8.5253,-6.45124 13.36914,-8.53516 a 0.85047882,0.85047882 0 0 1 1.0918,1.16797 c -1.27182,2.47483 -2,5.25887 -2,8.21484 -10e-6,9.96643 8.13359,18.11524 18.0996,18.11524 9.96594,0 18.11524,-8.14915 18.11524,-18.11524 0,-2.95166 -0.73099,-5.72932 -2,-8.20117 a 0.85047882,0.85047882 0 0 1 1.09961,-1.17383 c 5.01883,2.16828 9.66617,5.22607 13.77539,8.96289 l 0.0156,0.0137 c 1.8183,1.58098 3.25954,2.38803 4.28711,2.63672 1.02841,0.24888 1.61331,0.0526 2.20117,-0.48828 1.02399,-0.97376 1.07373,-2.5716 0.10352,-3.60156 -9.67733,-10.27661 -23.14218,-16.1523 -37.25781,-16.25586 z m -21.33594,2.60351 c -1.61507,0.6874 -3.19697,1.45446 -4.73828,2.29883 1.54125,-0.84431 3.12328,-1.61149 4.73828,-2.29883 z m 21.06836,2.50781 a 0.85047882,0.85047882 0 0 1 0.0156,0 c 7.16636,0.046 12.92578,5.81986 12.92578,12.99805 0,7.20696 -5.80871,13.00781 -13.01563,13.00781 -7.20695,0 -12.99804,-5.80153 -12.99804,-13.00781 0,-7.1438 5.69488,-12.89316 12.81445,-12.99219 a 0.85047882,0.85047882 0 0 1 0.008,0 c 0.0775,0 0.16685,-0.005 0.25,-0.006 z m 1.16602,1.76954 c 0.68254,0.0721 1.34349,0.21105 1.98242,0.39648 -0.63938,-0.18571 -1.29934,-0.3243 -1.98242,-0.39648 z m -5.76563,0.85742 c -0.66764,0.28749 -1.30108,0.63819 -1.89257,1.04297 0.59143,-0.40471 1.22498,-0.75554 1.89257,-1.04297 z m 22.70118,3.625 c 0.50792,1.34454 1.02053,2.69443 1.33398,4.11133 -0.31342,-1.41661 -0.82607,-2.76679 -1.33398,-4.11133 z m -40.76172,2.29883 c -0.96489,0.5605 -1.91318,1.15174 -2.83985,1.77929 0.92665,-0.62759 1.87499,-1.21875 2.83985,-1.77929 z m 45.37109,0.15625 c 1.50219,0.88635 2.96318,1.84611 4.36328,2.90234 -1.4001,-1.05621 -2.86109,-2.01602 -4.36328,-2.90234 z m -42.48633,6.30859 c 0.0628,0.6137 0.15532,1.21817 0.27344,1.81445 -0.11795,-0.59573 -0.21068,-1.20132 -0.27344,-1.81445 z m 39.41211,0 c -0.0628,0.61314 -0.1554,1.21871 -0.27344,1.81445 0.11819,-0.59629 0.21058,-1.20074 0.27344,-1.81445 z m -3.29297,9.03906 c -0.7141,1.05454 -1.5279,2.03767 -2.42578,2.93555 0.89826,-0.89825 1.71144,-1.88053 2.42578,-2.93555 z m -28.99609,4.2168 c 0.97921,0.80949 2.03586,1.52654 3.1582,2.13867 -1.12229,-0.61206 -2.17906,-1.32927 -3.1582,-2.13867 z m 4.88867,2.97656 c 1.4797,0.6291 3.05094,1.08217 4.68555,1.33399 -1.63458,-0.25178 -3.20591,-0.70497 -4.68555,-1.33399 z m 15.38281,0 c -1.48007,0.629 -3.05078,1.08222 -4.68554,1.33399 1.63475,-0.25181 3.2055,-0.70491 4.68554,-1.33399 z m -9.70898,1.46094 c 0.6637,0.068 1.33671,0.10351 2.01758,0.10351 -0.68087,0 -1.35389,-0.0355 -2.01758,-0.10351 z m 2.01758,0.10351 c 0.68086,0 1.35384,-0.0355 2.01758,-0.10351 -0.66374,0.068 -1.33672,0.10351 -2.01758,0.10351 z"
         style="color:#000000;font-style:normal;font-variant:normal;font-weight:normal;font-stretch:normal;font-size:medium;line-height:normal;font-family:sans-serif;font-variant-ligatures:normal;font-variant-position:normal;font-variant-caps:normal;font-variant-numeric:normal;font-variant-alternates:normal;font-feature-settings:normal;text-indent:0;text-align:start;text-decoration:none;text-decoration-line:none;text-decoration-style:solid;text-decoration-color:#000000;letter-spacing:normal;word-spacing:normal;text-transform:none;writing-mode:lr-tb;direction:ltr;text-orientation:mixed;dominant-baseline:auto;baseline-shift:baseline;text-anchor:start;white-space:normal;shape-padding:0;clip-rule:nonzero;display:inline;overflow:visible;visibility:visible;opacity:1;isolation:auto;mix-blend-mode:normal;color-interpolation:sRGB;color-interpolation-filters:linearRGB;solid-color:#000000;solid-opacity:1;vector-effect:none;fill:#ffffff;fill-opacity:1;fill-rule:nonzero;stroke:none;stroke-width:1.70078754;stroke-linecap:round;stroke-linejoin:round;stroke-miterlimit:4;stroke-dasharray:none;stroke-dashoffset:0;stroke-opacity:1;color-rendering:auto;image-rendering:auto;shape-rendering:auto;text-rendering:auto;enable-background:accumulate" />
    </g>
  </g>
</svg>
