<?xml version="1.0" encoding="UTF-8" standalone="no"?>
<!-- Generator: Adobe Illustrator 18.0.0, SVG Export Plug-In . SVG Version: 6.00 Build 0)  -->

<svg
   xmlns:osb="http://www.openswatchbook.org/uri/2009/osb"
   xmlns:dc="http://purl.org/dc/elements/1.1/"
   xmlns:cc="http://creativecommons.org/ns#"
   xmlns:rdf="http://www.w3.org/1999/02/22-rdf-syntax-ns#"
   xmlns:svg="http://www.w3.org/2000/svg"
   xmlns="http://www.w3.org/2000/svg"
   xmlns:xlink="http://www.w3.org/1999/xlink"
   xmlns:sodipodi="http://sodipodi.sourceforge.net/DTD/sodipodi-0.dtd"
   xmlns:inkscape="http://www.inkscape.org/namespaces/inkscape"
   version="1.1"
   id="Capa_1"
   x="0px"
   y="0px"
   viewBox="0 0 544.99999 544.99999"
   xml:space="preserve"
   sodipodi:docname="Frootlab-Logo-v2.2-2d.svg"
   inkscape:version="0.92.4 (5da689c313, 2019-01-14)"
   width="545"
   height="545"
   inkscape:export-filename="C:\Users\patri\Documents\GitHub\corporate\design\logo\frootlab\latest\png\Frootlab-512.png"
   inkscape:export-xdpi="90.187157"
   inkscape:export-ydpi="90.187157"><metadata
   id="metadata55"><rdf:RDF><cc:Work
       rdf:about=""><dc:format>image/svg+xml</dc:format><dc:type
         rdf:resource="http://purl.org/dc/dcmitype/StillImage" /><dc:title /></cc:Work></rdf:RDF></metadata><defs
   id="defs53"><linearGradient
     id="linearGradient25565"
     osb:paint="solid"><stop
       style="stop-color:#00ff00;stop-opacity:1;"
       offset="0"
       id="stop25563" /></linearGradient><linearGradient
     inkscape:collect="always"
     id="linearGradient25557"><stop
       style="stop-color:#ff0000;stop-opacity:1;"
       offset="0"
       id="stop25553" /><stop
       style="stop-color:#ff0000;stop-opacity:0;"
       offset="1"
       id="stop25555" /></linearGradient><linearGradient
     id="linearGradient6556"
     osb:paint="solid"><stop
       style="stop-color:#ff0046;stop-opacity:0.47843137;"
       offset="0"
       id="stop6554" /></linearGradient><inkscape:perspective
     sodipodi:type="inkscape:persp3d"
     inkscape:vp_x="2135.6133 : -1.7602 : 0"
     inkscape:vp_y="0 : -21.553141 : 0"
     inkscape:vp_z="-1099.9426 : -1026.7899 : 1"
     inkscape:persp3d-origin="1035.6707 : -1025.0297 : 1"
     id="perspective4864" /><linearGradient
     inkscape:collect="always"
     xlink:href="#linearGradient25557"
     id="linearGradient25559"
     x1="255.39748"
     y1="314.54794"
     x2="463.75494"
     y2="314.54794"
     gradientUnits="userSpaceOnUse" /></defs><sodipodi:namedview
   pagecolor="#ffffff"
   bordercolor="#666666"
   borderopacity="1"
   objecttolerance="10"
   gridtolerance="10"
   guidetolerance="10"
   inkscape:pageopacity="0"
   inkscape:pageshadow="2"
   inkscape:window-width="1680"
   inkscape:window-height="987"
   id="namedview51"
   showgrid="false"
   inkscape:zoom="0.68113006"
   inkscape:cx="640.77591"
   inkscape:cy="384.30776"
   inkscape:window-x="-8"
   inkscape:window-y="-8"
   inkscape:window-maximized="1"
   inkscape:current-layer="g18"
   fit-margin-top="0"
   fit-margin-left="0"
   fit-margin-right="0"
   fit-margin-bottom="0"
   units="px" />
<g
   id="g18"
   transform="translate(31.677512,19.705408)">
	
	
	
<path
   inkscape:export-ydpi="96"
   inkscape:export-xdpi="96"
   style="fill:#4caf50;fill-opacity:1;stroke:#4caf50;stroke-width:10;stroke-miterlimit:4;stroke-dasharray:none;stroke-opacity:1"
   inkscape:connector-curvature="0"
   id="path933"
   d="m 240.31717,269.543 c -10.69695,0.63514 -18.58723,9.4979 -28.01329,13.64047 -59.40489,34.70021 -119.157589,68.89472 -178.347639,103.90738 -4.429502,4.60977 4.26076,7.90088 7.175864,9.63479 64.951605,37.30285 129.600395,75.21895 194.739505,112.14205 9.84466,3.85011 19.02109,-2.98214 26.94469,-7.88252 62.12045,-36.28378 124.60227,-72.04538 186.49933,-108.65199 4.4043,-4.60971 -4.28656,-7.88263 -7.19016,-9.62052 C 377.33386,345.4394 312.75416,307.74913 247.8313,270.7341 c -2.38951,-0.89889 -4.96808,-1.26001 -7.51413,-1.1911 z" /><g
   transform="matrix(1.0460136,0,0,1.0460136,-256.9358,-150.9771)"
   id="g8-1-1-5"
   style="fill:#008fe1;fill-opacity:1;fill-rule:evenodd;stroke:#008fe1;stroke-width:9.56010532;stroke-miterlimit:4;stroke-dasharray:none;stroke-opacity:1"
   inkscape:export-xdpi="96"
   inkscape:export-ydpi="96"><path
     d="m 457.58008,141.26562 c -12.6534,5.72648 -24.28992,13.91515 -36.58537,20.5042 -52.41796,30.46465 -105.22189,60.35331 -157.40291,91.17159 -9.02901,7.40047 -5.90154,19.96756 -6.34571,30.03711 0.13998,67.27145 -0.27951,134.59493 0.20899,201.83398 1.90004,6.25165 8.8869,1.28874 12.04382,-0.83982 61.82608,-35.81916 123.88664,-71.27811 185.56751,-107.32034 7.48729,-5.731 7.37712,-15.91027 6.75976,-24.38086 -0.13732,-69.26639 0.27424,-138.58363 -0.20508,-207.81836 -0.49463,-1.7304 -2.07237,-3.50427 -4.04101,-3.1875 z"
     id="path6-3-08-2"
     inkscape:connector-curvature="0"
     style="fill:#008fe1;fill-opacity:1;fill-rule:evenodd;stroke:#008fe1;stroke-width:9.56010532;stroke-miterlimit:4;stroke-dasharray:none;stroke-opacity:1" /></g><g
   transform="matrix(1.0460136,0,0,1.0460136,227.46255,-150.3854)"
   id="g16-7-0-4"
   style="fill:none;fill-opacity:1;stroke:#ff0000;stroke-width:9.56010532;stroke-miterlimit:4;stroke-dasharray:none;stroke-opacity:1"
   inkscape:export-xdpi="96"
   inkscape:export-ydpi="96"><path
     d="m 31.564453,141.26758 c -6.095113,2.32914 -2.354466,10.79688 -3.388672,15.625 0.159552,69.59569 -0.317787,139.23246 0.236328,208.80273 1.608444,10.3487 12.229636,14.53412 20.223973,19.05272 59.678578,34.27745 119.091468,69.11122 178.934228,103.04494 5.81654,1.42437 5.67568,-6.85848 5.17383,-10.44336 -0.16613,-71.27964 0.33089,-142.60272 -0.24609,-213.85547 -1.79678,-11.10686 -13.62512,-14.89479 -21.94427,-19.99809 C 151.45802,209.55338 92.625777,175.05856 33.367188,141.45703 c -0.583738,-0.16746 -1.195964,-0.25581 -1.802735,-0.18945 z"
     id="path14-6-3-5"
     inkscape:connector-curvature="0"
     style="fill:none;fill-opacity:1;stroke:#ff0000;stroke-width:9.56010532;stroke-miterlimit:4;stroke-dasharray:none;stroke-opacity:1" /></g><path
   d="m 240.31717,269.543 c -10.69695,0.63514 -18.58723,9.4979 -28.01329,13.64047 -59.40489,34.70021 -119.157589,68.89472 -178.347639,103.90738 -4.429502,4.60977 4.26076,7.90088 7.175864,9.63479 64.951605,37.30285 129.600395,75.21895 194.739505,112.14205 9.84466,3.85011 19.02109,-2.98214 26.94469,-7.88252 62.12045,-36.28378 124.60227,-72.04538 186.49933,-108.65199 4.4043,-4.60971 -4.28656,-7.88263 -7.19016,-9.62052 C 377.33386,345.4394 312.75416,307.74913 247.8313,270.7341 c -2.38951,-0.89889 -4.96808,-1.26001 -7.51413,-1.1911 z"
   id="path2-1-4"
   inkscape:connector-curvature="0"
   style="fill:#008200;fill-opacity:1;stroke:#008200;stroke-width:20;stroke-miterlimit:4;stroke-dasharray:none;stroke-opacity:1"
   inkscape:export-xdpi="96"
   inkscape:export-ydpi="96" /><g
   transform="matrix(1.0460136,0,0,1.0460136,-256.9358,-150.9771)"
   id="g8-1-1"
   style="fill:#005a8c;fill-opacity:1;fill-rule:evenodd;stroke:#005a8c;stroke-width:19.12021029;stroke-miterlimit:4;stroke-dasharray:none;stroke-opacity:1"
   inkscape:export-xdpi="96"
   inkscape:export-ydpi="96"><path
     d="m 457.58008,141.26562 c -12.6534,5.72648 -24.28992,13.91515 -36.58537,20.5042 -52.41796,30.46465 -105.22189,60.35331 -157.40291,91.17159 -9.02901,7.40047 -5.90154,19.96756 -6.34571,30.03711 0.13998,67.27145 -0.27951,134.59493 0.20899,201.83398 1.90004,6.25165 8.8869,1.28874 12.04382,-0.83982 61.82608,-35.81916 123.88664,-71.27811 185.56751,-107.32034 7.48729,-5.731 7.37712,-15.91027 6.75976,-24.38086 -0.13732,-69.26639 0.27424,-138.58363 -0.20508,-207.81836 -0.49463,-1.7304 -2.07237,-3.50427 -4.04101,-3.1875 z"
     id="path6-3-08"
     inkscape:connector-curvature="0"
     style="fill:#005a8c;fill-opacity:1;fill-rule:evenodd;stroke:#005a8c;stroke-width:19.12021029;stroke-miterlimit:4;stroke-dasharray:none;stroke-opacity:1" /></g><g
   transform="matrix(1.0460136,0,0,1.0460136,227.46255,-150.3854)"
   id="g16-7-0"
   style="fill:#a00000;fill-opacity:1;stroke:#a00000;stroke-width:19.12021029;stroke-miterlimit:4;stroke-dasharray:none;stroke-opacity:1"
   inkscape:export-xdpi="96"
   inkscape:export-ydpi="96"><path
     d="m 31.564453,141.26758 c -6.095113,2.32914 -2.354466,10.79688 -3.388672,15.625 0.159552,69.59569 -0.317787,139.23246 0.236328,208.80273 1.608444,10.3487 12.229636,14.53412 20.223973,19.05272 59.678578,34.27745 119.091468,69.11122 178.934228,103.04494 5.81654,1.42437 5.67568,-6.85848 5.17383,-10.44336 -0.16613,-71.27964 0.33089,-142.60272 -0.24609,-213.85547 -1.79678,-11.10686 -13.62512,-14.89479 -21.94427,-19.99809 C 151.45802,209.55338 92.625777,175.05856 33.367188,141.45703 c -0.583738,-0.16746 -1.195964,-0.25581 -1.802735,-0.18945 z"
     id="path14-6-3"
     inkscape:connector-curvature="0"
     style="fill:#a00000;fill-opacity:1;stroke:#a00000;stroke-width:19.12021029;stroke-miterlimit:4;stroke-dasharray:none;stroke-opacity:1" /></g><path
   style="color:#000000;font-style:normal;font-variant:normal;font-weight:normal;font-stretch:normal;font-size:medium;line-height:normal;font-family:sans-serif;font-variant-ligatures:normal;font-variant-position:normal;font-variant-caps:normal;font-variant-numeric:normal;font-variant-alternates:normal;font-feature-settings:normal;text-indent:0;text-align:start;text-decoration:none;text-decoration-line:none;text-decoration-style:solid;text-decoration-color:#000000;letter-spacing:normal;word-spacing:normal;text-transform:none;writing-mode:lr-tb;direction:ltr;text-orientation:mixed;dominant-baseline:auto;baseline-shift:baseline;text-anchor:start;white-space:normal;shape-padding:0;clip-rule:nonzero;display:inline;overflow:visible;visibility:visible;opacity:1;isolation:auto;mix-blend-mode:normal;color-interpolation:sRGB;color-interpolation-filters:linearRGB;solid-color:#000000;solid-opacity:1;vector-effect:none;fill:#ffffff;fill-opacity:1;fill-rule:nonzero;stroke:none;stroke-width:12.55216503;stroke-linecap:butt;stroke-linejoin:miter;stroke-miterlimit:4;stroke-dasharray:none;stroke-dashoffset:0;stroke-opacity:1;color-rendering:auto;image-rendering:auto;shape-rendering:auto;text-rendering:auto;enable-background:accumulate"
   d="m 242.29061,21.824889 c -33.41355,-0.36917 -62.49594,32.744089 -57.46169,65.878825 1.40895,11.908326 6.51077,23.360986 14.47262,32.332736 -26.91755,50.6189 -55.42343,100.50863 -87.53122,147.94688 -3.27319,4.65843 -9.28076,0.58694 -13.87172,2.03258 -23.368676,1.01474 -47.053982,14.62338 -55.418327,37.23376 -10.699256,25.3389 -1.166409,57.58427 22.532496,72.02601 22.810002,14.91582 56.767381,12.32895 74.495741,-9.37304 5.29261,-5.99749 9.51861,-12.85227 13.2055,-19.92748 46.32979,-4.14708 93.07039,-1.17201 139.59509,-0.88244 12.65917,0.34912 25.36363,0.84942 37.99644,1.65357 10.75742,30.7917 49.92531,47.16984 79.37132,32.98188 26.91246,-11.76341 42.1896,-45.20369 31.99945,-72.99756 -8.98673,-27.06827 -39.11035,-45.43788 -67.29467,-39.28375 -20.51202,3.67805 -36.69855,19.88232 -44.15674,38.81106 -2.10343,3.82228 -8.14635,3.27001 -14.13938,3.50511 -41.31116,1.62061 -82.72568,0.21187 -124.07041,-0.23979 -12.85213,-0.42888 -25.93545,-0.84092 -38.65634,-2.18921 -2.34505,-7.0422 -5.91218,-13.7028 -10.67165,-19.41098 27.57754,-51.76719 56.33251,-103.12196 89.03216,-151.8918 3.15739,-3.29079 4.43991,-1.78096 12.21378,-0.70581 21.58355,-0.0251 43.26669,-11.83606 52.56939,-31.73587 13.24328,-25.951431 4.41407,-61.318348 -20.99023,-76.413151 -9.83432,-6.284314 -21.53837,-9.671642 -33.22161,-9.351509 z"
   id="path4566"
   inkscape:connector-curvature="0"
   sodipodi:nodetypes="cccccccccccccccsccccccccc" /></g>
<g
   id="g20"
   transform="translate(31.677512,19.705408)">
</g>
<g
   id="g22"
   transform="translate(31.677512,19.705408)">
</g>
<g
   id="g24"
   transform="translate(31.677512,19.705408)">
</g>
<g
   id="g26"
   transform="translate(31.677512,19.705408)">
</g>
<g
   id="g28"
   transform="translate(31.677512,19.705408)">
</g>
<g
   id="g30"
   transform="translate(31.677512,19.705408)">
</g>
<g
   id="g32"
   transform="translate(31.677512,19.705408)">
</g>
<g
   id="g34"
   transform="translate(31.677512,19.705408)">
</g>
<g
   id="g36"
   transform="translate(31.677512,19.705408)">
</g>
<g
   id="g38"
   transform="translate(31.677512,19.705408)">
</g>
<g
   id="g40"
   transform="translate(31.677512,19.705408)">
</g>
<g
   id="g42"
   transform="translate(31.677512,19.705408)">
</g>
<g
   id="g44"
   transform="translate(31.677512,19.705408)">
</g>
<g
   id="g46"
   transform="translate(31.677512,19.705408)">
</g>
<g
   id="g48"
   transform="translate(31.677512,19.705408)">
</g>
</svg>