<?xml version="1.0" encoding="UTF-8"?>
<!-- Created with Inkscape (http://www.inkscape.org/) -->
<svg width="26.754mm" height="26.754mm" version="1.1" viewBox="0 0 26.754 26.754" xmlns="http://www.w3.org/2000/svg" xmlns:cc="http://creativecommons.org/ns#" xmlns:dc="http://purl.org/dc/elements/1.1/" xmlns:rdf="http://www.w3.org/1999/02/22-rdf-syntax-ns#">
 <title>Vivid Store</title>
 <metadata>
  <rdf:RDF>
   <cc:Work rdf:about="">
    <dc:format>image/svg+xml</dc:format>
    <dc:type rdf:resource="http://purl.org/dc/dcmitype/StillImage"/>
    <dc:title>Vivid Store</dc:title>
   </cc:Work>
  </rdf:RDF>
 </metadata>
 <g transform="translate(-94.724 -123.36)">
  <rect x="94.724" y="123.36" width="26.754" height="26.754" ry="3.087" fill="#fff" stroke-width="0"/>
 </g>
 <path d="m9.4067 8.3828c-0.52833-0.41536-1.1917-0.66156-1.9125-0.66156-1.6965 0-3.0779 1.3686-3.1205 3.0742-1.7519 0.66408-2.9988 2.3735-2.9988 4.3759 0 2.3659 1.5506 4.6297 5.599 4.6297 5.229 0.08872 9.0767 0.04321 14.383 0.04321v-0.0073c2.7969 0 3.9959-1.9998 3.9959-4.2861 0-2.2057-1.6438-4.0224-3.7598-4.2661-0.92325-6.882-9.514-8.453-12.188-2.9013" fill="#a1b8c7" stroke="#a1b8c7" stroke-linecap="round" stroke-linejoin="round" stroke-width=".89958"/>
 <g fill="#fff">
  <path d="m14.683 5.0223c-2.1281 0.025794-4.1904 1.1053-5.2765 3.3599-0.52823-0.41507-1.1915-0.66145-1.912-0.66145-1.6965 0-3.0776 1.3685-3.1202 3.0742-1.7519 0.66407-2.9987 2.3735-2.9987 4.3759 0 2.3659 1.5501 4.6296 5.5985 4.6296 5.2289 0.08872 9.0769 0.04341 14.383 0.04341v-0.0072c2.7969 0 3.9957-1.9997 3.9957-4.2859 0-2.2056-1.6434-4.0227-3.7594-4.2664-0.54818-4.0862-3.7999-6.2997-6.9106-6.2621zm-0.0098 6.2518c0.14214-0.0036 0.27929 0.02459 0.40875 0.07338 0.17263 0.06505 0.33557 0.16629 0.4532 0.33229 0.11764 0.16599 0.16222 0.43396 0.05478 0.65007l-2.4903 5.9747-0.01137 0.01964c-0.11743 0.19462-0.323 0.30408-0.51209 0.33382-0.1891 0.02974-0.37189-9.26e-4 -0.53691-0.06821-0.16502-0.06728-0.31652-0.17202-0.42582-0.3302-0.10928-0.15819-0.16006-0.39777-0.07596-0.60925l0.0016-0.0021 2.4887-5.9726c0.09106-0.22309 0.30871-0.35186 0.50178-0.38652 0.04826-0.0087 0.09628-0.01377 0.14366-0.01499zm-4.8704 0.14573c0.10295-0.0034 0.18781 0.01993 0.26561 0.05064 0.15561 0.06142 0.28942 0.15785 0.40825 0.2718 0.11883 0.11396 0.22254 0.2421 0.28731 0.40409 0.03238 0.081 0.05682 0.17357 0.04702 0.28318-0.0098 0.10961-0.06723 0.23418-0.15813 0.31625l-2.1761 2.1776 2.1662 2.1662c0.1667 0.16352 0.2014 0.41142 0.15813 0.59583-0.04327 0.18439-0.14059 0.33469-0.26354 0.46095-0.12296 0.12625-0.2722 0.23149-0.46095 0.27543-0.18875 0.04394-0.44344-0.0065-0.60203-0.17777l-3.3827-3.3398 3.3924-3.3517-0.00156 0.0036c0.089941-0.09135 0.21692-0.13302 0.31988-0.13642zm7.463 0c0.10295 0.0034 0.23045 0.04508 0.32038 0.13642l-0.0021-0.0036 3.3924 3.3517-3.3827 3.3398c-0.1586 0.17123-0.41274 0.2217-0.6015 0.17777-0.18875-0.04394-0.338-0.14918-0.46095-0.27543-0.12296-0.12625-0.22235-0.27657-0.26561-0.46095-0.04327-0.18439-0.0065-0.4323 0.1602-0.59583l2.1657-2.1662-2.1756-2.1776c-0.0909-0.08208-0.14833-0.20665-0.15813-0.31625-0.0098-0.10961 0.01412-0.20218 0.04651-0.28318 0.06477-0.162 0.16849-0.29014 0.28731-0.40409 0.11883-0.11396 0.25263-0.21039 0.40825-0.2718 0.07781-0.03071 0.16267-0.05404 0.26561-0.05064z" stroke-width=".26458"/>
  <g>
   <path transform="scale(.26458)" d="m37.109 44.859c-0.061791 0.002268-0.054726 0.001765-0.060547 0.007813l-0.005859 0.007812-11.598 11.457 11.604 11.455 0.007813 0.007813c0.19086 0.20606 0.3632 0.23497 0.64258 0.16992 0.27938-0.065035 0.62621-0.271 0.9082-0.56055 0.28202-0.28956 0.49104-0.65689 0.56055-0.95312 0.069505-0.29622 0.041953-0.477-0.13281-0.64844h-0.007812l-0.007813-0.015625-0.013672-0.007812-9.375-9.375 9.4863-9.4844 0.005859-0.007813c0.034908-0.031407 0.032574-0.03509 0.037109-0.08789 0.004687-0.052762-0.005416-0.15606-0.058594-0.28906-0.10636-0.26602-0.36776-0.62491-0.68555-0.92969-0.31779-0.3048-0.6937-0.55792-0.98242-0.67188-0.14436-0.056807-0.26243-0.076268-0.32422-0.074219z"/>
   <path transform="scale(.26458)" d="m55.785 44.33c-0.20495-0.02544-0.40132-0.02415-0.56836 0.0059-0.33408 0.06-0.51837 0.1839-0.62109 0.43555-2.4613 5.8462-6.4537 15.471-9.4121 22.566-0.107 0.26908-0.06343 0.47322 0.10352 0.71484 0.16693 0.24163 0.48737 0.47803 0.85742 0.62891 0.37006 0.15107 0.78566 0.21483 1.1211 0.16211 0.33546-0.05274 0.57417-0.19287 0.73828-0.46484 3.1318-7.5116 6.2554-15.027 9.3906-22.537 0.14627-0.29425 0.10564-0.47404-0.06641-0.7168-0.17205-0.24277-0.52052-0.4906-0.92383-0.64258-0.20166-0.07589-0.41419-0.12691-0.61914-0.15234z" color="#000000" color-rendering="auto" dominant-baseline="auto" image-rendering="auto" shape-rendering="auto" solid-color="#000000" style="font-feature-settings:normal;font-variant-alternates:normal;font-variant-caps:normal;font-variant-ligatures:normal;font-variant-numeric:normal;font-variant-position:normal;isolation:auto;mix-blend-mode:normal;shape-padding:0;text-decoration-color:#000000;text-decoration-line:none;text-decoration-style:solid;text-indent:0;text-orientation:mixed;text-transform:none;white-space:normal"/>
   <path transform="scale(.26458)" d="m65.197 44.859c-0.061796-0.002041-0.18183 0.017223-0.32617 0.074219-0.28872 0.11397-0.66269 0.36709-0.98047 0.67188-0.31779 0.30479-0.58114 0.66368-0.6875 0.92969-0.053027 0.133-0.063129 0.23626-0.058594 0.28906 0.004725 0.052686 0.01015 0.05652 0.044922 0.08789l0.007813 0.007813 9.4785 9.4863-9.375 9.375-0.023437 0.021484c-0.17465 0.17142-0.21013 0.35415-0.14062 0.65039 0.069513 0.29624 0.28051 0.66162 0.5625 0.95117 0.282 0.28954 0.63468 0.4955 0.91406 0.56055 0.27938 0.065045 0.4439 0.036213 0.63477-0.16992l0.007812-0.00586 11.605-11.457-11.598-11.457-0.007813-0.007812c-0.005858-0.006104 0.003202-0.005768-0.058593-0.007813z"/>
  </g>
 </g>
</svg>
