<?xml version="1.0" encoding="UTF-8"?>
<!-- Created with Inkscape (http://www.inkscape.org/) -->
<svg width="26.754mm" height="26.754mm" version="1.1" viewBox="0 0 26.754 26.754" xmlns="http://www.w3.org/2000/svg" xmlns:cc="http://creativecommons.org/ns#" xmlns:dc="http://purl.org/dc/elements/1.1/" xmlns:rdf="http://www.w3.org/1999/02/22-rdf-syntax-ns#">
 <metadata>
  <rdf:RDF>
   <cc:Work rdf:about="">
    <dc:format>image/svg+xml</dc:format>
    <dc:type rdf:resource="http://purl.org/dc/dcmitype/StillImage"/>
    <dc:title/>
   </cc:Work>
  </rdf:RDF>
 </metadata>
 <g transform="translate(-94.724 -123.36)">
  <rect x="94.724" y="123.36" width="26.754" height="26.754" ry="3.087" fill="#dce5ea" stroke-width="0"/>
  <g transform="translate(14.213 -41.383)" stroke-linecap="square" stroke-opacity=".65161">
   <g transform="matrix(.057631 0 0 .057631 84.664 169.05)" clip-path="url(#clip2)" fill="#a1b8c7" opacity=".5" stroke="#000" stroke-width="15.617">
    <g fill="#a1b8c7" stroke="#000" stroke-linecap="square" stroke-opacity=".65161" stroke-width="15.617">
     <path transform="matrix(4.591 0 0 4.591 -1162.8 -93.105)" d="m287.98 11.568c-6.2037 0-11.297 5.0859-11.297 11.291 0 1.2398 0.27026 2.4043 0.64453 3.5176l-14.643 10.641c-1.8152-1.251-3.9192-2.1289-6.2812-2.1289-6.2037 0-11.291 5.0854-11.291 11.289 0 6.1429 4.9914 11.181 11.113 11.279l5.4414 16.746c-2.8867 2.0492-4.8399 5.3409-4.8398 9.1289 0 6.2037 5.0862 11.293 11.291 11.293 4.9263 0 9.0055-3.2629 10.537-7.6973h18.59c1.4651 4.5456 5.5884 7.9199 10.596 7.9199 6.2052 0 11.289-5.0912 11.289-11.295 0-3.8026-1.9658-7.1022-4.8711-9.1484l5.7266-17.623c6.1085-0.11449 11.082-5.1426 11.082-11.275 0-6.2037-5.0854-11.291-11.289-11.291-2.6056 0-4.899 1.0548-6.8144 2.5508l-14.328-10.412c0.36934-1.1066 0.63477-2.2622 0.63477-3.4941 0-6.2037-5.0873-11.291-11.291-11.291zm6.6797 20.227 14.373 10.445c-0.32127 1.0398-0.55078 2.1211-0.55078 3.2656 0 0.1022 0.0222 0.18685 0.0254 0.28711l-11.277 3.2578c-1.3639-2.1506-3.4019-3.7822-5.8516-4.625l-6e-3 -10.938c1.2029-0.38742 2.2969-0.9506 3.2871-1.6934zm-13.342 0.01367c0.99757 0.74439 2.0991 1.3086 3.3106 1.6934l0.01 10.783c-2.6136 0.76423-4.8025 2.417-6.2598 4.6484l-10.721-3.0898c-0.0386-1.258-0.32386-2.4415-0.7461-3.5664zm-16.609 19.131-0.0664 0.4668-0.11133-0.17773c0.06-0.09596 0.1211-0.19088 0.17774-0.28906zm46.104 1.2051c0.76511 1.0278 1.6796 1.898 2.7422 2.6152l-5.6875 17.506c-9e-3 -3.5e-5 -0.0161-2e-3 -0.0254-2e-3 -1.2073 0-2.3432 0.25388-3.4316 0.60938l-7.7773-11.174c1.3241-1.757 2.2591-3.8154 2.3691-6.1465zm-45.109 0.14844 10.807 3.1172c0.0879 2.5555 1.0457 4.8806 2.5684 6.7344l-7.3691 10.566c-1.1355-0.38942-2.3236-0.66797-3.5898-0.66797-0.0228 0-0.0418 0.0057-0.0645 0.0059l-5.4121-16.656c1.222-0.83218 2.2452-1.8661 3.0606-3.0996zm25.508 13.416 7.7363 11.113c-0.76709 1.0111-1.3465 2.1328-1.7402 3.3672h-18.391c-0.37409-1.2624-0.94077-2.4122-1.7031-3.4492l7.5937-10.889c0.97803 0.27854 1.9884 0.47656 3.0508 0.47656 1.2151 0 2.3587-0.25892 3.4531-0.61914z" color="#000000" color-rendering="auto" dominant-baseline="auto" fill="#a1b8c7" image-rendering="auto" opacity="1" shape-rendering="auto" solid-color="#000000" stroke="none" style="font-feature-settings:normal;font-variant-alternates:normal;font-variant-caps:normal;font-variant-ligatures:normal;font-variant-numeric:normal;font-variant-position:normal;isolation:auto;mix-blend-mode:normal;shape-padding:0;text-decoration-color:#000000;text-decoration-line:none;text-decoration-style:solid;text-indent:0;text-orientation:mixed;text-transform:none;white-space:normal"/>
     <title>Strecke b_3</title>
     <desc>Strecke b_3: Strecke B, C</desc>
    </g>
    <!-- drawing style -->
   </g>
   <g transform="matrix(.057631 0 0 .057631 84.664 169.05)" clip-path="url(#clip2)" fill="#fff" stroke="#fff" stroke-width="17.352">
    <g fill="#fff" stroke="#fff" stroke-linecap="square" stroke-opacity=".65161" stroke-width="17.352">
     <path transform="matrix(4.0567 0 0 4.0567 -1740 -2537)" d="m468.19 617.45c-5.9726 0-10.859 4.879-10.859 10.852 0 1.6827 0.3991 3.272 1.0898 4.6973l-18.744 13.621c-1.9236-1.7215-4.4524-2.7793-7.2227-2.7793-5.9726 0-10.852 4.879-10.852 10.852s4.879 10.857 10.852 10.857c0.39976 0 0.7928-0.0257 1.1816-0.0684l7.0371 21.658c-3.4485 1.8218-5.8125 5.4442-5.8125 9.5996 0 5.9726 4.879 10.857 10.852 10.857 5.2382 0 9.6391-3.7574 10.643-8.7109h23.633c0.90478 5.0752 5.3546 8.9629 10.68 8.9629 5.9726 0 10.852-4.8868 10.852-10.859 0-4.1709-2.382-7.8022-5.8516-9.6172l7.3594-22.646c0.37865 0.0404 0.76148 0.0645 1.1504 0.0645 5.9726 0 10.852-4.8868 10.852-10.859s-4.879-10.852-10.852-10.852c-3.0392 0-5.7936 1.2689-7.7695 3.2969l-18.443-13.4c0.683-1.4195 1.0781-3.0001 1.0781-4.6738 0-5.9726-4.879-10.852-10.852-10.852zm7.5762 18.6 18.512 13.451c-0.61187 1.3553-0.96093 2.852-0.96093 4.4297 0 0.59252 0.0618 1.1709 0.15429 1.7383l-15.678 4.5254c-1.4297-3.092-4.2646-5.415-7.6816-6.1152l-0.01-15.1c2.181-0.39262 4.1399-1.4367 5.6641-2.9297zm-15.139 0.0176c1.5338 1.4938 3.504 2.5355 5.6953 2.9199l8e-3 15.006c-3.6111 0.54287-6.6456 2.8731-8.1738 6.0606l-14.898-4.2949c0.0347-0.35137 0.0547-0.70631 0.0547-1.0664 0-1.8441-0.46926-3.5833-1.2891-5.1074zm34.094 23.174c1.0763 1.9036 2.7099 3.4471 4.6758 4.4199l-7.3359 22.578c-0.45748-0.0593-0.92145-0.10156-1.3945-0.10156-1.6574 0-3.224 0.38615-4.6328 1.0566l-10.361-14.883c1.9287-1.9624 3.1249-4.6474 3.125-7.5996 0-0.29086-0.0222-0.57609-0.0449-0.86133zm-52.5 0.15039 14.918 4.3008c-0.0317 0.33628-0.0527 0.67525-0.0527 1.0195 0 3.1195 1.3404 5.9346 3.4629 7.9199l-10.037 14.393c-1.4508-0.72104-3.078-1.1367-4.8008-1.1367-0.48847 0-0.96574 0.0442-1.4375 0.10742l-7.0137-21.586c2.1584-1.0756 3.908-2.8463 4.9609-5.0176zm30.371 15.111 10.357 14.877c-1.5166 1.5355-2.5736 3.5184-2.9648 5.7266h-23.553c-0.34314-2.2453-1.3728-4.2666-2.877-5.8418l10.152-14.559c1.3016 0.55574 2.7311 0.86524 4.2305 0.86524 1.6651 0 3.2404-0.39115 4.6543-1.0684z" color="#000000" color-rendering="auto" dominant-baseline="auto" fill="#fff" image-rendering="auto" shape-rendering="auto" solid-color="#000000" stroke="none" style="font-feature-settings:normal;font-variant-alternates:normal;font-variant-caps:normal;font-variant-ligatures:normal;font-variant-numeric:normal;font-variant-position:normal;isolation:auto;mix-blend-mode:normal;shape-padding:0;text-decoration-color:#000000;text-decoration-line:none;text-decoration-style:solid;text-indent:0;text-orientation:mixed;text-transform:none;white-space:normal"/>
     <title>Strecke b_3</title>
     <desc>Strecke b_3: Strecke B, C</desc>
    </g>
    <!-- drawing style -->
   </g>
  </g>
 </g>
</svg>
