<?xml version="1.0" encoding="UTF-8"?>
<!-- Created with Inkscape (http://www.inkscape.org/) -->
<svg width="435.46mm" height="261.28mm" version="1.1" viewBox="0 0 435.46 261.28" xmlns="http://www.w3.org/2000/svg" xmlns:cc="http://creativecommons.org/ns#" xmlns:dc="http://purl.org/dc/elements/1.1/" xmlns:rdf="http://www.w3.org/1999/02/22-rdf-syntax-ns#" xmlns:xlink="http://www.w3.org/1999/xlink">
 <defs>
  <radialGradient id="radialGradient2526" cx="104.32" cy="149.36" r="218.03" gradientTransform="matrix(.58248 0 2.0476e-8 1.9059 43.471 -135.29)" gradientUnits="userSpaceOnUse">
   <stop stop-color="#054b5f" offset="0"/>
   <stop stop-color="#02151c" offset="1"/>
  </radialGradient>
  <filter id="filter10383" x="-.0048" y="-.008" width="1.0096" height="1.016" color-interpolation-filters="sRGB">
   <feGaussianBlur stdDeviation="3.2916577"/>
  </filter>
 </defs>
 <metadata>
  <rdf:RDF>
   <cc:Work rdf:about="">
    <dc:format>image/svg+xml</dc:format>
    <dc:type rdf:resource="http://purl.org/dc/dcmitype/StillImage"/>
    <dc:title/>
   </cc:Work>
  </rdf:RDF>
 </metadata>
 <g transform="translate(113.41 -18.725)">
  <path d="m-113.41 18.725h435.46v261.28h-435.46z" fill="url(#radialGradient2526)"/>
  <path transform="matrix(.26458 0 0 .26458 -113.41 18.725)" d="m995.97 0c-2.6217 10.208 0.11927 21.754 10.236 27.822-8.4326 28.77-14.943 60.094-24.561 87.289-13.261-3.1381-23.138 16.96-33.467 3.459-35.51-23.907-74.634-46.172-107.93-71.084 4.153-23.448-31.909-34.581-41.686-12.867-4.541 8.292-2.8122 19.371 3.9785 25.926-9.0978 17.091-13.023 40.876-24.736 54.574-21.698 3.3075-18.459 38.438 3.4844 37.686 15.789 1.1438 25.816-20.095 14.734-31.484 9.3474-16.927 12.767-42.006 25.35-54.479 16.625-9.2247 29.176 13.435 44.348 18.842 26.528 18.717 59.377 35.161 82.111 55.242-6.2337 11.529 9.3362 26.408-6.5762 31.998-21.965 15.918-42.637 39.373-65.316 51.102-20.834-7.3652-34.344 25.537-14.424 34.996 13.443 8.2534 31.939-5.8297 27.639-20.965 24.474-18.429 48.676-43.569 73.309-58.051 23.178 17.103 59.192-4.9779 54.582-33.352 77.018-27.316 155.45-59.106 231.59-83.643 9.9926 7.2378 6.5868 15.306 0.3535 25.395-8.949 16.94-14.288 39.576-25.305 53.252-17.16-0.43715-30.13 19.454-22.758 34.959-37.357 34.119-74.581 70.158-112.02 103.09-26.148-19.731-67.327 5.1042-62.17 37.418 1.7695 22.081 24.379 39.387 46.158 35.227 7.2281 20.652 18.43 42.348 23.312 62.385-22.274 17.119-4.2849 56.705 23.356 51.023 10.749 0.36056 17.045-15.674 26.893-3.5098 15.856 10.58 40.291 15.82 51.607 29.213 0.6186 14.165 17.44 24.054 30.08 17.539 26.341 23.356 52.682 46.714 79.023 70.07-35.416-6.0604-75.467-7.7556-108.03-16.506-1.956-31.066-41.549-49.83-66.791-31.588-12.89-14.775-31.636-28.745-41.051-43.996 14.559-25.316-16.949-56.74-42.217-42.586-24.25 10.265-22.895 48.956 1.83 57.66-7.2382 59.503-13.974 119.45-21.525 178.68-26.251 4.1828-27.722 45.494-1.8594 51.578 15.195 5.0486 32.773-6.6734 34.037-22.611 41.684-7.9654 85.174-20.932 125.77-25.873 7.3966 7.7829 19.516 7.2891 16.982 22.248 6.6405 31.168 17.96 63.925 21.779 94.135-19.422 14.911 1.4305 48.402 23.475 37.049 19.99-7.5175 15.659-40.171-5.6093-42.188-7.9299-36.068-20.232-73.603-25.504-108.78 10.915-6.6049 2.3627-23.473 17.041-25.539 27.304-15.872 54.819-34.389 81.994-48.656 19.689 17.359 52.804-7.553 40.578-31.41-5.672-14.026-24.356-20.29-37.279-12.357-26.377-24.715-57.242-48.127-80.867-73.641 0.6065-9.9284-2.2673-18.09 9.6035-23.748 37.64-37.962 74.951-77.889 112.79-114.63 24.82 13.843 53.586-19.779 36.008-42.158-6.4604-9.5986-19.072-14.407-30.279-11.545-5.3975-15.949-28.022-33.749-24.029-48.67 22.387-23.802 1.83-66.984-30.531-65.152-11.374-2.4434-21.599 10.355-29.926 8.5488-8.9397-10.591-33.156-14.623-34.406-28.457 2.5007-13.482-15.49-21.915-1.7402-34.164 9.1107-18.189 15.668-41.099 26.27-56.531 30.525 5.9477 54.807-33.138 35.906-57.852-16.054-26.357-60.816-18.374-66.822 11.879-0.8146 10.512-1.1835 18.345-15.023 18.805-72.235 26.108-145.13 54.232-216.95 79.086-4.5808-7.9253-17.993-10.003-8.7344-21.457 7.6088-25.094 12.736-53.162 21.852-76.449 16.977-1.0096 24.824-17.972 21.965-32.191h-21.951c11.407 4.7613-5.4691 22.218-9.9434 7.6914-0.7345-3.1398 1.0272-6.2838 3.7149-7.6914h-21.723zm569.46 5.0977c-0.455-0.01057-0.9152-0.0075372-1.375 0.0097657-16.883-0.43861-29.686 19.124-22.469 34.4-37.608 34.491-75.082 70.821-112.77 104.17-26.164-19.705-67.336 5.1456-62.17 37.463 1.7648 22.232 24.662 39.578 46.543 35.189 7.3288 20.423 18.732 41.886 23.672 61.699-22.269 17.365-4.1248 57.097 23.69 51.422 10.758 0.39228 17.157-15.665 26.934-3.3906 16.192 10.73 40.26 16.618 52.223 29.936 0.6382 23.262 37.869 25.097 40.807 2.0234 3.1207-12.442-12.737-20.734-0.3243-32.4 11.114-28.338 21.153-58.232 32.922-85.621 22.303 0.91997 33.205-30.883 15.356-43.967 6.5434-15.484 10.877-34.451 17.369-50.016v-35.471c-7.1744-3.4114-12.404-10.305-11.529-19.898 0.241-7.6227 5.0021-14.414 11.529-17.889v-20.189c-6.742 1.6992-13.061 5.0658-18.057 9.9609-11.24-10.513-32.613-16.814-38.732-29.439 2.1415-14.112-9.4881-27.666-23.613-27.994zm-1538.3 16.066c-23.287 0.091253-33.293 34.362-13.289 46.793-5.1674 15.922-9.1941 33.385-13.789 50.08v57.336c7.8004 6.809 7.6452 21.184 0 28.09v20.975c15.689-5.5931 27.908-21.645 25.135-39.115 77.03-26.893 155.39-57.809 231.59-82.191 9.941 7.3442 6.9457 15.393 0.53321 25.604-8.7448 17.032-14.283 39.104-24.857 53.258-16.821-0.41942-29.605 18.968-22.543 34.244-37.8 34.236-75.487 70.089-113.36 103.32-25.783-19.668-66.648 4.878-61.52 36.857 1.7545 21.916 24.318 39.041 45.9 34.719 7.5536 20.79 19.093 42.59 24.264 62.775-22.215 17.414-4.0162 57.071 23.777 51.377 10.654 0.19767 17.167-15.232 26.795-3.252 15.857 9.9935 37.583 16.582 50.162 28.477-0.92872 23.979 37.034 29.052 42.445 5.6836 6.2461-12.406-12.214-21.256-1.7598-32.24 11.559-29.754 22.335-60.622 34.373-89.693 21.817 0.88071 32.472-30.226 15.014-43.029 9.85-26.637 17.546-56.017 28.688-81.01 24.511-1.517 25.799-40.675 1.4531-43.818-11.074-1.4984-20.243 7.824-28.547-5.4121-11.736-10.922-33.426-17.814-40.193-30.736 4.1966-12.531-13.823-21.001-2.9883-31.82 9.4518-19.435 16.608-43.056 27.408-60.033 10.791 3.5373 23.367-9.9113 28.344 5.4023 7.8308 13.863 28.515 23.218 22.332 40.602-1.0108 15.389 20.595 15.055 18.688 29.527 2.596 20.781 14.092 45.798 11.166 63.949-30.572 14.643-26.11 63.923 5.7949 73.672 20.419 7.9913 45.512-4.1074 52.115-24.973 58.102 7.1249 116.8 13.573 174.53 21.119 4.2329 26.416 45.836 27.897 51.932 1.8457 9.2153-25.531-27.428-46.717-45-26.221-8.7921 15.996-31.444-0.40727-46.229 2.2012-37.982-4.5355-75.964-9.07-113.95-13.605 21.77-3.069 44.949-8.8781 65.891-10.336 11.819 26.466 55.454 19.234 58.037-9.6992 5.6814-28.047-33.688-48.034-52.684-26.088-9.0865 6.5044-4.5761 23.535-19.801 20.045-13.908 1.1659-70.509 15.536-31.723 0.4043 71.06-31.93 142.59-67.242 213.36-97.064 17.13 14.954 44.16-9.7622 30.125-28.178-10.232-17.151-39.549-8.0216-38.207 11.914l-228.57 105.26c47.572-38.691 94.963-79.625 142.65-116.92 23.007 14.665 50.407-18.823 31.602-38.498-15.648-20.827-51.877-1.9293-43.811 22.811-11.975 16.709-35.639 29.979-51.77 45.469-30.364 25.077-60.729 50.155-91.094 75.232 39.044-54.227 76.721-111.71 116.61-163.92 22.791 4.2088 32.422-31.603 10.629-39.434-17.112-8.3991-36.44 13.453-25.807 29.379-40.534 57.655-81.068 115.31-121.6 172.96 16.273-46.057 29.436-96.272 47.619-139.78 29.181 0.02834 39.273-43.954 12.652-56.428-24.232-14.952-55.736 15.953-40.902 40.461 6.2804 8.8045 14.627 13.816 5.4844 25.514-15.484 45.744-29.8 93.206-46.004 137.89-9.5757-12.855-8.689-38.348-14.766-55.432-4.3626-10.769-4.8413-18.733 2.6016-26.891 7.0434-14.793-8.6746-32.822-24.295-27.807-8.2243-13.518-26.909-26.714-30.25-40.379 18.678-24.805-6.1497-63.442-36.422-56.967-18.895 2.5581-33.488 21.63-30.828 40.549-77.017 27.104-155.04 57.232-231.43 82.449-4.5222-8.3132-18.724-10.471-9.2949-22.121 7.7472-24.143 12.682-51.701 22.08-73.838 26.814-1.5816 30.701-43.637 4.6582-50.158-2.6036-0.77937-5.3182-1.2011-8.0391-1.1445-0.37626-0.015999-0.74951-0.022933-1.1191-0.021485zm1252.7 2.0059c22.816 0.034016 21.788 37.506-0.9687 36.32-21.675 1.2118-24.419-34.013-2.7676-36.135 1.235-0.19763 2.4885-0.22875 3.7363-0.18555zm284.52 0.96289c0.2329 1.88e-4 0.4698 0.016222 0.707 0.048829 12.832 2.6324-2.21 19.429-6.2461 6.9551-0.8574-3.48 2.0451-7.0067 5.5391-7.0039zm-1535.9 16.08c0.27017-1.57e-4 0.54308 0.017425 0.81836 0.054687 14.958 3.055-2.6065 22.613-7.2422 8.0605-0.98529-4.0388 2.3713-8.1129 6.4238-8.1152zm790.12 1.5527c11.046 9.1423-12.692 6.4183 0 0zm760.29 8.2676c13.1 8.8829 26.2 17.766 39.301 26.648-7.2769 9.745 4.9666 27.276-12.49 27.945-26.954 17.577-40.957 15.553-33.43-19.055 3.6714-11.102-7.1287-30.625 6.6191-35.539zm-1034 10.32c5.9237 4.4207-6.6317 3.3132 0 0zm1010.6 2.0293c-0.2782 21.599-0.5559 43.199-0.834 64.799-12.999 2.0677-61.963 36.35-41.842 8.752 14.225-24.517 28.45-49.034 42.676-73.551zm-1268.9 1.6719c0.37646-0.007795 0.75967-0.006507 1.1484 0.003906 21.819-0.073474 21.926 35.579 0.0957 35.617-24.249 0.918-24.961-35.13-1.2441-35.621zm164.26 0.38476c0.52037-0.008297 1.0518 0.02434 1.5898 0.099609 21.952 3.4834 0.73233 35.222-10.873 16.203-4.0867-7.0238 1.4776-16.178 9.2832-16.303zm1077.4 10.766-41.604 71.715c-12.237-2.9887-18.132 10.789-25.426 14.73-16.477 8.9569-28.498-6.8268-9.3105-15.438l76.34-71.008zm-935.51 37.633c0.25317 2.7e-4 0.5099 0.01741 0.76758 0.05273 14.033 2.9148-2.5049 21.21-6.8223 7.5449-0.91762-3.7896 2.2571-7.6017 6.0547-7.5977zm1021.5 7.3496c6.9021 0.20936-29.421 30.734-36.256 40.578-2.2616 2.3633-4.5235 4.7266-6.7851 7.0898-8.8786-29.75 14.868-37.947 38.408-46.279 2.2861-0.98319 3.7852-1.4144 4.6328-1.3887zm20.318 6.2188c-8.6045 20.508-13.114 47.272-24.744 64.148-13.439 1.2344-23.986 14.949-21.607 28.25-24.804 26.897-22.861-23.316-9.4922-34.094 18.616-19.423 37.222-38.938 55.844-58.305zm-652.62 7.7305c0.30265 0.00719 0.60522 0.0242 0.91015 0.05078 39.355 7.1693-8.5028 56.512-17.178 18.055-1.2715-9.3802 6.8852-18.328 16.268-18.105zm569.57 12.453c8.8305 0.34969-1.197 31.71 2.3652 39.359-13.97 7.0101-36.027 56.169-42.588 24.555-3.3292-12.994-16.646-25.398-6.7969-37.502 3.4181-14.71 28.056-12.987 38.795-22.133 3.7476-3.0883 6.3919-4.3519 8.2246-4.2793zm-863.94 4.2793c6.6761 5.2136-7.5083 3.9163 0 0zm718.81 5.0254c0.4001-4.5e-4 0.8015 0.00935 1.2011 0.03125 24.441-0.07052 26.224 39.21 2.1621 41.672-23.413 5.1051-34-31.903-11.537-40.039 2.5758-1.1092 5.3727-1.6609 8.1739-1.6641zm-182.36 4.793c0.2472 0.00262 0.4985 0.02345 0.75 0.06055 13.582 2.9022-2.5183 20.577-6.6894 7.3144-0.8737-3.6999 2.2321-7.4143 5.9394-7.375zm-870.87 0.46484c5.5637 4.4329-6.3127 3.301 0 0zm1131.7 4.7168c5.6327 4.5075-6.3432 3.2198 0 0zm-17.717 12.336c12.755 11.936-4.4683 31.324-3.3848 46.424-5.2219 9.9365-6.4154 67.14-15.746 32.166-2.639-15.736-21.401-35.895-15.732-49.328 13.757-6.7499 8.1261-30.95 25.31-28.156 3.1705-0.34262 6.4213-0.84692 9.5528-1.1055zm-228.4 9.0137c12.766 8.7771 25.531 17.553 38.297 26.33-7.1785 9.6293 4.9272 26.862-12.445 27.51-26.942 17.95-40.164 15.072-32.752-19.127 3.581-10.951-7.02-30.141 6.9004-34.713zm-23.652 12.365c-0.3198 21.353-0.6392 42.705-0.959 64.059-12.606 1.9282-61.416 36.535-40.926 8.5918l41.885-72.65zm-982.34 1.4414c0.23135 6.6e-4 0.46595 0.01603 0.70117 0.04883 12.869 2.6639-2.3269 19.448-6.2461 6.8945-0.8526-3.4657 2.0747-6.9532 5.5449-6.9434zm1255.1 0.04883c1.4094 0.11203 3.0492 2.8592 5.0215 9.416 3.7175 9.1869 7.4348 18.374 11.152 27.561-13.824 12.394-42.85 53.496-28.338 12.369 4.6459-9.6767 6.6347-49.785 12.164-49.346zm-174.27 6.7695c0.4121-0.00474 0.8296-0.00141 1.2539 0.01367 26.488 0.11259 24.294 43.857-2.207 41.117-26.614-1.8014-25.008-40.832 0.9531-41.131zm299.07 1.5742c0.2328 3.5e-4 0.468 0.01606 0.705 0.04883 12.821 2.6407-2.2254 19.435-6.2441 6.9473-0.8542-3.4774 2.0473-7.0013 5.5391-6.9961zm-59.75 2.0098c3.9665-0.33995-2.1086 20.233 0.3164 26.408-28.852 24.638-35.326-0.17613-8.3184-17.789 4.2404-6.0684 6.6798-8.5058 8.002-8.6192zm-364.39 0.01172c-13.876 24.075-27.75 48.148-41.625 72.223-15.504-3.613-18.408 18.158-32.387 15.133-22.241 5.5037-8.5299-16.787 3.1172-21.639l70.894-65.717zm-942.04 16.328c1.7818 0.04349 4.0354 1.0957 6.873 3.5312 15.663 10.779 31.325 21.559 46.988 32.338-1.9099 13.915-25.617 11.929-34.982 20.494-31.038 24.415-26.252-5.4018-24.762-30.227-0.71481-7.5426-1.8385-26.325 5.8828-26.137zm1350 6.0898c-8.6838 23.901-18.059 47.992-27.01 71.967 5.3564-19.98-10.47-52.745 10.707-63.178 5.4305-2.9125 10.89-5.9972 16.303-8.7891zm-1372.7 5.293c-0.3445 21.331-0.68871 42.663-1.0332 63.994-12.966 2.1451-61.946 36.519-41.74 8.9766 14.258-24.324 28.516-48.647 42.773-72.971zm-27.039 12.365-41.789 71.279c-9.7308-1.294-19.722 5.1772-22.545 14.57-12.148 6.6299-34.938-0.77826-15.539-12.594 26.624-24.419 53.249-48.837 79.873-73.256zm337.63 3.9805c0.58673-0.01267 1.1867 0.0211 1.7969 0.10743 22.793 3.2171 2.4591 37.11-11.109 18.412-5.3698-7.4698 0.51148-18.329 9.3125-18.52zm737.64 1.4883c7.8169-0.43302-29.064 30.736-36.008 40.738-1.7884 1.8787-3.5769 3.7561-5.3653 5.6348-9.0286-29.558 15.612-36.937 38.377-45.551 1.3499-0.52272 2.3336-0.78557 2.9961-0.82226zm238.52 0.20312c1.0941 0.06286 1.9565 0.81091 2.334 2.6016-20.874 16.697-8.242-2.941-2.334-2.6016zm42.477 0.23242c-0.2336 18.115-0.4674 36.231-0.7012 54.346-4.563-19.835-32.178-47.937 0.7012-54.346zm-259.66 4.9453c-8.6376 20.079-12.103 46.895-23.793 62.998-14.096 1.2794-25.023 15.778-22.352 29.676-24.872 26.882-22.104-24.212-9.1152-34.721 18.424-19.291 36.813-38.791 55.26-57.953zm-970.9 2.7324c11.044 9.096-12.656 6.4294 0 0zm1003.9 0.92968c6.8428 15.811 24.348 32.359 25.217 47.746-5.6346 6.9392-2.8848 18.982-16.346 15.916-13.151-0.6737-31.765 12.204-42.4 5.3594-11.189-10.322 7.8756-27.336 7.6661-40.209 5.4042-11.797 3.8279-30.931 20.756-27.49 1.7383-0.30705 3.4242-0.80393 5.1074-1.3223zm-944.61 5.9062c0.46355-0.01111 0.93494-0.01126 1.4141 0 25.642-0.01247 26.551 41.703 0.98242 42.865-29.911 2.2344-31.6-42.165-2.3965-42.865zm1137.6 3.8008c8.1299 20.098 16.259 40.196 24.389 60.295-18.13-11.455-43.843-19.043-57.976-32.531-3.6822-18.011 23.46-17.594 33.588-27.764zm-308.03 7.2402c8.406 0.44231-1.5935 31.731 1.9961 38.623-13.823 6.9032-35.823 56.217-42.178 24.377-3.3284-12.702-15.856-24.764-6.418-36.607 3.5607-14.557 27.994-13.039 38.701-22.189 3.6163-3.0597 6.1538-4.2949 7.8984-4.2031zm244.47 6.7285c0.5671-0.01554 1.1513 0.01902 1.7481 0.10938 18.525 2.1466 4.8372 30.948-8.5489 17.834-6.6089-6.1238-1.7053-17.71 6.8008-17.943zm-389.35 2.207c0.4298-0.00373 0.8653 0.00217 1.3085 0.01953 26.224 0.06731 25.153 43.258-1.1367 41.887-27.729-0.237-27.253-41.671-0.1718-41.906zm-785.82 4.668c7.7527-0.35526-29.049 30.78-35.973 40.799-1.814 1.9104-3.6274 3.822-5.4414 5.7324-8.9327-29.609 15.473-37.193 38.438-45.73 1.3423-0.51448 2.3196-0.77068 2.9766-0.80079zm20.83 5.791c-7.19 21.12-14.38 42.238-21.57 63.357-13.975-0.01512-25.74 13.993-23.238 27.756-24.937 27.364-23.792-21.801-10.035-33.35 18.281-19.255 36.563-38.509 54.844-57.764zm843.84 0.25781c4.5935 3.7377-5.2343 2.5667 0 0zm-524.32 11.527c0.29506 0.00173 0.59162 0.02244 0.89063 0.0625 18.024 4.075-4.4712 26.576-8.5547 8.5547-0.61297-4.4867 3.2383-8.6431 7.6641-8.6172zm504.23 0.63476c1.0806 0.01979 2.1066 0.13926 3.0547 0.40235 11.205 11.849-5.4852 30.775-4.5352 45.406-5.5243 13.455-7.825 69.091-17.514 29.498-1.9163-14.814-20.851-34.373-13.82-46.662 10.68-5.6645 10.263-22.508 17.768-26.951 4.6726-0.00166 10.364-1.7791 15.047-1.6934zm249.18 6.0352c0.4776-0.01289 0.9674 0.01278 1.4648 0.08008 18.504 2.5421 2.1557 30.118-8.9628 15.016-4.379-6.0675 0.334-14.902 7.498-15.096zm-1154.8 1.7207c9.0987 0.40796-1.4143 28.275 2.2461 38.871-14.061 7.2656-36.115 56.51-42.818 25.131-3.7232-12.912-16.012-25.053-6.1016-37 1.7491-14.755 25.638-12.459 35.334-21.221 5.4272-4.2054 9.0206-5.8852 11.34-5.7812zm-145.34 9.1973c0.42882-0.0012 0.86399 0.00898 1.3066 0.02929 24.892 0.096 24.903 40.849-0.080078 40.857-27.81 1.2833-28.242-40.811-1.2266-40.887zm1073.8 5.543c1.4188 0.12512 3.049 2.8865 4.9843 9.457 3.5772 8.9614 7.1533 17.923 10.73 26.885-13.805 12.44-43.128 53.95-28.354 12.85 4.7558-9.6217 7.0726-49.682 12.639-49.191zm-995.76 4.4473c0.19013-0.01672 0.38296-0.01008 0.57031 0.00391 6.2729 3.9534-6.2288 5.4558-1.1211 0.13281 0.17416-0.08013 0.36064-0.11999 0.55078-0.13672zm1120.2 2.4883c0.2692 5e-5 0.5403 0.01718 0.8145 0.05469 14.881 3.0156-2.5547 22.51-7.2032 8.0391-0.9973-4.0187 2.3513-8.0944 6.3887-8.0938zm69.469 1.4824c5.7267-0.10784 6.003 2.7398-5.6778 12.076l-94.143 96.383c10.52-25.494 19.165-53.759 30.834-77.555 12.283 0.08315 23.622-9.8768 25.076-22.078 9.683-0.25481 34.366-8.6464 43.91-8.8262zm-129.65 1.3789c3.8119-0.00166-2.1291 21.323 0.2324 26.928-28.962 25.093-34.498-1.3912-7.9648-18.445 4.1064-6.1119 6.4617-8.4819 7.7324-8.4824zm348.19 5.6524c5.61 4.4704-6.2934 3.3262 0 0zm-1426.1 1.75c13.677 12.031-3.6101 31.65-2.668 47.137-5.1058 9.6982-6.0565 66.196-15.363 31.037-3.0726-16.123-21.281-36.383-16.436-50.322 13.414-6.5014 7.7937-30.392 24.998-26.977 3.0909-0.19163 6.5114-0.9351 9.4688-0.875zm1121.1 15.555c-7.4964 23.531-18.165 47.858-26.863 71.691 5.4156-19.891-10.38-52.576 10.812-62.951 5.3485-2.9042 10.711-5.8969 16.051-8.7402zm-648.27 1.5371c-0.66768-0.01116-1.3365 3.6e-4 -2.0059 0.03516-13.116 0.39881-25.334 10.001-28.693 22.707-61.106-0.45679-123.51 0.91032-183.81-0.67969-8.0052-26.002-50.326-20.313-51.135 6.916-1.7657 14.987 11.553 29.367 26.627 28.76 13.859 40.939 30.271 82.498 42.564 123.06-7.7922 8.0081-4.9234 21.289-20.646 20.457-30.528 10.279-62.387 27.109-92.148 33.623-17.09-16.651-47.117 6.9569-34.334 27.557 5.6528 10.394 20.684 10.247 16.152 25.941 6.9733 49.972 13.947 99.944 20.92 149.92-30.677 9.9403-30.602 57.46-0.9375 68.254 24.561 11.742 55.47-11.537 50.904-38.387 20.314-5.6194 42.053-19.229 61.559-20.328 0.0513 32.291-6.5651 69.645-10.469 102.43-28.624 4.0097-32.97 48.14-5.5274 57.52 13.884 6.0484 31.564-0.46551 38.201-14.092 38.575 6.9054 77.072 14.626 115.58 22.236h91.436l-176.8-33.855c29.338-2.0028 61.135-9.3113 89.049-8.2383 10.774 16.551 39.515 6.0903 36.969-13.59 27.252-14.455 54.836-30.779 81.887-44.1 38.048 45.495 101.31-29.29 52.189-59.852-6.9557-4.6667-17.555-4.491-11.51-16.789 2.3776-49.652 4.3038-99.659 6.9629-149.09 13.009-2.2777 17.644-20.32 32.104-8.7852 15.748 4.3555 31.496 8.7109 47.244 13.066-1.0968 15.684 7.9464 31.483 22.057 38.445-15.412 56.404-29.528 114.31-45.744 169.78-18.747 1.3103-28.713 26.167-16.418 40.15-15.082 23.997-29.134 50.087-44.822 72.854h20.309c5.8579-11.879 16.858-23.774 21.992-35.658 9.2012-9.9774 10.465-31.683 27.244-28.492 20.505-3.4169 26.399-33.548 8.8496-44.506 13.31-50.081 26.62-100.16 39.93-150.24-0.65303 21.166 3.4119 45.629-0.11914 64.783-28.198 8.9868-24.407 54.389 4.9824 58.471 27.758 7.066 49.408-31.802 27.721-51.369-8.6293-6.9779-19.225-8.7535-14.312-23.197-0.49478-23.221-3.6787-63.473 6.4531-19.408 20.646 71.478 43.942 143.73 62.941 214.73-4.9767 4.1042-6.9786 9.4934-6.834 14.891h19.57c0.42468-0.44987 1.0664-0.95333 2.0137-1.5156 0.79834 0.56579 1.3393 1.0692 1.6914 1.5156h18.916c-0.48915-9.9117-7.0038-19.655-18.268-20.412-23.58-79.309-47.16-158.62-70.74-237.93 31.076 51.452 63.391 102.98 93.697 154.38-17.522 19.96 9.8753 52.203 32.43 37.611 11.784-12.363 27.698 7.6663 41.488 8.9082 47.529 19.144 95.058 38.289 142.59 57.434h45.953c-72.229-29.697-147.31-57.513-217.18-88.77 0.2668-15.319-15.579-27.996-30.457-24.404-31.695-51.983-63.391-103.97-95.086-155.95 64.816 62.351 133.84 123.61 196.05 186.64-7.451 22.744 28.256 36.968 38.512 15.361 16.199-8.8176 41.939-4.3417 61.594-8.3633 38.776-2.5443 79.838-8.6209 117.22-9.0059 9.1111 29.17 54.061 32.312 67.094 4.6133 7.5102-9.1494-1.484-26.11 14.635-26.197 16.527-3.5572 35.052-18.37 50.539-16.131 2.3941 26.953-5.8657 58.942-7.416 87.762 5.7159 18.429-15.534 14.645-21.44 27.471-1.4532 1.9626-2.606 4.3653-3.4414 6.9766h23.066c4.2421-2.3931 8.0725-1.9787 10.98 0h176.13c1.6446-3.1861 2.4062-6.8925 1.8437-10.986 13.393-7.1573 26.787-14.313 40.18-21.471v-19.688c-16.429 6.8769-55.976 38.75-36.068 6.3379 10.283-17.305 12.038-51.262 36.068-41.721v-16.422c-4.7767-1.8598-8.1443-3.7329-8.3535-5.1562 2.7211-11.066 5.3918-15.861 8.3535-16.893v-67.809c-3.1665-2.6937-6.6055-8.2033-10.4-17.381-15.171-9.023-0.2365-19.866-4.3769-32.07 4.926-3.2115 9.8515-6.423 14.777-9.6348v-20.137c-8.466 5.735-16.925 11.084-25.35 14.596-10.001-6.9456-24.874-4.8899-32.619 4.5098-26.966-10.278-54.01-20.518-80.928-30.818 46.299-3.3746 92.597-6.7482 138.9-10.123v-17.125c-46.755 3.4015-93.64 6.9884-140.17 10.062-7.7695-31.101-54.216-38.067-70.66-10.461-13.808 19.302-5.0818 49.47 17.141 58.17-7.3252 31.049-10.221 66.193-20.205 94.783-15.66 3.3263-10.646 25.781-28.695 24.49-14.846 2.1597-33.984 19.273-46.695 14.051-6.4304-12.963-29.146-7.5684-26.172-24.324-5.9439-51.709-16.281-105.41-19.566-155.91 10.74-6.8042 6.3481-23.551 23.215-22.535 30.69-10.661 62.574-27.345 92.57-34.512 9.1439 8.3823 25.021 6.6824 32.193-3.4394 26.128 7.7399 55.824 12.157 79.797 21.9 3.9397 24.227 43.029 21.636 43.738-2.9004-3.8917-12.621 2.8106-20.255 12.266-29.332 15.486-16.311 29.18-38.437 45.705-51.375 1.9038 0.5679 3.7525 0.85367 5.5351 0.89648v-20.631c-3.2546 0.01031-6.8645-2.2211-0.3105-6.0879l0.3105 0.01563v-19.301c-15.378 0.27651-29.7 18.263-20.434 33.555-20.226 22.319-38.992 49.358-60.117 68.764-13.543-5.6452-21.528 13.885-33.736 5.4473-22.435-6.8374-48.586-10.243-68.805-19.127-1.9725-9.4749-10.782-16.978-20.471-17.311-14.252-40.064-28.504-80.127-42.756-120.19 32.175 22.846 69.722 44.023 98.607 67.891-13.766 32.257 22.829 68.414 54.898 54.605 26.945-8.8374 37.023-46.401 17.82-67.404 12.704-15.649 25.112-32.357 37.994-47.363 13.792 6.6324 28.426 0.64666 36.998-10.084v-40.18c-14.847-18.855-50.291-12.981-55.682 12.182-60.52-0.42013-122.54 1.2786-182.13-0.45117-8.0723-26.264-50.726-20.832-51.977 6.6367-2.026 15.443 11.716 30.416 27.283 29.631 13.7 40.292 30.171 81.249 42.158 121.13-7.8808 8.0732-4.8589 21.527-20.639 20.828-30.722 10.69-62.556 27.307-92.621 34.508-16.801-15.847-45.495 7.5126-32.754 27.223 5.8231 9.6592 19.546 10.008 15.061 25.178 6.8108 50.432 13.621 100.86 20.432 151.29-12.202 4.541-21.428 16.092-23.201 28.98-59.027 4.1525-120.14 12.447-177.9 14.078-5.2031-8.1875-16.482-11.666-25.371-7.7363-68.659-64.712-137.32-129.42-205.98-194.14 49.047 22.895 101.88 43.652 148.6 67.861-4.1954 29.46 39.674 44.833 54.596 18.854 17.217-23.179-12.014-56.895-37.389-43.398-8.1612 6.2377-14.168 10.236-23.856 1.4395-48.026-21.893-97.787-42.899-144.73-65.344 13.929-7.9456 39.026-3.8783 56.912-7.5762 11.254-3.1757 18.958-2.1944 25.994 6.1738 19.652 12.817 42.394-17.369 24.537-32.695-9.9186-10.462-29.474-5.8402-33.691 7.9297-24.502 0.47807-53.435 7.7108-75.465 4.4199-9.7645-31.304-57.851-36.19-73.088-6.5625-18.702-1.2955-44.099-10.191-62.775-16.439-0.04395-28.834-43.644-38.408-55.6-12.031-6.4879 16.357-33.21 4.9805-47.91 10.332-49.606 3.2782-99.681 7.2595-148.99 10.102-7.7326-31.419-54.644-38.516-71.236-10.66-14.123 19.636-4.8785 50.357 17.812 58.877-6.4308 31.673-10.334 65.625-18.299 95.914-13.851 2.2364-9.7205 21.991-24.408 21.402-16.31 2.9048-36.675 19.354-50.902 15.352-6.4127-13.29-29.419-7.9247-26.68-24.693-6.7028-51.223-15.288-103.34-20.83-154.01 12.176-6.3415 7.0201-24.98 24.543-23.877 30.508-10.387 62.226-26.823 92.039-33.74 9.0842 8.3759 24.93 6.6608 32.023-3.4551 25.895 7.6164 55.859 11.44 79.324 21.32 3.8655 23.787 41.849 23.145 44.92-0.7539 0.79593-10.701-5.2094-19.625 7.3066-26.697 16.995-19.034 32.75-41.979 50.479-58.695 22.444 6.5606 36.95-27.643 16.623-39.213-17.16-12.659-41.845 9.5084-31.033 27.918-20.502 22.554-39.167 50.989-60.73 70.143-10.905-4.6179-19.417 7.3589-27.453 8.0313-24.756-7.0891-52.739-11.157-75.584-20.033-1.9687-9.3326-10.614-16.735-20.16-17.127-14.323-40.6-28.645-81.2-42.969-121.8 31.749 22.769 69.624 43.665 97.646 67.574-13.654 32.046 21.47 68.526 53.977 56.455 28.729-7.8168 40.432-47.36 20.279-69.418 13.618-14.32 25.175-36.263 39.906-46.463 26.693 10.941 53.594-24.081 36.164-47.051-5.5833-8.3571-15.286-13.628-25.301-13.795zm-451.37 5.8281c1.387 0.17857 3.0077 3.0053 4.9648 9.6621 3.6414 9.0411 7.2824 18.082 10.924 27.123-13.688 12.442-42.186 53.1-27.738 11.941 4.5542-9.379 6.4083-49.427 11.85-48.727zm124.71 7.3516c0.22231-0.00471 0.44592 0.00259 0.66797 0.02344 16.169 9.4538-15.311 14.198-2.6133 0.38476 0.61734-0.26277 1.2784-0.39408 1.9453-0.4082zm-58.969 1.9004c3.5533 0.16262-3.6658 20.573-0.57813 26.514-28.637 24.475-35.658 1.1254-8.502-17.1 5.1013-6.8825 7.7948-9.4729 9.0801-9.4141zm385.13 3.9434c0.37478 0.01562 0.75546 0.04993 1.1426 0.10156 19.903 1.8124 8.3503 33.765-8.1484 22.285-10.144-6.4846-4.6122-22.871 7.0059-22.387zm563.2 2.7129c1.2116 0.00564 2.2166 0.71298 2.7578 2.4961-21.87 17.912-9.3004-2.5265-2.7578-2.4961zm42.348 0.31836c-0.2635 17.753-0.5278 35.506-0.791 53.26-4.2029-19.36-31.589-47.058 0.791-53.26zm-844.38 1.8125c0.28173 0.00245 0.56598 0.0233 0.85156 0.0625 17.136 3.879-4.2492 25.291-8.1562 8.1562-0.58974-4.2816 3.0788-8.2555 7.3047-8.2188zm-107.55 15.309c8.2576 0.00654-11.244 32.047-13.24 43.887-3.3663 8.8989-6.7334 17.798-10.1 26.697 5.3657-20.111-10.189-52.8 10.863-63.48 6.4619-5.0263 10.372-7.1052 12.477-7.1035zm135.7 0.64649h180.47c5.2563 8.5085 4.4241 14.592-4.8789 21.344-10.953 9.1009-18.81 31.659-31.285 34.088-15.874-7.1079-35.795-3.3401-47.953 9.1172-32.119-21.516-64.237-43.033-96.355-64.549zm783.02 0.38476c7.9897 20.007 15.979 40.014 23.969 60.021-18.451-11.137-43.464-18.891-58.502-31.785-3.5623-18.216 24.38-17.765 34.533-28.236zm-64.102 14.824c0.5049-0.01295 1.0214 0.01582 1.5469 0.08789 19.576 2.6821 2.253 31.857-9.4786 15.871-4.668-6.4076 0.3575-15.765 7.9317-15.959zm-894.26 6.2441c-0.29529 18.307-0.59144 36.613-0.88672 54.92-4.7346-20.095-32.147-48.248 0.88672-54.92zm-42.912 0.13672c1.0115 0.00489 1.9329 0.7475 2.5918 2.623-16.164 18.864-8.054-2.6494-2.5918-2.623zm1443.5 2.3281c0.399 0.01781 0.8046 0.055 1.2168 0.11132 21.031 1.9652 8.8667 35.727-8.6289 23.68-10.837-6.8561-4.9579-24.343 7.4121-23.791zm-238.43 5.582c0.2988 0.00258 0.5995 0.02288 0.9024 0.06445 18.183 4.1303-4.523 26.825-8.6524 8.6523-0.6197-4.5391 3.2689-8.7555 7.75-8.7168zm-1199.5 12.531c13.206 7.7724 17.461 40.721 27.383 57.732l0.23633 0.58594c-18.674-10.498-40.01-19.693-57.113-30.959-3.8276-17.517 18.509-18.422 29.494-27.359zm1340.3 3.4922c22.505-0.02133 44.864 0.14985 66.854 0.80664 7.2592 9.6162 1.0603 16.292-7.0078 24.244-11.854 7.4397-17.377 37.409-33.275 29.775-14.538-4.386-31.233-0.17141-41.922 10.631-32.448-21.705-64.895-43.41-97.344-65.115 37.276 0.26292 75.187-0.30626 112.7-0.34179zm-461.54 3.2676c0.7489-0.03601 1.5268-0.00234 2.3281 0.10743 20.416 1.9425 8.5676 34.701-8.4082 22.994-10.184-6.4608-5.1532-22.561 6.0801-23.102zm-937.98 5.3496c0.56722-0.01566 1.1494 0.01922 1.7461 0.10938 18.528 2.1547 4.8297 30.946-8.5547 17.834-6.623-6.1292-1.6998-17.708 6.8086-17.943zm398.45 16.768c0.61696-0.0106 1.2352 0.00238 1.8516 0.03906 27.146-0.05367 31.25 43.115 4.5762 48.197-25.957 8.1213-42.633-31.906-18.721-44.668 3.6825-2.2682 7.9742-3.4941 12.293-3.5684zm-449.72 0.21875c-0.71549-0.00709-1.4376 0.01116-2.166 0.05664-28.88-0.27779-41.306 42.137-16.174 57.115 13.117 9.2764-3.1007 33.28-0.44727 47.883-5.8962 44.277-10.908 89.351-17.352 133.13-27.435 4.3985-26.819 48.201 0.73242 51.82 14.486 3.2169 29.902-8.1297 31.217-22.891 41.885-7.8242 85.63-20.695 126.38-25.453 7.3825 7.8709 19.633 7.3013 17.15 22.303 6.8788 31.003 17.701 63.327 22.203 93.535-18.874 14.6 1.5062 47.19 22.988 36.111 19.45-7.3166 15.328-39.082-5.3535-41.162-8.0142-35.913-20.398-73.286-25.762-108.31 19.046-14.797-1.5511-47.715-23.275-36.531-12.543 4.5112-10.418 23.043-27.449 19.096-36.65 7.8692-73.299 15.738-109.95 23.607 26.375-28.592 51.661-63.177 78.697-88.125 30.012 17.313 70.436-13.424 61.551-47.021-4.8235-28.673-41.867-44.024-65.514-27.07-12.619-14.387-30.859-28.002-40.254-42.83 10.588-20.041-5.0484-45.044-27.229-45.264zm1146.8 4.9961c7.9261 5.7843-8.8235 5.2126 0 0zm-588.66 5.1895c9.1029 7.4944-10.423 5.3213 0 0zm-558.74 8.8594c0.37528 0.0163 0.75691 0.04911 1.1445 0.10157 19.881 1.846 8.3323 33.746-8.1562 22.301-10.174-6.4779-4.6221-22.908 7.0117-22.402zm1003.1 0.45899c13.063-0.65897 20.565 21.803 32.205 28.066 4.2344 4.2926 8.4688 8.5864 12.703 12.879-10.442 14.918-9.7577 36.453 1.6308 50.668-24.99 28.829-49.981 57.658-74.971 86.486 7.9234-58.344 12.396-120 22.465-176.29 2.1214-1.1525 4.1006-1.7184 5.9668-1.8125zm-847.42 25.516c9.1408 7.6579-10.6 5.2495 0 0zm1310.3 1.5508c0.451-4.5e-4 0.9031 0.01198 1.3535 0.03711 26.037-0.08126 30.168 41.295 4.6563 46.418-27.118 8.6765-41.67-34.946-15.229-44.588 2.9069-1.2358 6.0618-1.864 9.2188-1.8672zm-1453 13.477c11.383 0.44238 18.194 19.8 28.557 25.492 4.8109 4.8577 9.6207 9.7146 14.432 14.572-10.239 14.764-9.5474 35.973 1.6543 50.027-25.133 28.981-50.266 57.962-75.398 86.943 8.4468-57.917 13.143-119.45 23.91-175.13 2.4731-1.4222 4.7378-1.9901 6.8457-1.9082zm1070.9 0.35742c0.4595-1.2e-4 0.9184 0.01197 1.3769 0.03711 26.752-0.05556 30.811 42.479 4.7383 47.701-28.07 8.9565-42.681-36.095-15.516-45.863 2.9636-1.2544 6.1841-1.8742 9.4004-1.875zm-729.64 22.16c10.476 8.5064-11.904 6.1481 0 0zm770.57 16.262c36.964 5.0197 73.927 10.041 110.89 15.061-29.335 18.53-61.381 38.613-91.668 55.09-12.221-8.963-31.493-0.68275-33.646 14.225-41.385 9.0601-82.771 18.122-124.16 27.182 26.119-28.252 51.108-62.676 77.908-87.203 22.233 12.327 53.103-0.10989 60.672-24.354zm-1034 1.2891c0.69584-0.02046 1.394-0.00916 2.0898 0.03321 25.881-0.11679 30.528 40.472 5.75 46.631-24.497 9.2317-42.863-27.652-21.414-41.914 3.895-2.9411 8.7033-4.6067 13.574-4.75zm1170.8 1.252c0.2819 0.00326 0.5659 0.02604 0.8515 0.0664 17.119 3.9007-4.2616 25.271-8.1562 8.1641-0.6032-4.2783 3.0761-8.2794 7.3047-8.2305zm-788.7 9.7656c0.23841-0.01924 0.47929-0.01543 0.72071 0.01368 9.941 2.8957-4.4298 13.435-4.2012 3.0801 0.29182-1.6891 1.8116-2.9591 3.4805-3.0938zm895.92 15.744c0.1453-0.00253 0.2908 0.00452 0.4355 0.02344 8.7783 3.4978-5.9008 10.422-2.9961 1.3945 0.5433-0.87085 1.5431-1.4002 2.5606-1.418zm-1158 10.611c0.17806-0.0068 0.35801-1.8e-4 0.53516 0.01172 10.395 6.8965-10.709 7.972-1.0645 0.06055 0.17362-0.04366 0.35124-0.06546 0.5293-0.07227zm429.03 2.8633c0.56784-0.01581 1.1525 0.01905 1.75 0.10938 18.489 2.1497 4.869 30.918-8.5352 17.857-6.6512-6.1136-1.7324-17.73 6.7852-17.967zm-260.82 7.9121c0.45621-0.01093 0.92047-0.01144 1.3926 0 24.204-0.06538 26.141 38.973 2.0293 41.287-29.411 3.7591-32.163-40.598-3.4219-41.287zm1109.4 9.0879c11.049 9.1024-12.679 6.4101 0 0zm-883.65 4.5684c-22.899 13.428-45.797 26.856-68.695 40.283-10.022-8.8169-26.879-7.3571-35.242 3.0566-27.19-10.153-54.378-20.306-81.568-30.459 61.836-4.2938 123.67-8.5871 185.51-12.881zm162.82 2.6543c0.44549-0.00283 0.89116 0.00895 1.3359 0.0332 24.393-0.08617 27.163 38.991 3.1875 42.549-23.86 6.3874-36.388-31.269-13.574-40.533 2.8174-1.3444 5.9324-2.029 9.0508-2.0488zm-147.07 8.043c-16.35 35.206-33.501 70.577-50.16 105.85-7.0611-15.345-28.061-30.195-27.814-45.775 5.2385-8.061-2.2542-20.165 11.965-21.502 21.996-12.805 44.047-26.018 66.01-38.57zm280.37 0.45703c5.5841 4.491-6.3831 3.2238 0 0zm325.56 10.52c9.193 7.595-10.579 5.303 0 0zm-94.244 0.77539c10.273 8.1746-11.525 6.0761 0 0zm263.32 9.6973c0.4422-0.0025 0.8828 0.00845 1.3242 0.03125 25.65 0.12963 24.376 42.227-1.1796 40.873-23.77 1.3552-27.686-37.037-4.0977-40.504 1.3003-0.26703 2.6267-0.39291 3.9531-0.40039zm-970.66 1.8476c15.392 3.9747 48.505 17.795 69.988 25.334 1.307 10.492 7.5081 18.474-4.873 26.229-20.965-10.875-43.535-35.437-65.115-51.562zm203.85 2.832c0.43868 0.05843 0.76809 0.55476 0.96875 1.5664-2.1073 46.262-4.215 92.525-6.3223 138.79-16.49 7.975-19.57-20.385-30.398-28.402-23.105-17.958 4.1063-40.149 9.7676-60.527 7.2829-11.62 21.744-51.989 25.984-51.424zm-225.04 1.7363c24.916 20.819 49.834 41.64 74.75 62.459-12.529 8.5288-30.41 60.92-38.021 29.139-11.497-30.33-28.702-62.212-36.729-91.598zm-22.301 8.2969c14.441 2.0661 13.73 29.857 22.764 41.189 10.092 23.975 20.184 47.949 30.275 71.924-14.996 13.707-42.77-6.2777-62.76-5.7363-3.4349-9.7199-12.914-14.784-5.2988-26.639 5.1554-26.742 9.1624-54.799 15.02-80.738zm138.57 6.625c0.24581 2e-3 0.49418 0.0205 0.74414 0.05664 13.626 2.8998-2.5692 20.619-6.666 7.2852-0.87248-3.6862 2.2347-7.3718 5.9219-7.3418zm442.87 1.2109c0.2887 4.8e-4 0.5802 0.01883 0.8731 0.05665 17.591 3.9294-4.278 25.975-8.3281 8.3926-0.6096-4.3882 3.1252-8.4563 7.455-8.4492zm-822.89 8.1758c10.19 8.2723-11.585 5.9569 0 0zm1299.2 15.393c23.489 8.9395 46.98 17.879 70.469 26.818 1.2862 10.462 7.4394 18.43-4.9277 26.158-21.177-11.759-43.807-36.312-65.541-52.977zm-926.23 5.4766c10.199 1.2993 18.793-0.74475 22.389 12.518 8.897 10.891 41.777 55.015 13.111 40.943-10.645-15.388-48.67-27.565-42.066-44.977 2.1952-2.7458 4.2591-6.0772 6.5664-8.4844zm906.64 0.31836c24.555 20.844 49.109 41.687 73.664 62.531-12.329 8.2047-30.179 60.712-37.467 28.475-11.422-30.156-27.717-61.673-36.197-91.006zm-21.873 7.9941c14.1 2.5323 13.386 29.974 22.281 41.332 9.8985 23.861 19.797 47.719 29.695 71.58-14.572 14.765-42.469-5.9512-62.391-5.4316-2.7572-10.595-14.341-15.573-5.877-28.043 5.7083-26.154 9.3181-54.768 16.291-79.438zm-1427.6 2.6309c0.28154 0.00249 0.56627 0.02313 0.85156 0.0625 17.123 3.883-4.2441 25.291-8.1504 8.1641-0.60102-4.278 3.0757-8.264 7.2988-8.2266zm1564.4 4.8223c0.2403 1e-3 0.4836 0.02008 0.7285 0.05469 13.189 2.7065-2.2818 19.982-6.4218 7.1602-0.891-3.5856 2.0887-7.2298 5.6933-7.2148zm-546.27 12.652c0.5073-0.01012 1.0238 0.02062 1.5488 0.09179 21.481 3.3027 0.8256 34.415-10.555 15.834-3.982-6.8387 1.396-15.774 9.0059-15.926zm-493.5 3.0898c4.3174 0.01743 9.0046 3.191 14.27 11.283 13.515 11.293 27.032 22.584 40.547 33.877-4.7866 30.893-25.647 29.436-50.316 20.309-17.027-3.9052-61.589-5.224-36.186-30.469 10.643-10.971 19.749-35.048 31.686-35zm1032.7 14.111 0.1094 0.03125c10.135 1.1998 18.52-0.49103 22.022 12.627 12.982 9.8854 34.997 58.301 6.1836 35.203-11.22-15.751-53.74-27.957-28.314-47.861zm-954.76 23.025c1.9969 0.13039 6.8849 4.4827 13.473 16.314-13.136-7.6771-16.391-16.505-13.473-16.314zm-220.55 5.418c4.2827 2.6627-4.2239 2.7806 0 0zm1157.8 3.5879c4.997 0.01606 10.416 3.7574 16.506 13.398 11.214 9.5174 22.428 19.035 33.643 28.553-4.6906 31.064-24.228 33.133-50.277 22.49-20.15-1.1966-57.051-10.934-29.336-33.584 9.5257-12.895 18.472-30.893 29.465-30.857zm-738.87 4.5352c0.54388-0.00929 1.0973 0.02162 1.6602 0.09961 22.912 3.5845 0.84038 36.77-11.324 16.941-4.2663-7.3328 1.5058-16.902 9.6641-17.041zm397.74 3.5039c11.024 9.1538-12.7 6.3758 0 0zm-781.29 4.4648c1.7819 0.05917 4.6619 0.93017 8.9121 2.9336l22.033 4.5742c-2.0696 31.407-43.419-7.922-30.945-7.5078zm176.66 0.3086c7.9659-0.21654 22.852 21.284 30.508 23.912-10.337-0.17084-53.736 0.64106-34.742-19.795 0.92752-2.862 2.3961-4.0672 4.2344-4.1172zm-204.14 3.2051c12.296 10.95 24.591 21.9 36.887 32.85l-49.51 66.326c4.6978-32.678 5.71-68.22 12.623-99.176zm-118.31 4.5312c0.37515-0.00597 0.75534-0.00252 1.1426 0.00976 21.678 0.03024 21.814 35.503 0 35.543-24.41 0.82122-24.777-35.177-1.1426-35.553zm198.43 3.6211c1.7014-0.08323 3.5876 0.372 5.7148 1.5332 9.8474 23.396 19.696 46.792 29.543 70.188-18.474-16.452-36.949-32.904-55.424-49.355 7.1856-5.7444 10.978-21.916 20.166-22.365zm26.029 5.748c20.832 4.3258 41.664 8.6527 62.496 12.979-10.086 21.208-20.172 42.415-30.258 63.623l-32.238-76.602zm163.76 4.3594c0.44196-0.00717 0.8913-0.00265 1.3476 0.01172 25.632-3e-4 25.554 41.897 0 41.898-28.48 1.0618-29.191-41.458-1.3476-41.91zm736.83 5.9453c8.0965 5.3926-8.9424 5.5622 0 0zm-810.07 6.7637c4.2189-0.01923 9.1739 1.4447 15.104 4.8691l18.322 3.8027c6.453 18.523-20.873 19.034-31.564 28.928-17.052 7.549-55.924 38.168-31.844 2.2226 8.2172-16.851 13.431-39.747 29.982-39.822zm-379.97 0.94335c9.116 7.7128-10.637 5.1946 0 0zm1225.5 9.7988c1.7668 0.07023 4.6274 0.95956 8.8535 2.9922 7.408 1.59 14.817 3.1814 22.225 4.7715-2.1841 31.392-43.446-8.2552-31.078-7.7637zm-27.631 4.3379c12.586 8.9887 24.876 21.817 37.242 32.199-16.599 22.244-33.2 44.488-49.799 66.732 4.814-32.479 5.084-68.561 12.557-98.932zm-961.4 2.6875c5.857 0.12446 12.159 4.6478 19.117 15.637 15.215 13.55 30.43 27.1 45.645 40.65-38.159 3.3619-78.54 10.585-115.34 11.59-6.6728-14.577 19.173-27.411 24.037-41.432 8.257-14.644 16.781-26.653 26.543-26.445zm843.8 1.8008c24.208 0.18634 20.164 40.336-3.75 35.426-21.905-3.627-18.597-36.373 3.75-35.426zm198.35 3.1426c1.7476-0.01218 3.69 0.52871 5.8887 1.7891 9.6236 23.206 19.248 46.413 28.871 69.619l-55.217-49.18c7.3007-5.9807 11.02-22.163 20.457-22.229zm26.197 6.1524c19.407 4.1634 38.814 8.3249 58.221 12.488-9.5404 17.319-19.26 52.95-28.688 58.703-9.8445-23.731-19.689-47.461-29.533-71.191zm-573.31 11.146c0.25352-2e-4 0.50931 0.01588 0.76758 0.05078 14.042 2.8704-2.4452 21.215-6.7988 7.5664-0.92661-3.7906 2.2285-7.6141 6.0312-7.6172zm-201.81 0.52539c0.23353 1.5e-4 0.46904 0.01602 0.70703 0.04883 12.809 2.5962-2.1503 19.43-6.2227 6.9844-0.88266-3.4826 2.0127-7.0354 5.5156-7.0332zm-442.87 0.77149c-0.8591-0.00647-1.7278 0.01849-2.6035 0.07617-17.115 0.45842-32.569 14.407-34.762 31.387-58.199 4.6749-117.16 10.813-174.88 14.58-11.147-21.783-47.313-5.6048-38.273 17.311 5.1002 18.815 34.757 18.964 40.039 0.19922 58.051-4.1888 118.35-11.856 175.01-13.893 9.0969 29.152 54.023 32.315 67.041 4.6211 13.325-23.653-4.9342-54.081-31.566-54.281zm761.01 14.477c6.4682 5.3588-7.4806 3.6025 0 0zm-762.05 4.6191c0.37345-0.00339 0.75124 0.00248 1.1367 0.01758 21.676 0.04535 21.768 35.626-0.08789 35.559-24.237 0.95512-24.576-35.363-1.0488-35.576zm1165.5 2.8047c5.8761 0.07227 12.2 4.5624 19.188 15.594 14.961 13.324 29.924 26.649 44.885 39.973-37.496 4.2213-78.228 11.009-114.8 12.416-6.4991-14.526 19.223-27.355 24.084-41.34 8.2996-14.609 16.847-26.763 26.641-26.643zm-929.87 15.764c5.1808 4.3711-6.1224 2.8301 0 0zm-163.23 8.4883c0.52412-0.01131 1.0591 0.01756 1.6016 0.08984 22.246 3.4244 0.83717 35.631-10.934 16.365-4.0859-7.0834 1.4703-16.285 9.332-16.455zm-301.6 8.4824c6.4089 3.8084-6.097 5.5988-1.0781 0.14844 0.33797-0.14589 0.71379-0.18812 1.0781-0.14844zm1479.3 27.195c8.0594 5.5346-8.8922 5.4632 0 0zm-332.5 6.584c-5.4734 0.0394-10.943 1.7308-15.369 4.9551h30.76c-4.4315-3.3756-9.9091-4.9945-15.391-4.9551z" color="#000000" color-rendering="auto" dominant-baseline="auto" fill="#000405" fill-opacity=".078431" filter="url(#filter10383)" image-rendering="auto" opacity=".9" shape-rendering="auto" solid-color="#000000" style="font-feature-settings:normal;font-variant-alternates:normal;font-variant-caps:normal;font-variant-ligatures:normal;font-variant-numeric:normal;font-variant-position:normal;isolation:auto;mix-blend-mode:normal;shape-padding:0;text-decoration-color:#000000;text-decoration-line:none;text-decoration-style:solid;text-indent:0;text-orientation:mixed;text-transform:none;white-space:normal"/>
  <path transform="matrix(.26458 0 0 .26458 -113.41 18.725)" d="m1013.4 6.9902c-9.8249 0-17.828 8.0013-17.828 17.826 0 7.8852 5.1608 14.591 12.275 16.936l-25.879 95.758c-1.9513-0.45434-3.9807-0.70313-6.0684-0.70313-9.0784 0-17.111 4.5477-21.951 11.48l-123.24-79.51c1.1252-2.0215 1.7715-4.3442 1.7715-6.8145 0-7.7538-6.3224-14.084-14.076-14.084-7.7538 0-14.078 6.3302-14.078 14.084 0 5.5247 3.2183 10.309 7.8691 12.611l-25.66 62.389c-1.0454-0.33018-2.1554-0.50977-3.3066-0.50977-6.0772 0-11.051 4.9658-11.051 11.043s4.9736 11.043 11.051 11.043 11.045-4.9658 11.045-11.043c0-4.2579-2.4439-7.9617-5.9941-9.8027l25.662-62.395c1.405 0.47248 2.9021 0.74023 4.4629 0.74023 4.6103 0 8.7014-2.2452 11.271-5.6875l123.25 79.518c-2.3993 4.0097-3.7812 8.6942-3.7812 13.697 0 6.1222 2.0711 11.765 5.543 16.279l-78.004 64.348c-2.007-2.0471-4.7973-3.3242-7.875-3.3242-6.0772 0-11.045 4.9677-11.045 11.045 0 6.0772 4.9677 11.051 11.045 11.051 6.0772 0 11.043-4.9736 11.043-11.051 0-2.3228-0.73109-4.4804-1.9668-6.2637l78.008-64.344c4.9057 5.5276 12.057 9.0195 20.012 9.0195 14.756 0 26.76-12.004 26.76-26.76 0-2.9096-0.4734-5.7093-1.3359-8.334l233.88-85.967c2.6871 6.5964 7.7684 11.971 14.164 15.031l-34.547 79.131c-1.8372-0.68527-3.8148-1.0781-5.8868-1.0781-9.3317 0-16.941 7.6019-16.941 16.934 0 4.0975 1.4684 7.8616 3.9043 10.795l-116.34 107.84c-5.6662-5.7528-13.538-9.3262-22.234-9.3262-17.222 0-31.227 14.005-31.227 31.227 0 17.222 14.005 31.225 31.227 31.225 3.7042 0 7.2575-0.65147 10.557-1.8398l27.9 70.869c-7.2735 3.2635-12.363 10.558-12.363 19.029 0 11.501 9.3677 20.869 20.869 20.869 7.7605 0 14.537-4.2724 18.133-10.58l69.719 35.477v0.00195c-0.6694 1.5763-1.041 3.3079-1.041 5.123 0 7.2607 5.9307 13.191 13.191 13.191 3.5749 0 6.8217-1.4432 9.2012-3.7695l86.867 77.021c-1.8162 2.2723-3.0974 4.9848-3.6582 7.9512l-119.01-16.156c0.1302-1.2144 0.2011-2.4468 0.2011-3.6953 0-18.973-15.427-34.393-34.4-34.393-9.0634 0-17.311 3.5239-23.459 9.2676l-49.176-49.848c3.877-4.1466 6.2578-9.7086 6.2578-15.818 0-12.783-10.404-23.186-23.188-23.186-12.784 0-23.186 10.402-23.186 23.186 0 11.531 8.4652 21.123 19.506 22.893l-21.938 183.9c-0.4109-0.0276-0.8205-0.0625-1.2383-0.0625-10.122 0-18.365 8.2433-18.365 18.365 0 10.122 8.2433 18.375 18.365 18.375s18.367-8.2531 18.367-18.375c0-1.0188-0.105-2.0121-0.2656-2.9863l131.27-28.744c1.6837 5.7355 6.9964 9.9473 13.264 9.9473 0.8177 0 1.6152-0.0853 2.3945-0.22265l28.414 114.68c-5.6631 1.8236-9.7852 7.1442-9.7852 13.398 0 7.7509 6.3273 14.078 14.078 14.078 7.7509 0 14.076-6.3272 14.076-14.078 0-7.7509-6.3253-14.076-14.076-14.076-0.8399 0-1.6586 0.0881-2.4589 0.23047l-28.412-114.68c5.5515-1.7944 9.5878-7.0124 9.5878-13.148 0-2.2742-0.5647-4.4181-1.5449-6.3144l97.527-58.961c3.275 4.8133 8.7956 7.9844 15.041 7.9844 10.022 0 18.189-8.1595 18.189-18.182s-8.1673-18.189-18.189-18.189c-5.0631 0-9.6468 2.0883-12.947 5.4434l-86.867-77.021c1.7084-2.2246 2.7364-4.997 2.7364-8.0059 0-3.3479-1.2703-6.4009-3.3399-8.7305l126.3-129.32c3.5943 3.2014 8.3125 5.166 13.49 5.166 11.206 0 20.33-9.1245 20.33-20.33 0-11.206-9.1246-20.33-20.33-20.33-3.4732 0-6.7438 0.88037-9.6074 2.4238l-32.5-54.332c8.549-5.4924 14.226-15.079 14.226-25.979 0-17.024-13.839-30.863-30.863-30.863-10.202 0-19.259 4.9737-24.883 12.621l-46.922-32.254c1.5678-2.5662 2.4882-5.5684 2.4882-8.7871 0-6.5894-3.799-12.301-9.3125-15.098l34.547-79.137c3.2648 1.3029 6.8204 2.0273 10.545 2.0273 15.742 0 28.539-12.805 28.539-28.547 0-15.742-12.797-28.537-28.539-28.537s-28.545 12.795-28.545 28.537c0 3.1292 0.513 6.1394 1.4473 8.959l-233.88 85.967c-3.015-7.3591-9.2136-13.088-16.877-15.459l25.877-95.744c1.204 0.25802 2.4491 0.40039 3.7285 0.40039 9.8248 0 17.826-8.0111 17.826-17.836 0-9.8248-8.0014-17.826-17.826-17.826zm0 3.7793c7.7822 0 14.047 6.2646 14.047 14.047 0 7.7822-6.2647 14.057-14.047 14.057-7.7823 0-14.049-6.2744-14.049-14.057 0-7.7822 6.2666-14.047 14.049-14.047zm523.05 20.182c-9.1457 0-16.602 7.456-16.602 16.602 0 4.0191 1.4416 7.7101 3.832 10.586l-117.04 108.88c-5.6675-5.7364-13.531-9.2969-22.217-9.2969-17.235 0-31.248 14.013-31.248 31.248 0 17.235 14.013 31.246 31.248 31.246 3.8066 0 7.4541-0.68672 10.83-1.9375l28.361 70.164c-7.2802 3.3438-12.352 10.7-12.352 19.221 0 11.656 9.4864 21.148 21.143 21.148 7.8015 0 14.618-4.2631 18.283-10.57l70.182 36.508c-0.6537 1.5186-1.0195 3.189-1.0195 4.9414 0 6.914 5.6426 12.557 12.557 12.557 6.9141 0 12.564-5.6426 12.564-12.557 0-5.0202-2.985-9.3625-7.2637-11.371l40.246-106.64c1.5697 0.49444 3.2372 0.76367 4.9668 0.76367 9.1456 0 16.596-7.4579 16.596-16.604 0-6.8973-4.2398-12.828-10.246-15.33l25.5-73.08c3.019 0.95544 6.2307 1.4746 9.5625 1.4746 8.2911 0 15.845-3.196 21.504-8.416v-5.4356c-5.1268 6.1567-12.85 10.072-21.504 10.072-15.471 0-27.969-12.507-27.969-27.979 0-15.471 12.497-27.969 27.969-27.969 8.6543 0 16.377 3.9125 21.504 10.066v-5.4355c-5.6593-5.2176-13.213-8.4102-21.504-8.4102-10.576 0-19.951 5.1951-25.723 13.164l-47.932-32.504c1.4978-2.4917 2.375-5.3957 2.375-8.5059 0-9.1456-7.456-16.602-16.602-16.602zm-274.8 2.8203c13.7 0 24.76 11.058 24.76 24.758 0 13.7-11.06 24.768-24.76 24.768-13.7 0-24.766-11.068-24.766-24.768 0-13.7 11.066-24.758 24.766-24.758zm274.8 0.95898c7.1029 0 12.822 5.7193 12.822 12.822 0 7.103-5.7193 12.814-12.822 12.814-7.1031 0-12.822-5.7115-12.822-12.814 0-7.103 5.7192-12.822 12.822-12.822zm-1477.9 11.693c-9.644 4e-6 -17.502 7.8579-17.502 17.502 0 7.6685 4.9753 14.192 11.859 16.549l-26.207 93.195c-2.1576-0.5296-4.4097-0.8164-6.7285-0.8164-7.8089 0-14.884 3.1874-19.996 8.3281v5.832c4.4166-6.2809 11.715-10.381 19.996-10.381 13.519 0 24.441 10.915 24.441 24.434s-10.923 24.441-24.441 24.441c-8.2807 0-15.579-4.1021-19.996-10.385v5.832c5.1124 5.1427 12.187 8.332 19.996 8.332 15.561 0 28.221-12.659 28.221-28.221 0-3.025-0.48407-5.9384-1.3691-8.6719l234.04-84.391c2.648 6.6178 7.7251 12.007 14.131 15.051l-34.25 79.141c-1.7819-0.65602-3.6973-1.0332-5.7031-1.0332-9.1456 0-16.604 7.4501-16.604 16.596 0 3.9783 1.4123 7.6358 3.7598 10.5l-117.7 107.95c-5.5849-5.723-13.376-9.2832-21.99-9.2832-16.956 0-30.746 13.782-30.746 30.738 0 16.956 13.79 30.746 30.746 30.746 3.7611 0 7.3642-0.68278 10.697-1.9238l28.953 71.174c-7.2592 3.3523-12.314 10.695-12.314 19.199 0 11.656 9.4923 21.15 21.148 21.15 7.7696 0 14.56-4.2308 18.236-10.496l68.348 35.916c-0.7407 1.6725-1.1602 3.5159-1.1602 5.457 0 7.4719 6.1023 13.568 13.574 13.568 7.4719 0 13.568-6.0965 13.568-13.568 0-5.4499-3.2515-10.155-7.9062-12.309l40.549-107.19c1.5167 0.47605 3.1283 0.73438 4.7988 0.73438 8.8667 0 16.092-7.233 16.092-16.1 0-6.7196-4.1525-12.489-10.021-14.893l30.205-88.703c1.1586 0.3102 2.3687 0.49219 3.623 0.49219 7.7509 0 14.078-6.3175 14.078-14.068 0-7.7509-6.3272-14.078-14.078-14.078-4.4568 0-8.4327 2.0979-11.014 5.3496l-60.684-41.766c1.5335-2.5143 2.4336-5.454 2.4336-8.6055 0-6.4703-3.7367-12.077-9.1562-14.812l34.25-79.141c3.2018 1.2649 6.6853 1.9668 10.332 1.9668 6.4324 0 12.366-2.1678 17.117-5.8047l37.875 46.291c-2.4023 2.2899-3.9102 5.5102-3.9102 9.0762 0 6.914 5.6426 12.557 12.557 12.557 0.60443 0 1.1952-0.0573 1.7773-0.14062l18.234 82.562c-13.768 3.4723-23.982 15.953-23.982 30.787 0 17.514 14.236 31.748 31.75 31.748 15.917 0 29.129-11.758 31.406-27.049l180.18 21.512c-0.0282 0.41686-0.06445 0.83201-0.06445 1.2559 0 10.219 8.3314 18.543 18.551 18.543 10.219 0 18.543-8.3236 18.543-18.543 0-10.219-8.3236-18.543-18.543-18.543-9.1503 0-16.766 6.68-18.264 15.412l-180.18-21.512c0.0825-0.93134 0.13282-1.8717 0.13282-2.8242 0-1.4904-0.11103-2.9544-0.31055-4.3906l93.789-15.947c2.1654 10.145 11.195 17.783 21.975 17.783 12.389 0 22.479-10.089 22.479-22.479 0-12.389-10.09-22.471-22.479-22.471-12.389 0-22.471 10.082-22.471 22.471 0 0.96014 0.0681 1.9051 0.18554 2.834l-93.789 15.947c-0.42924-2.1419-1.0725-4.2065-1.9102-6.1699l253.56-116.76c2.1944 3.9439 6.4012 6.6289 11.215 6.6289 7.0634 0 12.83-5.7745 12.83-12.838s-5.7666-12.828-12.83-12.828c-7.0634 0-12.83 5.7647-12.83 12.828 0 1.5791 0.30161 3.0881 0.82812 4.4883l-253.57 116.77c-0.94569-1.8949-2.077-3.6811-3.3672-5.3379l165.44-136.63c3.1297 3.3826 7.5902 5.5176 12.545 5.5176 9.4246 0 17.104-7.679 17.104-17.104s-7.679-17.104-17.104-17.104-17.111 7.679-17.111 17.104c0 3.7908 1.2593 7.2871 3.3594 10.127l-165.44 136.63c-1.4415-1.6403-3.0437-3.1343-4.791-4.4492l131.21-186.62c1.8874 1.136 4.0864 1.8027 6.4395 1.8027 6.914 0 12.557-5.6504 12.557-12.564s-5.6426-12.557-12.557-12.557c-6.914 0-12.564 5.6426-12.564 12.557 0 3.8862 1.785 7.3728 4.5762 9.6816l-131.21 186.61c-2.4152-1.6031-5.0609-2.8843-7.877-3.7832l52.105-158.4c1.6198 0.38841 3.308 0.60157 5.0449 0.60157 11.935 0 21.65-9.7153 21.65-21.65 0-11.935-9.7153-21.652-21.65-21.652-11.935 0-21.652 9.7173-21.652 21.652 0 9.5372 6.2078 17.652 14.791 20.529l-52.104 158.39c-2.5051-0.63698-5.1271-0.97656-7.8281-0.97656-2.0244 0-4.002 0.19903-5.9219 0.5625l-18.23-82.562c5.1575-1.5636 8.9375-6.3622 8.9375-12.016 0-6.914-5.6504-12.557-12.564-12.557-2.6702 0-5.1464 0.84793-7.1856 2.2793l-37.877-46.289c5.905-5.1764 9.6445-12.765 9.6445-21.217 0-15.561-12.659-28.213-28.221-28.213s-28.213 12.652-28.213 28.213c0 3.0265 0.48372 5.9406 1.3691 8.6758l-234.04 84.385c-3.1186-7.786-9.6068-13.868-17.656-16.432l26.209-93.186c1.2314 0.27595 2.5074 0.43359 3.8203 0.43359 9.644 0 17.502-7.8579 17.502-17.502s-7.8579-17.502-17.502-17.502zm0 3.7793c7.6014 0 13.723 6.1212 13.723 13.723s-6.1212 13.723-13.723 13.723-13.723-6.1212-13.723-13.723 6.1212-13.723 13.723-13.723zm759.82 1.4551c5.7112 0 10.297 4.5935 10.297 10.305 0 5.7112-4.5857 10.297-10.297 10.297s-10.299-4.5857-10.299-10.297c0-5.7112 4.5877-10.305 10.299-10.305zm731.21 5.9648 47.934 32.506c-3.1368 4.9217-4.9629 10.758-4.9629 17.018 0 4.2287 0.8364 8.2641 2.3418 11.957l-58.793 25.973 1.0488-80.965c5.0586-0.2222 9.5329-2.7128 12.432-6.4883zm-24.637 1.8887c0.7243 0.69488 1.5073 1.329 2.3476 1.8848l-62.188 107.19c-1.6535-0.80515-3.501-1.2695-5.457-1.2695-6.9141 0-12.564 5.6504-12.564 12.564 0 0.1897 0.0194 0.37481 0.0274 0.5625l-31.826 3.8438c-0.9093-6.0316-3.5514-11.498-7.3965-15.887l117.06-108.89zm3.9882 2.8301c1.9258 0.9792 4.0629 1.5901 6.3262 1.748l-1.0605 81.826-63.486 28.043c-0.9528-1.7719-2.3188-3.2889-3.9668-4.4258l62.188-107.19zm-973.74 7.2207c4.8714 0 8.7773 3.9059 8.7773 8.7773s-3.9059 8.7852-8.7773 8.7852-8.7852-3.9137-8.7852-8.7852 3.9137-8.7773 8.7852-8.7773zm-248.13 3.5547c13.519 0 24.441 10.915 24.441 24.434 0 13.519-10.923 24.441-24.441 24.441-13.519 0-24.434-10.923-24.434-24.441 0-13.519 10.915-24.434 24.434-24.434zm158.21 0.41406c9.8924 0 17.871 7.9806 17.871 17.873 0 9.8925-7.9786 17.871-17.871 17.871-9.8925 0-17.873-7.9786-17.873-17.871 0-9.8925 7.9806-17.873 17.873-17.873zm136.25 46.557c7.3819 0 13.324 5.9423 13.324 13.324s-5.9423 13.324-13.324 13.324-13.332-5.9423-13.332-13.324 5.9501-13.324 13.332-13.324zm994.13 0.74609c1.5292 3.1908 3.5765 6.0859 6.0312 8.5801l-66.281 69.246 0.668-51.506 59.582-26.32zm7.3965 9.8887c2.8738 2.5941 6.2238 4.6663 9.9004 6.0781l-25.504 73.092c-1.4515-0.41679-2.9777-0.6543-4.5606-0.6543-9.1456 0-16.602 7.456-16.602 16.602 0 2.5319 0.5889 4.9254 1.6094 7.0762l-33.166 18.029 0.6406-49.516 67.682-70.707zm-819.86 9.5098c4.0346 0 7.2637 3.2291 7.2637 7.2637s-3.2291 7.2637-7.2637 7.2637-7.2695-3.2291-7.2695-7.2637 3.2349-7.2637 7.2695-7.2637zm192.68 0.35547c12.713 0 22.98 10.265 22.98 22.979 0 12.713-10.267 22.98-22.98 22.98-12.713 0-22.98-10.267-22.98-22.98 0-12.713 10.267-22.979 22.98-22.979zm558.3 7.4062-0.6816 52.67-45.283 47.309-23-56.854c4.1365-2.0583 6.998-6.3204 6.998-11.238 0-1.469-0.2688-2.8746-0.7363-4.1875l62.703-27.699zm-841.69 8.6641c5.0208 0 9.0508 4.028 9.0508 9.0488 0 5.0208-4.03 9.0586-9.0508 9.0586-5.0208 0-9.0508-4.0378-9.0508-9.0586 0-5.0208 4.03-9.0488 9.0508-9.0488zm691.91 4.8418c15.192 0 27.467 12.276 27.467 27.469s-12.274 27.467-27.467 27.467c-15.192 0-27.469-12.274-27.469-27.467s12.276-27.469 27.469-27.469zm-175.48 4.6289c7.2892 0 13.154 5.8652 13.154 13.154 0 7.2891-5.8651 13.154-13.154 13.154-7.2891 0-13.162-5.8652-13.162-13.154 0-7.2891 5.873-13.154 13.162-13.154zm-838.21 0.42773c4.8714 0 8.7852 3.9059 8.7852 8.7773 0 4.8714-3.9137 8.7774-8.7852 8.7774-4.8714 0-8.7773-3.9059-8.7773-8.7774 0-4.8714 3.9059-8.7773 8.7773-8.7773zm1088.9 4.5391c4.8714 0 8.7773 3.9137 8.7773 8.7852s-3.9059 8.7773-8.7773 8.7773c-4.8715 0-8.7852-3.9059-8.7852-8.7773s3.9137-8.7852 8.7852-8.7852zm-12.322 11.225c0.9121 4.5914 4.3459 8.2897 8.7852 9.5996l-20.254 94.893c-1.1345-0.18907-2.2973-0.29297-3.4844-0.29297-2.4665 0-4.8343 0.42878-7.0371 1.209l-28.363-70.166c10.981-4.8488 18.664-15.835 18.664-28.594 0-0.94454-0.051-1.8774-0.1329-2.8008l31.822-3.8477zm-225.04 7.3066 46.924 32.254c-3.1074 4.8145-4.92 10.539-4.92 16.686 0 4.1544 0.8301 8.1161 2.3243 11.736l-58.213 26.053 1.1992-80.174c5.1541-0.20934 9.7171-2.7263 12.686-6.5547zm-25.121 1.8281c0.7646 0.73738 1.5968 1.4035 2.4883 1.9883l-61.492 106.68c-1.6082-0.77387-3.4016-1.2207-5.2988-1.2207-6.7675 0-12.291 5.5235-12.291 12.291 0 0.15219 0.0184 0.30027 0.0234 0.45117l-32.392 3.6973c-0.877-6.0874-3.5176-11.608-7.3829-16.035l116.35-107.86zm266.3 0.38476 23.312 57.627-40.496 42.309c-2.4354-2.1335-5.35-3.7332-8.5742-4.5742l20.256-94.891c0.5533 0.0751 1.1142 0.12695 1.6875 0.12695 1.3292 0 2.6103-0.21162 3.8144-0.59766zm-262.17 2.5449c1.9537 0.98918 4.119 1.6091 6.4121 1.7715l-1.211 81.051-62.84 28.123c-0.9346-1.7074-2.2633-3.1684-3.8613-4.2656l61.5-106.68zm332.16 9.0469-0.6289 48.549-35.248 19.16-8.5957-21.248 44.473-46.461zm-1278.4 1.5117c7.103 0 12.814 5.7114 12.814 12.814s-5.7115 12.822-12.814 12.822c-7.103 0-12.822-5.7193-12.822-12.822s5.7193-12.814 12.822-12.814zm1040.1 6.5391c14.982 0 27.084 12.102 27.084 27.084 0 14.982-12.102 27.084-27.084 27.084-14.982 0-27.092-12.102-27.092-27.084 0-14.982 12.11-27.084 27.092-27.084zm287.73 1.5352c7.103 0 12.814 5.7193 12.814 12.822 0 7.103-5.7115 12.822-12.814 12.822s-12.822-5.7193-12.822-12.822c0-7.103 5.7193-12.822 12.822-12.822zm-1314.8 14.904 60.689 41.764c-1.2547 2.1049-1.9902 4.5526-1.9902 7.1719 0 1.7028 0.32074 3.3292 0.8789 4.8418l-73.295 32.678 1.3027-80.053c5.0408-0.20443 9.5046-2.6621 12.414-6.4023zm-24.646 1.7226c0.72904 0.70901 1.5168 1.3549 2.3652 1.9219l-62.326 106.32c-1.7418-0.8623-3.6931-1.3613-5.7617-1.3613-7.193 0-13.066 5.8656-13.066 13.059 0 0.15228 0.01824 0.30013 0.02344 0.45118l-31.768 3.4121c-0.8276-6.0055-3.393-11.46-7.1738-15.84l117.71-107.96zm3.998 2.873c1.9296 0.9935 4.0757 1.6134 6.3477 1.7793l-1.3164 80.928-63.244 28.195c-0.98892-1.8346-2.4042-3.4054-4.1113-4.584l62.324-106.32zm1321.3 2.0586c1.7507 2.8109 4.3081 5.0628 7.3555 6.4238l-40.238 106.64c-0.7833-0.23184-1.5959-0.38874-2.4336-0.46289l1.2168-94.068 34.1-18.537zm-700.03 10.074c4.0346 0 7.2637 3.2291 7.2637 7.2637 0 4.0346-3.2291 7.2715-7.2637 7.2715-4.0346 0-7.2656-3.2369-7.2656-7.2715 0-4.0346 3.231-7.2637 7.2656-7.2637zm618.78 6.7383 8.3574 20.66-45.453 24.709c-0.8046-1.328-1.7452-2.5611-2.8125-3.6777l39.908-41.691zm-220.17 0.64258c1.4871 3.0544 3.4628 5.8281 5.8262 8.2188l-65.6 68.914 0.7578-50.723 59.016-26.41zm265.41 2.1172-1.2051 93.016c-1.0506 0.0656-2.069 0.25008-3.0351 0.56055l-30.264-74.818 34.504-18.758zm-987.11 3.2285c10.346 0 18.697 8.343 18.697 18.689 0 10.346-8.3508 18.699-18.697 18.699-10.346 0-18.691-8.3528-18.691-18.699 0-10.346 8.345-18.689 18.691-18.689zm728.89 4.1719c2.8546 2.5574 6.1858 4.5926 9.8437 5.9531l-24.248 72.104c-1.4876-0.41379-3.0473-0.65235-4.6641-0.65235-9.6276 0-17.473 7.845-17.473 17.473 0 2.6986 0.6352 5.2462 1.7344 7.5312l-32.949 18.01 0.7481-50.02 67.008-70.398zm35.596 3.9707 32.502 54.334c-5.4797 3.6467-9.1035 9.8718-9.1035 16.93 0 1.0357 0.078 2.0542 0.2285 3.0488l-61.387 12.254c-1.3951-5.4193-5.321-9.8279-10.447-11.879l24.25-72.102c2.8321 0.85819 5.8325 1.3242 8.9414 1.3242 5.4496 0 10.568-1.4235 15.016-3.9102zm-969.27 1.0391c5.7083 0 10.299 4.5906 10.299 10.299 0 5.7083-4.5906 10.289-10.299 10.289-5.7083 0-10.289-4.5808-10.289-10.289 0-5.7083 4.5808-10.299 10.289-10.299zm57.58 6.5703c15.471 0 27.977 12.499 27.977 27.971 0 15.471-12.505 27.969-27.977 27.969-15.471 0-27.971-12.497-27.971-27.969 0-15.471 12.499-27.971 27.971-27.971zm1098.1 0.68359 30.189 74.633c-2.0956 1.0447-3.8572 2.6548-5.0898 4.6328l-70.18-36.506c1.2656-2.7103 1.9785-5.7283 1.9785-8.9102 0-3.318-0.7713-6.4582-2.1406-9.2559l45.242-24.594zm-290.16 5.4805-0.7754 51.889-44.967 47.238-22.445-56.205c4.0644-2.0124 6.8808-6.1943 6.8808-11.018 0-1.4525-0.2672-2.8412-0.7343-4.1367l62.041-27.768zm-877.99 4.1367c0.5693 1.0707 1.2785 2.0526 2.0938 2.9375l-77.016 81.109 0.83008-51.016 74.092-33.031zm3.4531 4.248c1.0647 0.8847 2.2608 1.6152 3.5547 2.1582l-30.203 88.697c-1.3642-0.37762-2.7934-0.5957-4.2754-0.5957-8.8667 0-16.092 7.2251-16.092 16.092 0 2.4814 0.58247 4.825 1.5918 6.9277l-33.797 18.662 0.80078-49.352 78.42-82.59zm1100.4 2.6211c9.6135 0 17.369 7.7498 17.369 17.363 0 9.6135-7.7556 17.369-17.369 17.369s-17.363-7.7556-17.363-17.369c0-9.6135 7.7498-17.363 17.363-17.363zm-375.07 2.0742c15.179 0 27.445 12.268 27.445 27.447 0 15.179-12.266 27.445-27.445 27.445-15.179 0-27.445-12.266-27.445-27.445 0-15.179 12.266-27.447 27.445-27.447zm75.56 10.312c4.725 0 8.5195 3.7868 8.5195 8.5117 0 4.7249-3.7945 8.5195-8.5195 8.5195-4.7249 0-8.5117-3.7946-8.5117-8.5195 0-4.725 3.7868-8.5117 8.5117-8.5117zm-12.062 10.84c0.8658 4.478 4.1722 8.1074 8.4727 9.4297l-21.383 95.607c-1.1784-0.20747-2.3883-0.32031-3.625-0.32031-2.3632 0-4.6337 0.40124-6.754 1.1289l-27.898-70.859c11.114-4.7852 18.914-15.84 18.914-28.691 0-0.87528-0.046-1.7404-0.1172-2.5976l32.391-3.6973zm-492.25 0.27734c8.1767 0 14.764 6.587 14.764 14.764 0 8.1767-6.587 14.764-14.764 14.764-8.1767 0-14.771-6.5869-14.771-14.764 0-8.1767 6.5948-14.764 14.771-14.764zm-376.07 3.5059-0.84765 52.191-45.518 47.939-22.615-56.141c4.3286-2.1329 7.3281-6.5804 7.3281-11.715 0-1.5578-0.29036-3.0464-0.79492-4.4336l62.447-27.842zm1101.4 2.9238c9.1629 0 16.551 7.3878 16.551 16.551 0 9.1629-7.3879 16.551-16.551 16.551-9.163 0-16.549-7.3878-16.549-16.551 0-9.1629 7.3858-16.551 16.549-16.551zm-217.37 2.6992 22.758 56.992-41.363 43.453c-2.3388-2.0338-5.1217-3.566-8.1953-4.4023l21.377-95.619c0.5733 0.0827 1.1546 0.14062 1.75 0.14062 1.2785 0 2.5126-0.1986 3.6738-0.56445zm-1034 7.7754c14.913 0 26.959 12.046 26.959 26.959 0 14.913-12.046 26.967-26.959 26.967-14.913 0-26.965-12.053-26.965-26.967 0-14.913 12.051-26.959 26.965-26.959zm1103.1 3.2578-0.7324 49.045-34.77 19.006-8.6523-21.664 44.154-46.387zm-1027.9 6.3398c5.1504 0 9.2852 4.1289 9.2852 9.2793 0 5.1504-4.1348 9.2852-9.2852 9.2852-5.1504 0-9.2871-4.1348-9.2871-9.2852 0-5.1504 4.1367-9.2793 9.2871-9.2793zm1156.4 1.377c0.8464 3.4053 2.5673 6.4612 4.8906 8.9492l-126.3 129.31c-0.8805-0.7457-1.8633-1.3703-2.918-1.8672l40.299-105.03c1.692 0.54812 3.4922 0.85156 5.3633 0.85156 9.6276 0 17.473-7.8451 17.473-17.473 0-0.84659-0.08-1.6734-0.1973-2.4883l61.387-12.256zm-78.662 1.0508c7.585 0 13.693 6.1083 13.693 13.693 0 7.585-6.1084 13.693-13.693 13.693s-13.693-6.1084-13.693-13.693c0-7.585 6.1084-13.693 13.693-13.693zm276.87 8.1719c4.8715 0 8.7852 3.9137 8.7852 8.7852 0 4.8714-3.9137 8.7774-8.7852 8.7774-4.8714 0-8.7773-3.9059-8.7773-8.7774 0-4.8714 3.9059-8.7852 8.7773-8.7852zm-1367.5 1.0137c0.89146 4.8956 4.5236 8.8491 9.2422 10.211l-19.74 93.873c-1.1152-0.18246-2.258-0.28125-3.4238-0.28125-2.4832 0-4.8661 0.43439-7.082 1.2246l-28.951-71.176c10.764-4.7881 18.287-15.579 18.287-28.104 0-0.78817-0.03925-1.5665-0.09765-2.3398l31.766-3.4082zm16.832 10.1 22.934 56.93-39.848 41.967c-2.4372-2.1165-5.3503-3.7004-8.5684-4.5293l19.742-93.869c0.57532 0.078 1.1579 0.13282 1.7539 0.13282 1.3898 0 2.728-0.22529 3.9863-0.63086zm1058.9 3.5938c1.835 2.9501 4.5154 5.315 7.709 6.75l-40.297 105.02c-0.8615-0.26258-1.7604-0.43353-2.6856-0.51367l1.3868-92.734 33.887-18.523zm-989.09 6.6777-0.78516 48.381-35.494 19.6-8.418-20.9 44.697-47.08zm49.414 9.4277c6.824 0 12.312 5.4884 12.312 12.312s-5.4884 12.32-12.312 12.32-12.312-5.4963-12.312-12.32 5.4884-12.312 12.312-12.312zm859.06 0.13867 8.4161 21.072-46.402 25.367c-0.796-1.3056-1.7235-2.5199-2.7773-3.6172l40.764-42.822zm-545.44 1.7441c-12.269 0-22.31 9.7302-22.809 21.879h-188.69c-0.49735-9.582-8.4396-17.236-18.143-17.236-10.022 0-18.189 8.1595-18.189 18.182s8.1674 18.189 18.189 18.189c1.7878 0 3.5126-0.26997 5.1465-0.7539l45.424 128.74c-4.9339 2.1393-8.4062 7.0539-8.4062 12.756 0 1.4339 0.21812 2.8179 0.625 4.1211l-111.31 43.084c-2.2753-4.8604-7.2003-8.25-12.904-8.25-7.8524 0-14.262 6.4093-14.262 14.262 0 7.8524 6.4093 14.254 14.262 14.254 0.34585 0 0.68558-0.02833 1.0254-0.05273l23.791 170.53c-13.251 2.2965-23.363 13.864-23.363 27.762 0 15.545 12.646 28.191 28.191 28.191s28.186-12.646 28.186-28.191c0-3.1075-0.5128-6.0951-1.4453-8.8926l68.344-25.318c1.6181 3.4776 4.8298 6.0725 8.6914 6.8203l-12.281 108.91c-0.49448-0.0338-0.99126-0.05859-1.4941-0.05859-11.995 0-21.762 9.7613-21.762 21.756 0 11.995 9.7672 21.762 21.762 21.762 10.267 0 18.891-7.1588 21.164-16.742l251.73 48.197h10.617c1.2144-4.0103 4.9215-6.9102 9.3418-6.9102 4.4203 0 8.1274 2.8998 9.3418 6.9102h3.8906c-0.73109-3.3676-2.7185-6.2763-5.4473-8.2051l48.732-80.67c2.3179 1.2325 4.9556 1.9375 7.7559 1.9375 9.1456 0 16.596-7.456 16.596-16.602 0-7.3414-4.8051-13.586-11.43-15.768l46.537-175.13c2.2702 0.53064 4.6315 0.82267 7.0586 0.83594l2.2695 93.684c-11.505 0.76406-20.637 10.366-20.637 22.061 0 12.192 9.9234 22.117 22.115 22.117 12.192 0 22.117-9.9254 22.117-22.117 0-12.054-9.7042-21.885-21.707-22.105l-2.2676-93.682c2.2115-0.1181 4.3619-0.46637 6.4316-1.0156l78.635 264.49c-4.9775 1.8889-8.541 6.6971-8.541 12.32 0 7.2607 5.9307 13.184 13.191 13.184 7.2607 0 13.184-5.9229 13.184-13.184 0-7.2606-5.9229-13.186-13.184-13.186-0.97507 0-1.9239 0.11576-2.8398 0.31836l-78.641-264.48c2.0179-0.66704 3.9448-1.532 5.7617-2.5703l109.86 180.16c-4.4736 3.0899-7.418 8.2472-7.418 14.078 0 9.4246 7.679 17.104 17.104 17.104 6.8337 0 12.738-4.0467 15.477-9.8594l229.2 92.314c-0.4368 1.2701-0.7335 2.603-0.877 3.9805h3.8027c0.875-6.9311 6.7542-12.264 13.93-12.264 7.1757 0 13.05 5.3326 13.924 12.264h3.8145c-0.9-8.9903-8.5162-16.043-17.738-16.043-7.1362 0-13.298 4.2327-16.144 10.309l-229.2-92.309c0.58995-1.7278 0.92382-3.5723 0.92382-5.4961 0-9.4246-7.6868-17.105-17.111-17.105-2.9182 0-5.6669 0.73859-8.0742 2.0352l-109.85-180.15c1.8457-1.2061 3.5638-2.592 5.1172-4.1445l214.5 202.16c-1.7951 2.2065-2.8769 5.0148-2.8769 8.0684 0 7.0535 5.7531 12.809 12.807 12.809s12.816-5.7551 12.816-12.809c0-0.058-0.0098-0.11408-0.0097-0.17188l182.18-15.887c1.6778 13.969 13.587 24.828 28.002 24.828 15.561 0 28.223-12.652 28.223-28.213 0-3.1989-0.542-6.2718-1.5273-9.1406l67.564-25.684c1.7829 3.8072 5.3244 6.6308 9.5723 7.4102l-11.914 108.55c-0.4734-0.0309-0.9488-0.05273-1.4297-0.05273-11.994 0-21.754 9.7613-21.754 21.756 0 3.3201 0.75 6.4682 2.086 9.2871h4.2871c-1.6356-2.7112-2.5918-5.8806-2.5918-9.2871 0-9.952 8.0227-17.977 17.975-17.977 9.9519 0 17.982 8.0246 17.982 17.977 0 3.4067-0.9587 6.5758-2.5957 9.2871h4.2852c1.3368-2.8189 2.0878-5.9669 2.0878-9.2871 0-0.53206-0.0274-1.0575-0.0644-1.5801l121.43-14.172c1.1603 6.0911 6.5315 10.725 12.951 10.725 7.2607 0 13.186-5.9229 13.186-13.184 0-1.9075-0.4178-3.7189-1.1524-5.3594l78.08-41.73v-2.1426l-78.978 42.205c-1.2332-1.9458-2.9532-3.5502-4.9961-4.6328l32.402-73.988 51.572 11.066v-1.9375l-50.797-10.9 16.99-38.793 33.807 28.699v-2.4746l-33.018-28.027 10.326-23.578 22.691 32.756v-3.3203l-21.803-31.471 21.803-49.783v-4.7051l-23.064 52.662-35.33-50.996c3.9284-3.0727 6.4707-7.8429 6.4707-13.197 0-3.033-0.8255-5.8739-2.2441-8.332l54.168-35.309v-2.2598l-55.205 35.99c-3.057-4.142-7.9578-6.8477-13.482-6.8477-6.8018 0-12.665 4.0898-15.287 9.9316l-89.295-33.979c1.0918-3.1493 1.6934-6.5259 1.6934-10.043 0-0.43425-0.0153-0.86501-0.0332-1.2949l171.61-12.506v-1.8906l-171.74 12.514c-1.5954-15.467-14.699-27.566-30.582-27.566-16.956 0-30.738 13.788-30.738 30.744 0 14.633 10.267 26.893 23.977 29.98l-19.818 102.43c-0.5151-0.0616-1.0353-0.10351-1.5664-0.10351-7.2607 0-13.193 5.9229-13.193 13.184 0 1.3178 0.201 2.5903 0.5644 3.793l-67.547 25.68c-4.2743-10.161-14.332-17.314-26.029-17.314-0.958 0-1.9041 0.0489-2.8378 0.14258l-23.201-171.78c6.1632-1.2775 10.826-6.755 10.826-13.285 0-1.4193-0.2228-2.7885-0.6309-4.0762l111.74-43.953c2.2645 4.7543 7.1046 8.0644 12.703 8.0644 6.2177 0 11.511-4.0755 13.365-9.6875l87.457 22.344c-0.1537 0.83044-0.2441 1.6828-0.2441 2.5566 0 7.7509 6.3195 14.078 14.07 14.078 7.7509 0 14.076-6.3272 14.076-14.078 0-3.9595-1.6565-7.5388-4.3047-10.1l63.619-75.291c2.4308 1.8028 5.427 2.8828 8.6738 2.8828 8.0496 0 14.615-6.5656 14.615-14.615 0-8.0496-6.5657-14.617-14.615-14.617s-14.617 6.5676-14.617 14.617c0 4.1258 1.732 7.8538 4.498 10.516l-63.621 75.293c-2.3362-1.7234-5.2098-2.7559-8.3242-2.7559-6.2177 0-11.505 4.0715-13.357 9.6816l-87.459-22.344c0.1541-0.8313 0.2461-1.684 0.2461-2.5586 0-7.7509-6.3273-14.078-14.078-14.078-1.3234 0-2.6005 0.19653-3.8164 0.54102l-45.127-126.85c3.1152-1.2955 5.7928-3.4204 7.7871-6.0879l106.03 70.92c-3.2886 5.2098-5.2012 11.372-5.2012 17.979 0 18.63 15.142 33.771 33.772 33.771 18.63 0 33.773-15.142 33.773-33.771 0-10.365-4.6923-19.649-12.06-25.848l44.113-55.586c3.8944 2.8523 8.6906 4.543 13.877 4.543 12.981 0 23.549-10.56 23.549-23.541 0-12.981-10.568-23.547-23.549-23.547-12.679 0-23.042 10.082-23.518 22.646l-187.12 0.34961c-0.5144-9.8064-8.6429-17.645-18.574-17.645-10.261 0-18.617 8.3616-18.617 18.623 0 10.261 8.3559 18.617 18.617 18.617 1.8574 0 3.6491-0.28175 5.3437-0.79101l45.123 126.85c-4.9788 2.1737-8.4785 7.1439-8.4785 12.906 0 1.4848 0.2362 2.9158 0.666 4.2617l-111.74 43.953c-2.1914-4.5654-6.8515-7.7402-12.236-7.7402-7.4719 0-13.566 6.0965-13.566 13.568 0 7.4719 6.0945 13.568 13.566 13.568 0.2942 0 0.5815-0.02633 0.8711-0.04493l23.207 171.8c-13.324 2.25-23.502 13.865-23.502 27.82 0 0.50486 0.015 1.0055 0.041 1.5039l-182.19 15.887c-0.9906-6.0829-6.2811-10.762-12.635-10.762-3.3242 0-6.3504 1.2895-8.6309 3.3809l-214.51-202.17c1.9315-2.1724 3.5729-4.6079 4.8555-7.25l164.05 73.357c-0.9664 2.4357-1.5039 5.0867-1.5039 7.8613 0 11.796 9.6048 21.4 21.4 21.4s21.4-9.6048 21.4-21.4-9.6048-21.4-21.4-21.4c-8.3507 0-15.597 4.8174-19.121 11.814l-164.05-73.363c1.5412-3.7291 2.3965-7.8112 2.3965-12.092 0-0.59916-0.01984-1.1941-0.05274-1.7852l83.846-7.2246c0.96971 5.9622 6.1508 10.545 12.379 10.545 6.914 0 12.564-5.6426 12.564-12.557s-5.6504-12.564-12.564-12.564-12.557 5.6504-12.557 12.564c0 0.0435 0.00486 0.0855 0.00586 0.12891l-83.84 7.2226c-1.8252-15.793-15.269-28.088-31.545-28.088-14.255 0-26.339 9.4306-30.346 22.383l-71.5-19.785c0.34744-1.5178 0.53711-3.0954 0.53711-4.7168 0-11.656-9.4865-21.148-21.143-21.148-11.656 0-21.148 9.4923-21.148 21.148 0 0.17427 0.00898 0.34626 0.01368 0.51953l-199.27 13.838c-1.5531-15.678-14.805-27.955-30.887-27.955-17.123 0-31.047 13.918-31.047 31.041 0 14.922 10.576 27.414 24.627 30.379l-18.627 103.64c-0.39622-0.0395-0.79687-0.06054-1.2031-0.06054-6.6689 0-12.121 5.4463-12.121 12.115 0 1.1458 0.17031 2.2522 0.4707 3.3047l-68.338 25.312c-4.2138-10.267-14.312-17.516-26.082-17.516-0.99983 0-1.9877 0.0543-2.9609 0.15625l-23.781-170.51c6.4679-1.3465 11.352-7.095 11.352-13.953 0-1.481-0.22817-2.9108-0.65039-4.2559l111.32-43.082c2.2256 4.7274 7.0286 8.0215 12.582 8.0215 6.1759 0 11.429-4.0675 13.23-9.6582l87.041 21.529c-0.1535 0.85186-0.24609 1.7242-0.24609 2.6191 0 8.1483 6.6447 14.793 14.793 14.793s14.793-6.6447 14.793-14.793c0-4.2153-1.788-8.0181-4.6328-10.717l63.898-76.705c2.2278 1.6123 4.9529 2.5742 7.9024 2.5742 7.4579 0 13.545-6.087 13.545-13.545 0-7.4579-6.087-13.547-13.545-13.547-7.4579 0-13.539 6.089-13.539 13.547 0 3.8304 1.6108 7.2916 4.1816 9.7598l-63.896 76.705c-2.4473-1.7928-5.4522-2.8652-8.707-2.8652-6.5963 0-12.205 4.3562-14.104 10.338l-87.039-21.527c0.13821-0.784 0.22461-1.5856 0.22461-2.4082 0-7.6551-6.2452-13.9-13.9-13.9-1.2902 0-2.5353 0.19179-3.7227 0.52344l-45.424-128.75c3.0441-1.2604 5.6613-3.3302 7.6133-5.9316l105.48 70.66c-3.385 5.3472-5.3535 11.677-5.3535 18.465 0 19.095 15.518 34.613 34.613 34.613s34.613-15.518 34.613-34.613c0-10.555-4.7483-20.011-12.215-26.363l44.416-55.273c3.7924 2.8049 8.4784 4.4668 13.545 4.4668 12.586 0 22.824-10.246 22.824-22.832 0-12.586-10.238-22.824-22.824-22.824zm590.26 1.5762-1.3691 91.672c-1.1249 0.0639-2.2165 0.25749-3.25 0.58789l-29.416-73.656 34.035-18.604zm-590.26 2.2031c10.544 0 19.045 8.5013 19.045 19.045 0 10.544-8.5013 19.053-19.045 19.053s-19.053-8.5091-19.053-19.053c0-10.544 8.5091-19.045 19.053-19.045zm-229.64 4.6426c7.9795 0 14.408 6.4229 14.408 14.402s-6.4287 14.41-14.408 14.41c-7.9795 0-14.41-6.4307-14.41-14.41s6.4307-14.402 14.41-14.402zm-97.562 10.59c1.6881 2.663 4.127 4.7984 7.0254 6.1016l-40.545 107.19c-0.88097-0.26593-1.8007-0.44069-2.7461-0.52148l1.5195-93.584 34.746-19.186zm881.77 2.0801 29.334 73.459c-2.2919 1.1178-4.2089 2.8762-5.5254 5.0449l-69.738-35.488c1.1962-2.6274 1.8789-5.535 1.8789-8.6035 0-3.2886-0.7858-6.3905-2.1484-9.1602l46.199-25.252zm-766.06 2.6777h188.69c0.26478 6.462 3.2305 12.238 7.7949 16.232l-44.418 55.273c-5.8155-4.427-13.066-7.0625-20.928-7.0625-11.633 0-21.931 5.765-28.209 14.584l-105.48-70.66c1.484-2.4732 2.3926-5.3201 2.5508-8.3672zm-197.66 13.508 8.1816 20.312-44.637 24.646c-0.80312-1.3055-1.7366-2.5208-2.7949-3.6191l39.25-41.34zm898.8 1.1445c9.4588 0 17.09 7.6232 17.09 17.082 0 9.4588-7.631 17.09-17.09 17.09-9.4589 0-17.088-7.631-17.088-17.09 0-9.4588 7.629-17.082 17.088-17.082zm-853.49 0.82618-1.498 92.512c-1.1994 0.06389-2.3605 0.27319-3.459 0.63085l-29.789-73.955 34.746-19.188zm1340.1 7.5605c10.938 0 19.768 8.8294 19.768 19.768 0 10.938-8.8294 19.762-19.768 19.762s-19.762-8.8235-19.762-19.762c0-10.938 8.8235-19.768 19.762-19.768zm-229.21 5.3516c8.2189 0 14.844 6.6249 14.844 14.844 0 8.2188-6.6249 14.838-14.844 14.838-8.2187 0-14.838-6.6191-14.838-14.838 0-8.2188 6.6191-14.844 14.838-14.844zm-1147.3 7.1953 29.707 73.754c-2.3049 1.1283-4.2432 2.886-5.5918 5.0527l-68.34-35.91c1.2889-2.7308 2.0137-5.7774 2.0137-8.9902 0-3.368-0.79682-6.5519-2.2051-9.3809l44.416-24.525zm1353 8.2109c0.2798 6.7186 3.3887 12.715 8.164 16.834l-44.115 55.582c-5.643-4.2352-12.65-6.748-20.236-6.748-11.348 0-21.396 5.6248-27.522 14.229l-106.02-70.92c1.5307-2.5483 2.4638-5.4851 2.6172-8.6289l187.11-0.34765zm-513.45 3.1738c10.741 0 19.408 8.6654 19.408 19.406 0 10.741-8.6673 19.408-19.408 19.408s-19.406-8.6673-19.406-19.408c0-10.741 8.6654-19.406 19.406-19.406zm-902.91 5.1602c9.6135 0 17.369 7.7478 17.369 17.361 0 9.6135-7.7556 17.369-17.369 17.369s-17.369-7.7556-17.369-17.369c0-9.6135 7.7556-17.361 17.369-17.361zm383.27 16.092c17.053 0 30.834 13.781 30.834 30.834s-13.781 30.834-30.834 30.834-30.834-13.781-30.834-30.834 13.781-30.834 30.834-30.834zm670 4.998c5.2181 0 9.4063 4.1862 9.4063 9.4043s-4.1882 9.4121-9.4063 9.4121c-5.218 0-9.4101-4.1941-9.4101-9.4121s4.1921-9.4043 9.4101-9.4043zm-566.43 4.998c5.4153 0 9.7656 4.3503 9.7656 9.7656 0 5.4153-4.3503 9.7656-9.7656 9.7656-5.4153 0-9.7598-4.3503-9.7598-9.7656 0-5.4153 4.3445-9.7656 9.7598-9.7656zm-537.5 4.791c-12.586 0-22.832 10.246-22.832 22.832 0 11.283 8.2359 20.679 19.008 22.506l-23.385 183.3c-0.45049-0.0336-0.90047-0.06836-1.3594-0.06836-10.022 0-18.188 8.1674-18.188 18.189 0 10.022 8.1654 18.188 18.188 18.188 10.022 0 18.182-8.1654 18.182-18.188 0-0.984-0.10059-1.9425-0.25195-2.8848l131.87-28.311c1.6666 5.764 6.9911 10.008 13.277 10.008 0.83473 0 1.6488-0.0873 2.4434-0.23046l28.695 114.18c-5.4195 1.7806-9.3555 6.8874-9.3555 12.889 0 7.4719 6.0964 13.576 13.568 13.576s13.576-6.1042 13.576-13.576c0-7.4719-6.1042-13.568-13.576-13.568-0.81338 0-1.6062 0.0862-2.3809 0.22461l-28.693-114.18c5.527-1.8108 9.541-7.0202 9.541-13.139 0-7.6114-6.207-13.818-13.818-13.818s-13.826 6.207-13.826 13.818c0 0.6705 0.065 1.3252 0.1582 1.9707l-131.87 28.312c-0.87204-3.2263-2.6009-6.1001-4.9414-8.3555l82.703-95.373c5.8718 4.82 13.381 7.7168 21.559 7.7168 18.769 0 34.031-15.252 34.031-34.021 0-18.769-15.262-34.023-34.031-34.023-8.9852 0-17.158 3.5013-23.244 9.2051l-48.334-48.812c3.7952-4.0788 6.123-9.5397 6.123-15.535 0-12.586-10.246-22.832-22.832-22.832zm969.16 0.51562 49.172 49.848c-5.9328 6.1819-9.5898 14.564-9.5898 23.795 0 10.029 4.3086 19.063 11.172 25.355l-81.914 94.494c-2.3408-1.8316-5.1304-3.1038-8.1778-3.627l21.941-183.9c0.5969 0.0463 1.1982 0.07617 1.8067 0.07617 5.9962 0 11.469-2.2891 15.59-6.0391zm-969.16 3.2637c10.544 0 19.053 8.5091 19.053 19.053s-8.5091 19.053-19.053 19.053c-10.544 0-19.053-8.5091-19.053-19.053s8.5091-19.053 19.053-19.053zm149.66 24.943c5.4293 0 9.7891 4.3578 9.7891 9.7871 0 5.4293-4.3598 9.7891-9.7891 9.7891-5.4293 0-9.7949-4.3598-9.7949-9.7891 0-5.4293 4.3656-9.7871 9.7949-9.7871zm1261.2 1.5117c16.587 0 29.994 13.407 29.994 29.994 0 16.587-13.407 29.992-29.994 29.992-16.587 0-29.992-13.405-29.992-29.992 0-16.587 13.405-29.994 29.992-29.994zm103.27 8.9043c6.007 0 10.836 4.8289 10.836 10.836s-4.8289 10.836-10.836 10.836-10.836-4.8289-10.836-10.836 4.8289-10.836 10.836-10.836zm-1498.7 0.55859 48.332 48.812c-5.8394 6.1106-9.4356 14.383-9.4356 23.488 0 9.9141 4.2576 18.844 11.039 25.066l-82.709 95.377c-2.2752-1.7798-4.9769-3.0283-7.9297-3.5625l23.389-183.3c0.64193 0.0545 1.2896 0.08789 1.9453 0.08789 5.9137 0 11.309-2.263 15.369-5.9668zm1027.8 3.8477c16.931 0 30.621 13.682 30.621 30.613 0 16.931-13.69 30.619-30.621 30.619-16.931 0-30.611-13.688-30.611-30.619 0-16.931 13.68-30.613 30.611-30.613zm-702.42 21.311c5.6126 0 10.121 4.5086 10.121 10.121 0 5.6126-4.5085 10.121-10.121 10.121s-10.127-4.5085-10.127-10.121c0-5.6125 4.5144-10.121 10.127-10.121zm736.36 14.867 119.01 16.162c-0.041 0.49736-0.0762 0.99621-0.0762 1.5039 0 3.1009 0.7844 6.0223 2.1602 8.5801l-97.527 58.959c-2.5048-3.5551-6.6316-5.8926-11.293-5.8926-7.6114 0-13.826 6.2148-13.826 13.826 0 0.68947 0.068 1.3626 0.166 2.0254l-131.28 28.736c-0.8871-3.2343-2.6291-6.114-4.9805-8.377l81.906-94.496c5.9364 4.8759 13.528 7.8066 21.797 7.8066 17.079 0 31.278-12.5 33.945-28.834zm-988.79 2.0312c16.727 0 30.252 13.518 30.252 30.244 0 16.727-13.525 30.242-30.252 30.242s-30.242-13.516-30.242-30.242c0-16.727 13.516-30.244 30.242-30.244zm1125.9 1.2246c7.9795 0 14.41 6.4307 14.41 14.41s-6.4306 14.402-14.41 14.402-14.402-6.4228-14.402-14.402c0-0.49872 0.0253-0.99114 0.0743-1.4766 0.7348-7.2813 6.8473-12.934 14.328-12.934zm-758.66 9.375c6.1056 0 11.014 4.908 11.014 11.014 0 6.1057-4.908 11.014-11.014 11.014-6.1057 0-11.014-4.908-11.014-11.014 0-6.1056 4.908-11.014 11.014-11.014zm861.86 15.156c5.7083 0 10.299 4.5886 10.299 10.297 0 5.7083-4.5905 10.297-10.299 10.297s-10.297-4.5886-10.297-10.297c0-5.7083 4.5886-10.297 10.297-10.297zm-1114.2 10.201c5.8098 0 10.475 4.6726 10.475 10.482 0 5.8098-4.6648 10.475-10.475 10.475-5.8098 0-10.482-4.6648-10.482-10.475 0-5.8098 4.6726-10.482 10.482-10.482zm413.26 2.8047c9.6135 0 17.363 7.7556 17.363 17.369 0 9.6135-7.7498 17.363-17.363 17.363s-17.369-7.7498-17.369-17.363c0-9.6135 7.7556-17.369 17.369-17.369zm-251.29 7.5527c15.08 0 27.262 12.179 27.262 27.26s-12.181 27.27-27.262 27.27c-15.08 0-27.268-12.189-27.268-27.27s12.187-27.26 27.268-27.26zm1066.9 8.7402c5.7083 0 10.297 4.5808 10.297 10.289 0 5.7083-4.5886 10.299-10.297 10.299-5.7082 0-10.291-4.5905-10.291-10.299 0-5.7083 4.5828-10.289 10.291-10.289zm-836.57 3.4785c0.30364 2.6682 1.1046 5.1865 2.3106 7.4609l-83.146 48.756c-3.0388-4.5583-8.2227-7.5723-14.096-7.5723-6.9142 0-12.87 4.1786-15.496 10.137l-90.467-33.773c1.0634-3.1305 1.6484-6.4808 1.6484-9.9668 0-0.40345-0.01595-0.80337-0.03124-1.2031l199.28-13.838zm143.46 3.4961c15.475 0 27.984 12.504 27.984 27.979 0 15.475-12.51 27.977-27.984 27.977-15.475 0-27.977-12.502-27.977-27.977 0-15.475 12.502-27.979 27.977-27.979zm-102.35 0.64258 71.508 19.779c-0.59339 2.4232-0.91602 4.9526-0.91602 7.5566 0 14.369 9.5846 26.526 22.697 30.434l-46.533 175.12c-1.0801-0.22229-2.1992-0.33789-3.3438-0.33789-9.1456 0-16.602 7.4579-16.602 16.604 0 5.6706 2.8702 10.687 7.2285 13.684l-48.734 80.67c-1.853-0.95478-3.9454-1.5039-6.166-1.5039-6.2597 0-11.54 4.2943-13.08 10.082l-258.25-49.449c0.15094-1.0322 0.23243-2.0868 0.23243-3.1602 0-0.49624-0.02384-0.98655-0.05664-1.4746l122.48-13.703c1.0929 5.7645 6.1705 10.15 12.244 10.15 6.8662 0 12.475-5.6026 12.475-12.469 0-1.8259-0.40772-3.5568-1.1191-5.123l88.906-48.531c5.4338 9.2382 15.475 15.453 26.949 15.453 17.235 0 31.248-14.013 31.248-31.248 0-16.438-12.75-29.933-28.883-31.146l7.5918-166.78c8e-3 1e-5 0.01564 0 0.02344 0 9.3736 0 17.339-6.1369 20.102-14.602zm-37.83 4.9453c1.9526 3.0007 4.6349 5.483 7.8066 7.1758l-56.346 118.5-39.201-55.9c3.9282-3.107 6.4629-7.9032 6.4629-13.283 0-2.7838-0.68956-5.4065-1.8867-7.7266l83.164-48.768zm268.12 2.584c4.8714 0 8.7852 3.9137 8.7852 8.7852s-3.9137 8.7773-8.7852 8.7773-8.7773-3.9059-8.7773-8.7773 3.9059-8.7852 8.7773-8.7852zm-258.61 5.4102c1.97 0.83413 4.0937 1.3728 6.3125 1.5723l-7.5977 166.79c-0.15929-2e-3 -0.31669-0.01172-0.47656-0.01172-6.3312 0-12.224 1.896-17.15 5.1426l-37.891-54.027 56.803-119.46zm571.75 4.6953c5.4294 0 9.7969 4.3598 9.7969 9.7891 0 5.4293-4.3675 9.7891-9.7969 9.7891-5.4293 0-9.7871-4.3597-9.7871-9.7891 0-5.4293 4.3578-9.7891 9.7871-9.7891zm-90.656 0.75391c5.5688 0 10.039 4.4781 10.039 10.047 0 5.5688-4.4702 10.039-10.039 10.039s-10.047-4.4703-10.047-10.039c0-5.5688 4.4781-10.047 10.047-10.047zm-695.44 4.2539 90.453 33.77c-0.4958 1.5894-0.76368 3.2776-0.76368 5.0273 0 5.2015 2.3655 9.8628 6.0723 12.975l-18.057 24.191-82.035-68.543c1.766-2.2458 3.2313-4.7385 4.3301-7.4199zm949.24 5.0918c14.913 0 26.965 12.051 26.965 26.965 0 14.913-12.051 26.959-26.965 26.959-14.914 0-26.959-12.046-26.959-26.959 0-14.913 12.046-26.965 26.959-26.965zm-954.78 3.7812 82.113 68.607-42.662 57.156-49.734-118.15c3.9394-1.8085 7.4363-4.4142 10.283-7.6152zm-12.023 8.3516 50.162 119.17-9.7969 13.125-65.773-13.656c0.064-0.5024 0.10742-1.0102 0.10742-1.5293 0-5.6111-3.8613-10.343-9.0566-11.707l18.635-103.65c1.4878 0.21972 3.0086 0.33594 4.5566 0.33594 3.936 0 7.6988-0.74265 11.166-2.084zm124.19 8.418c7.2891 0 13.154 5.8652 13.154 13.154s-5.8652 13.162-13.154 13.162c-7.2891 0-13.154-5.873-13.154-13.162s5.8652-13.154 13.154-13.154zm426.18 1.166c8.0793 0 14.588 6.5066 14.588 14.586 0 8.0793-6.5086 14.596-14.588 14.596s-14.586-6.5164-14.586-14.596c0-8.0793 6.5066-14.586 14.586-14.586zm-792.21 7.832c5.5688 0 10.039 4.4703 10.039 10.039 0 5.5688-4.4703 10.047-10.039 10.047-5.5688 0-10.047-4.4781-10.047-10.047 0-5.5688 4.4781-10.039 10.047-10.039zm1237 9.2227 89.281 33.977c-0.5093 1.5994-0.7891 3.2995-0.7891 5.0644 0 5.1451 2.3411 9.7566 6.0078 12.836l-17.996 24.113-80.863-68.645c1.774-2.22 3.2495-4.6871 4.3594-7.3457zm-5.5801 8.7891 80.953 68.719-42.215 56.568-48.896-117.88c3.8805-1.7576 7.3359-4.2914 10.158-7.4121zm-874.77 0.25195c2.6822 1.7863 5.8958 2.834 9.3496 2.834 3.275 0 6.3268-0.95226 8.9219-2.5723l39.818 56.775-10.518 22.119-65.688-54.885 18.115-24.271zm862.86 7.8906 49.326 118.91-10.188 13.652-65.145-13.977c0.085-0.60127 0.1446-1.2101 0.1446-1.834 0-6.0764-4.1547-11.202-9.7637-12.717l19.818-102.43c1.5991 0.25754 3.2372 0.39649 4.9082 0.39649 3.8368 0 7.5089-0.71155 10.898-2zm-1382.6 4.4883c7.9795 0 14.402 6.4307 14.402 14.41s-6.4229 14.408-14.402 14.408c-7.9795 0-14.408-6.4288-14.408-14.408 0-7.9795 6.4287-14.41 14.408-14.41zm1505.4 4.6426c7.1905 0 12.984 5.788 12.984 12.979 0 7.1905-5.7939 12.984-12.984 12.984s-12.978-5.7939-12.978-12.984c0-7.1905 5.788-12.979 12.978-12.979zm-1004.8 8.7676 65.984 55.131-17.684 37.191-84.488-17.543-7.0781-16.814 43.266-57.965zm479.53 3.4199c9.753 0 17.621 7.8681 17.621 17.621 0 9.753-7.8681 17.621-17.621 17.621s-17.621-7.8681-17.621-17.621c0-9.753 7.8681-17.621 17.621-17.621zm516.08 14.758c2.6522 1.7633 5.8276 2.7969 9.2402 2.7969 3.2023 0 6.1887-0.92166 8.7383-2.4902l35.992 51.955-10.566 24.125-61.469-52.18 18.064-24.207zm-917.02 14.848 37.275 53.146c-1.6917 1.267-3.248 2.7064-4.6504 4.2832l-42.893-35.836 10.268-21.594zm897.83 10.875 61.81 52.469-17.373 39.666-79.949-17.154-7.3028-17.605 42.814-57.375zm-1109.4 3.4062c4.6263 0 8.3359 3.7076 8.3359 8.334s-3.7096 8.3418-8.3359 8.3418-8.3398-3.7155-8.3398-8.3418 3.7135-8.334 8.3398-8.334zm403.57 7.8535c10.149 0 18.338 8.1867 18.338 18.336 0 10.149-8.1887 18.338-18.338 18.338-10.149 0-18.336-8.1887-18.336-18.338 0-10.149 8.1867-18.336 18.336-18.336zm-203.08 1.2207 42.52 35.525c-2.7442 3.4863-4.7616 7.5673-5.8262 12.018l-53.971-11.205 17.277-36.338zm585.04 2.0938c5.7083 0 10.297 4.5886 10.297 10.297 0 5.7083-4.5886 10.299-10.297 10.299-5.7082 0-10.299-4.5906-10.299-10.299 0-5.7083 4.5906-10.297 10.299-10.297zm-773.9 0.55079 64.908 13.475-22.434 30.055-44.469-39.6c0.88815-1.1661 1.5729-2.4902 1.9941-3.9297zm76.805 0.69726 6.1426 14.59-14.746-3.0625 8.6035-11.527zm-80.051 4.6445 44.586 39.709-56.795 76.09c-2.607-1.7809-5.6174-3.0097-8.8652-3.5176l12.279-108.91c0.14001 5e-3 0.27683 0.02148 0.41797 0.02148 3.2465 0 6.1972-1.299 8.377-3.3945zm-114.45 6.1543c13.502 0 24.406 10.902 24.406 24.404 0 13.502-10.904 24.412-24.406 24.412s-24.41-10.91-24.41-24.412c0-13.502 10.908-24.404 24.41-24.404zm184.64 2.4043 16.889 3.5059 39.201 93.131c-1.0847 0.5609-2.0777 1.2726-2.9492 2.1133l-76.201-67.859 23.061-30.891zm19.135 3.9726 82.76 17.184-35.631 74.939c-1.3946-0.54167-2.9033-0.85156-4.4844-0.85156-1.3804 0-2.7062 0.23625-3.9492 0.65429l-38.695-91.926zm169.86 6.8301c15.192 0 27.469 12.274 27.469 27.467 0 15.192-12.276 27.469-27.469 27.469-15.192 0-27.467-12.276-27.467-27.469 0-15.192 12.274-27.467 27.467-27.467zm708.51 5.7207c5.218 0 9.4043 4.1862 9.4043 9.4043s-4.1863 9.4122-9.4043 9.4121c-5.2181 0-9.4121-4.1941-9.4121-9.4121s4.194-9.4043 9.4121-9.4043zm-793.7 5.0274 54.424 11.301c-0.30906 1.761-0.48046 3.5695-0.48046 5.418 0 5.0854 1.2278 9.8856 3.3906 14.133l-88.906 48.531c-1.0805-1.6555-2.5425-3.0366-4.2598-4.0254l35.832-75.357zm-351.45 2.3848c5.4293 0 9.7969 4.3578 9.7969 9.7871s-4.3676 9.7969-9.7969 9.7969-9.7871-4.3676-9.7871-9.7969 4.3578-9.7871 9.7871-9.7871zm1157.8 5.6797 64.289 13.793-22.316 29.902-44.19-39.357c0.9889-1.2831 1.7511-2.7464 2.2168-4.3379zm76.564 0.5 6.3691 15.357-15.367-3.2988 8.9981-12.059zm-1010.9 2.2969 76.08 67.756c-1.6066 2.1005-2.5742 4.714-2.5742 7.5508 0 0.14764 0.01628 0.29106 0.02148 0.4375l-122.48 13.703c-0.84149-5.4106-3.685-10.167-7.7461-13.488l56.699-75.959zm930.87 2.959 44.309 39.461-56.965 76.336c-2.6236-1.7913-5.6553-3.0255-8.9258-3.5274l11.906-108.55c0.1667 6e-3 0.3299 0.02539 0.4981 0.02539 3.564 0 6.8006-1.4342 9.1777-3.748zm-115.38 6.4941c13.519 0 24.441 10.923 24.441 24.441 0 13.519-10.923 24.434-24.441 24.434-13.519 0-24.434-10.915-24.434-24.434 0-13.519 10.915-24.441 24.434-24.441zm185.17 1.9785 17.496 3.7539 37.98 91.566c-1.206 0.60967-2.3074 1.3925-3.2676 2.3262l-75.139-66.918 22.93-30.729zm19.748 4.2383 78.291 16.797-32.25 73.639c-1.3793-0.49237-2.856-0.77539-4.4004-0.77539-1.4535 0-2.8501 0.2471-4.1602 0.68555l-37.48-90.346zm-539.54 13.486c7.3819 0 13.332 5.9423 13.332 13.324 0 7.382-5.9501 13.324-13.332 13.324-7.382 0-13.324-5.9423-13.324-13.324 0-7.3819 5.9423-13.324 13.324-13.324zm-194.2 0.50195c7.103 0 12.814 5.7192 12.814 12.822 0 7.103-5.7115 12.822-12.814 12.822s-12.822-5.7193-12.822-12.822c0-7.103 5.7193-12.822 12.822-12.822zm689.92 14.023 75.018 66.811c-1.7202 2.2285-2.7558 5.01-2.7558 8.0293 0 0.19721 0.0213 0.38884 0.0293 0.58398l-121.43 14.166c-0.8625-5.3666-3.6946-10.083-7.7305-13.383l56.869-76.207zm-384.1 0.62109c5.0109 0 9.0371 4.0242 9.0371 9.0352 0 5.0109-4.0262 9.0293-9.0371 9.0293s-9.0273-4.0184-9.0273-9.0293c0-5.0109 4.0164-9.0352 9.0273-9.0352zm-732.95 0.67187c-15.545 0-28.191 12.639-28.191 28.184 0 0.49836 0.01336 0.99424 0.03906 1.4863l-179.85 15.525c-0.99428-6.2207-6.3968-11.01-12.889-11.01-7.193 0-13.059 5.8734-13.059 13.066 0 7.193 5.8656 13.066 13.059 13.066s13.066-5.8734 13.066-13.066c0-0.0587-0.00877-0.11533-0.00977-0.17383l179.85-15.525c1.6711 13.961 13.578 24.822 27.982 24.822 15.545 0 28.184-12.646 28.184-28.191 0-15.545-12.639-28.184-28.184-28.184zm0 3.7793c13.502 0 24.404 10.902 24.404 24.404 0 13.502-10.902 24.412-24.404 24.412-13.502 0-24.412-10.91-24.412-24.412 0-13.502 10.91-24.404 24.412-24.404zm226.43 17.857c4.8236 0 8.6953 3.8717 8.6953 8.6953 0 4.8235-3.8718 8.6894-8.6953 8.6894-4.8235 0-8.6894-3.8659-8.6894-8.6894 0-4.8236 3.8659-8.6953 8.6894-8.6953zm-156.42 8.2148c9.9519 0 17.977 8.0246 17.977 17.977 0 9.952-8.0246 17.982-17.977 17.982-9.9519 0-17.98-8.0305-17.98-17.982 0-9.9519 8.0285-17.977 17.98-17.977zm-290.89 8.1133c5.1504 0 9.2871 4.1367 9.2871 9.2871 0 5.1504-4.1367 9.2852-9.2871 9.2852s-9.2773-4.1348-9.2773-9.2852c0-5.1504 4.127-9.2871 9.2773-9.2871zm1423.4 26.17c5.2181 0 9.4062 4.1941 9.4062 9.4121s-4.1881 9.4043-9.4062 9.4043-9.4102-4.1862-9.4102-9.4043 4.1921-9.4121 9.4102-9.4121zm-625 9.6465c5.2181 0 9.4043 4.1882 9.4043 9.4062 0 5.2181-4.1862 9.4043-9.4043 9.4043-5.218 0-9.4121-4.1862-9.4121-9.4043 0-5.218 4.1941-9.4063 9.4121-9.4062z" color="#000000" color-rendering="auto" dominant-baseline="auto" fill="#32ccf1" image-rendering="auto" opacity=".25" shape-rendering="auto" solid-color="#000000" style="font-feature-settings:normal;font-variant-alternates:normal;font-variant-caps:normal;font-variant-ligatures:normal;font-variant-numeric:normal;font-variant-position:normal;isolation:auto;mix-blend-mode:normal;shape-padding:0;text-decoration-color:#000000;text-decoration-line:none;text-decoration-style:solid;text-indent:0;text-orientation:mixed;text-transform:none;white-space:normal"/>
 </g>
</svg>
