<?xml version="1.0" encoding="UTF-8" standalone="no"?>
<!-- Created with Inkscape (http://www.inkscape.org/) -->

<svg
   xmlns:dc="http://purl.org/dc/elements/1.1/"
   xmlns:cc="http://creativecommons.org/ns#"
   xmlns:rdf="http://www.w3.org/1999/02/22-rdf-syntax-ns#"
   xmlns:svg="http://www.w3.org/2000/svg"
   xmlns="http://www.w3.org/2000/svg"
   xmlns:sodipodi="http://sodipodi.sourceforge.net/DTD/sodipodi-0.dtd"
   xmlns:inkscape="http://www.inkscape.org/namespaces/inkscape"
   width="1000"
   height="1000"
   viewBox="0 0 264.58333 264.58333"
   version="1.1"
   id="svg8"
   inkscape:version="0.92.4 (5da689c313, 2019-01-14)"
   sodipodi:docname="First.svg">
  <defs
     id="defs2" />
  <sodipodi:namedview
     id="base"
     pagecolor="#ffffff"
     bordercolor="#666666"
     borderopacity="1.0"
     inkscape:pageopacity="0.0"
     inkscape:pageshadow="2"
     inkscape:zoom="0.35"
     inkscape:cx="284.72531"
     inkscape:cy="569.6273"
     inkscape:document-units="mm"
     inkscape:current-layer="layer1"
     showgrid="false"
     units="px"
     width="1000px"
     inkscape:window-width="1280"
     inkscape:window-height="741"
     inkscape:window-x="0"
     inkscape:window-y="36"
     inkscape:window-maximized="1" />
  <metadata
     id="metadata5">
    <rdf:RDF>
      <cc:Work
         rdf:about="">
        <dc:format>image/svg+xml</dc:format>
        <dc:type
           rdf:resource="http://purl.org/dc/dcmitype/StillImage" />
        <dc:title />
      </cc:Work>
    </rdf:RDF>
  </metadata>
  <g
     inkscape:label="Layer 1"
     inkscape:groupmode="layer"
     id="layer1"
     transform="translate(0,-32.416667)">
    <circle
       style="fill:#21252b;fill-opacity:1;stroke:#181a1f;stroke-width:20.2926712;stroke-miterlimit:4;stroke-dasharray:none;stroke-dashoffset:0;stroke-opacity:1"
       id="path3721"
       cx="132.72482"
       cy="173.80797"
       r="87.712234" />
    <g
       id="g4613"
       transform="matrix(0.26458333,0,0,0.26458333,224.12499,83.337506)" />
    <g
       id="g4615"
       transform="matrix(0.26458333,0,0,0.26458333,224.12499,83.337506)" />
    <g
       id="g4617"
       transform="matrix(0.26458333,0,0,0.26458333,224.12499,83.337506)" />
    <g
       id="g4619"
       transform="matrix(0.26458333,0,0,0.26458333,224.12499,83.337506)" />
    <g
       id="g4621"
       transform="matrix(0.26458333,0,0,0.26458333,224.12499,83.337506)" />
    <g
       id="g4623"
       transform="matrix(0.26458333,0,0,0.26458333,224.12499,83.337506)" />
    <g
       id="g4625"
       transform="matrix(0.26458333,0,0,0.26458333,224.12499,83.337506)" />
    <g
       id="g4627"
       transform="matrix(0.26458333,0,0,0.26458333,224.12499,83.337506)" />
    <g
       id="g4629"
       transform="matrix(0.26458333,0,0,0.26458333,224.12499,83.337506)" />
    <g
       id="g4631"
       transform="matrix(0.26458333,0,0,0.26458333,224.12499,83.337506)" />
    <g
       id="g4633"
       transform="matrix(0.26458333,0,0,0.26458333,224.12499,83.337506)" />
    <g
       id="g4635"
       transform="matrix(0.26458333,0,0,0.26458333,224.12499,83.337506)" />
    <g
       id="g4637"
       transform="matrix(0.26458333,0,0,0.26458333,224.12499,83.337506)" />
    <g
       id="g4639"
       transform="matrix(0.26458333,0,0,0.26458333,224.12499,83.337506)" />
    <g
       id="g4641"
       transform="matrix(0.26458333,0,0,0.26458333,224.12499,83.337506)" />
    <path
       style="color:#000000;font-style:normal;font-variant:normal;font-weight:normal;font-stretch:normal;font-size:medium;line-height:normal;font-family:sans-serif;font-variant-ligatures:normal;font-variant-position:normal;font-variant-caps:normal;font-variant-numeric:normal;font-variant-alternates:normal;font-feature-settings:normal;text-indent:0;text-align:start;text-decoration:none;text-decoration-line:none;text-decoration-style:solid;text-decoration-color:#000000;letter-spacing:normal;word-spacing:normal;text-transform:none;writing-mode:lr-tb;direction:ltr;text-orientation:mixed;dominant-baseline:auto;baseline-shift:baseline;text-anchor:start;white-space:normal;shape-padding:0;clip-rule:nonzero;display:inline;overflow:visible;visibility:visible;opacity:1;isolation:auto;mix-blend-mode:normal;color-interpolation:sRGB;color-interpolation-filters:linearRGB;solid-color:#000000;solid-opacity:1;vector-effect:none;fill:#d7dae0;fill-opacity:1;fill-rule:nonzero;stroke:#181a1f;stroke-width:0.12906456;stroke-linecap:butt;stroke-linejoin:miter;stroke-miterlimit:4;stroke-dasharray:none;stroke-dashoffset:0;stroke-opacity:1;color-rendering:auto;image-rendering:auto;shape-rendering:auto;text-rendering:auto;enable-background:accumulate"
       d="M 127.3877,92.200623 48.456652,214.64303 h -3.307279 v 31.96114 l 11.23265,-17.42371 H 203.26606 V 214.64303 H 65.754328 L 139.60849,100.07809 Z"
       id="path4566"
       inkscape:connector-curvature="0" />
    <path
       style="fill:#d7dae0;fill-opacity:1;stroke:#181a1f;stroke-width:2;stroke-miterlimit:4;stroke-dasharray:none;stroke-dashoffset:0;stroke-opacity:1"
       d="M 29.530548,235.25023 A 28.267791,28.267791 0 0 1 39.877282,196.63572 28.267791,28.267791 0 0 1 78.491799,206.98246 28.267791,28.267791 0 0 1 68.145072,245.59697 28.267791,28.267791 0 0 1 29.530548,235.25023 Z"
       id="path4528"
       inkscape:connector-curvature="0" />
    <path
       style="fill:#d7dae0;fill-opacity:1;stroke:#181a1f;stroke-width:2;stroke-miterlimit:4;stroke-dasharray:none;stroke-dashoffset:0;stroke-opacity:1"
       d="m 184.97843,235.24998 a 28.267791,28.267791 0 0 1 10.34674,-38.61451 28.267791,28.267791 0 0 1 38.61452,10.34672 28.267791,28.267791 0 0 1 -10.34673,38.61453 28.267791,28.267791 0 0 1 -38.61453,-10.34674 z"
       id="path4528-7"
       inkscape:connector-curvature="0" />
    <path
       style="fill:#d7dae0;fill-opacity:1;stroke:#181a1f;stroke-width:2;stroke-miterlimit:4;stroke-dasharray:none;stroke-dashoffset:0;stroke-opacity:1"
       d="m 112.72446,101.15848 a 28.267791,28.267791 0 0 1 10.34674,-38.6145 28.267791,28.267791 0 0 1 38.61451,10.346724 28.267791,28.267791 0 0 1 -10.34672,38.614506 28.267791,28.267791 0 0 1 -38.61453,-10.34673 z"
       id="path4528-6"
       inkscape:connector-curvature="0" />
    <path
       style="color:#000000;font-style:normal;font-variant:normal;font-weight:normal;font-stretch:normal;font-size:medium;line-height:normal;font-family:sans-serif;font-variant-ligatures:normal;font-variant-position:normal;font-variant-caps:normal;font-variant-numeric:normal;font-variant-alternates:normal;font-feature-settings:normal;text-indent:0;text-align:start;text-decoration:none;text-decoration-line:none;text-decoration-style:solid;text-decoration-color:#000000;letter-spacing:normal;word-spacing:normal;text-transform:none;writing-mode:lr-tb;direction:ltr;text-orientation:mixed;dominant-baseline:auto;baseline-shift:baseline;text-anchor:start;white-space:normal;shape-padding:0;clip-rule:nonzero;display:inline;overflow:visible;visibility:visible;opacity:1;isolation:auto;mix-blend-mode:normal;color-interpolation:sRGB;color-interpolation-filters:linearRGB;solid-color:#000000;solid-opacity:1;vector-effect:none;fill:#d7dae0;fill-opacity:1;fill-rule:nonzero;stroke:#181a1f;stroke-width:2;stroke-linecap:butt;stroke-linejoin:miter;stroke-miterlimit:4;stroke-dasharray:none;stroke-dashoffset:0;stroke-opacity:1;color-rendering:auto;image-rendering:auto;shape-rendering:auto;text-rendering:auto;enable-background:accumulate"
       d="M 79.110419,229.18046 H 203.26606 V 214.64303 H 181.80655 79.505251 M 72.872194,203.14336 139.60849,100.07809 127.3877,92.200623 60.916675,195.64159"
       id="path4566-5"
       inkscape:connector-curvature="0"
       sodipodi:nodetypes="ccccccccc" />
    <path
       style="fill:#d7dae0;fill-opacity:1;stroke:none;stroke-width:5;stroke-miterlimit:4;stroke-dasharray:none;stroke-dashoffset:0;stroke-opacity:1"
       d="m 52.18171,194.49286 c -20.294856,1.50154 -30.393147,29.17128 -15.890601,43.38381 12.845344,15.45915 40.886786,7.97069 44.379563,-11.78248 4.443578,-16.95303 -11.12914,-34.222 -28.488962,-31.60133 z"
       id="path4528-62"
       inkscape:connector-curvature="0" />
    <path
       style="fill:#d7dae0;fill-opacity:1;stroke:none;stroke-width:5;stroke-miterlimit:4;stroke-dasharray:none;stroke-dashoffset:0;stroke-opacity:1"
       d="m 204.93394,195.05116 c -18.03839,1.5184 -29.16323,23.90511 -19.51172,39.20899 8.45801,16.06884 33.62313,17.54838 43.81292,2.48487 11.66596,-14.3438 2.40681,-38.46788 -15.852,-41.34669 -2.77262,-0.58942 -5.63584,-0.64845 -8.4492,-0.34717 z"
       id="path4528-7-9"
       inkscape:connector-curvature="0" />
    <path
       style="fill:#d7dae0;fill-opacity:1;stroke:none;stroke-width:5;stroke-miterlimit:4;stroke-dasharray:none;stroke-dashoffset:0;stroke-opacity:1"
       d="m 133.78953,62.206696 c -18.04044,1.516364 -29.16907,23.903201 -19.51563,39.208984 8.45802,16.06884 33.62314,17.54838 43.81292,2.48487 11.66444,-14.341259 2.40988,-38.465461 -15.84789,-41.34366 -2.77202,-0.59065 -5.63629,-0.651872 -8.4494,-0.350194 z"
       id="path4528-6-1"
       inkscape:connector-curvature="0" />
  </g>
</svg>
